<mxfile modified="2022-09-21T08:51:15.423Z" host="drawio-plugin" agent="5.0 (X11; Linux x86_64) AppleWebKit/537.36 (KHTML, like Gecko) Chrome/98.0.4758.102 Safari/537.36" etag="WxhAQmzAcRfC_GG7C7EU" version="15.5.4" type="embed" pages="5"><diagram id="5fv781UrCtvl-2jIERiF" name="as is - central settlement"><mxGraphModel dx="1913" dy="737" grid="1" gridSize="10" guides="1" tooltips="1" connect="1" arrows="1" fold="1" page="1" pageScale="1" pageWidth="850" pageHeight="1100" math="0" shadow="0"><root><mxCell id="0"/><mxCell id="1" parent="0"/><mxCell id="oDrJPgg-OVAa7Pc_2WsO-1" value="" style="rounded=0;whiteSpace=wrap;html=1;fillColor=#dae8fc;strokeColor=#6C8EBF;opacity=60;" parent="1" vertex="1"><mxGeometry x="460" y="260" width="140" height="69" as="geometry"/></mxCell><mxCell id="oDrJPgg-OVAa7Pc_2WsO-3" style="edgeStyle=orthogonalEdgeStyle;rounded=0;orthogonalLoop=1;jettySize=auto;html=1;exitX=0.5;exitY=1;exitDx=0;exitDy=0;" parent="1" edge="1"><mxGeometry relative="1" as="geometry"><mxPoint x="378.9999999999998" y="348" as="sourcePoint"/><mxPoint x="378.9999999999998" y="348" as="targetPoint"/></mxGeometry></mxCell><mxCell id="oDrJPgg-OVAa7Pc_2WsO-5" value="SQL Databases" style="text;html=1;strokeColor=none;fillColor=none;align=center;verticalAlign=middle;whiteSpace=wrap;rounded=0;opacity=60;fontSize=11;fontStyle=1;labelBackgroundColor=none;" parent="1" vertex="1"><mxGeometry x="460" y="264" width="140" height="20" as="geometry"/></mxCell><mxCell id="9GfpIoHy--baVXn83xa6-7" style="edgeStyle=orthogonalEdgeStyle;rounded=0;orthogonalLoop=1;jettySize=auto;html=1;exitX=1;exitY=0.5;exitDx=0;exitDy=0;fontSize=10;fontColor=#000000;startArrow=none;startFill=0;endArrow=classic;endFill=1;strokeColor=#000000;fillColor=#dae8fc;entryX=0;entryY=0.5;entryDx=0;entryDy=0;" parent="1" target="oDrJPgg-OVAa7Pc_2WsO-10" edge="1"><mxGeometry relative="1" as="geometry"><mxPoint x="-6" y="279.75" as="sourcePoint"/><mxPoint x="60" y="279.75" as="targetPoint"/></mxGeometry></mxCell><mxCell id="oDrJPgg-OVAa7Pc_2WsO-7" value="Mojaloop Adapter" style="rounded=0;whiteSpace=wrap;html=1;fontSize=14;opacity=60;fontStyle=1;fillColor=#3D9EFF;strokeColor=#22588F;" parent="1" vertex="1"><mxGeometry x="30" y="245" width="120" height="70" as="geometry"/></mxCell><mxCell id="oDrJPgg-OVAa7Pc_2WsO-10" value="&lt;font color=&quot;#000000&quot; style=&quot;font-size: 14px&quot;&gt;&lt;span style=&quot;font-size: 14px&quot;&gt;Central Settlement&lt;/span&gt;&lt;br style=&quot;font-size: 14px&quot;&gt;&lt;/font&gt;" style="rounded=0;whiteSpace=wrap;html=1;fillColor=#f5f5f5;strokeColor=#666666;fontStyle=1;verticalAlign=top;horizontal=0;fontSize=14;fontColor=#333333;" parent="1" vertex="1"><mxGeometry x="210" y="170" width="110" height="220" as="geometry"/></mxCell><mxCell id="60_vhmkmeH_u4i3II14A-3" value="Base Settlement Data" style="endArrow=classic;html=1;rounded=0;fontSize=11;endFill=1;startArrow=classic;startFill=1;strokeColor=#6C8EBF;entryX=0;entryY=0.25;entryDx=0;entryDy=0;exitX=1;exitY=0.5;exitDx=0;exitDy=0;" parent="1" source="oDrJPgg-OVAa7Pc_2WsO-10" target="oDrJPgg-OVAa7Pc_2WsO-1" edge="1"><mxGeometry x="0.1667" width="50" height="50" relative="1" as="geometry"><mxPoint x="320" y="220" as="sourcePoint"/><mxPoint x="440" y="220" as="targetPoint"/><mxPoint as="offset"/></mxGeometry></mxCell><mxCell id="2wyNS_qEd1gKrwcuo8lo-8" value="" style="group" parent="1" vertex="1" connectable="0"><mxGeometry x="500" y="292" width="60" height="31.5" as="geometry"/></mxCell><mxCell id="_xyKBKS7H1u9OfSc2gpH-1" value="&lt;font color=&quot;#000000&quot;&gt;&lt;br&gt;&lt;/font&gt;" style="shape=cylinder;whiteSpace=wrap;html=1;boundedLbl=1;backgroundOutline=1;fillColor=#6C8EBF;strokeColor=#DAE8FC;gradientColor=none;" parent="2wyNS_qEd1gKrwcuo8lo-8" vertex="1"><mxGeometry width="50.00000000000001" height="24.25862068965517" as="geometry"/></mxCell><mxCell id="2wyNS_qEd1gKrwcuo8lo-7" value="&lt;font color=&quot;#000000&quot;&gt;&lt;br&gt;&lt;/font&gt;" style="shape=cylinder;whiteSpace=wrap;html=1;boundedLbl=1;backgroundOutline=1;fillColor=#6C8EBF;strokeColor=#DAE8FC;gradientColor=none;" parent="2wyNS_qEd1gKrwcuo8lo-8" vertex="1"><mxGeometry x="11" y="7.241379310344827" width="50.00000000000001" height="24.25862068965517" as="geometry"/></mxCell></root></mxGraphModel></diagram><diagram id="L23hMOwyO9vHie6Hpb-i" name="full MJL architecture"><mxGraphModel dx="1541" dy="1068" grid="1" gridSize="10" guides="1" tooltips="1" connect="1" arrows="1" fold="1" page="1" pageScale="1" pageWidth="850" pageHeight="1100" math="0" shadow="0"><root><mxCell id="0"/><mxCell id="1" parent="0"/><mxCell id="QPBQ5WxV9vGkjv2lbW1s-1" value="" style="rounded=0;whiteSpace=wrap;html=1;fillColor=#FFFFCC;strokeColor=#36393d;" parent="1" vertex="1"><mxGeometry x="310" y="290" width="800" height="965" as="geometry"/></mxCell><mxCell id="QPBQ5WxV9vGkjv2lbW1s-2" value="" style="rounded=0;whiteSpace=wrap;html=1;fillColor=#d5e8d4;strokeColor=#000000;" parent="1" vertex="1"><mxGeometry x="1218" y="264" width="200" height="120" as="geometry"/></mxCell><mxCell id="QPBQ5WxV9vGkjv2lbW1s-3" value="" style="rounded=0;whiteSpace=wrap;html=1;fillColor=#FFCCCC;" parent="1" vertex="1"><mxGeometry x="40" y="339" width="200" height="150" as="geometry"/></mxCell><mxCell id="QPBQ5WxV9vGkjv2lbW1s-4" value="" style="rounded=0;whiteSpace=wrap;html=1;fillColor=#E6FFCC;" parent="1" vertex="1"><mxGeometry x="40" y="581" width="200" height="470" as="geometry"/></mxCell><mxCell id="QPBQ5WxV9vGkjv2lbW1s-5" value="" style="rounded=0;whiteSpace=wrap;html=1;fillColor=#CCE5FF;" parent="1" vertex="1"><mxGeometry x="1220" y="435" width="370" height="500" as="geometry"/></mxCell><mxCell id="QPBQ5WxV9vGkjv2lbW1s-6" value="" style="rounded=0;whiteSpace=wrap;html=1;" parent="1" vertex="1"><mxGeometry x="400" y="475" width="625" height="740" as="geometry"/></mxCell><mxCell id="QPBQ5WxV9vGkjv2lbW1s-7" value="Mojaloop Adapter" style="rounded=0;whiteSpace=wrap;html=1;fillColor=#FFD966;fontSize=15;" parent="1" vertex="1"><mxGeometry x="475" y="792" width="80" height="160" as="geometry"/></mxCell><mxCell id="QPBQ5WxV9vGkjv2lbW1s-8" value="" style="shape=cylinder;whiteSpace=wrap;html=1;boundedLbl=1;rotation=-90;fillColor=#7EA6E0;" parent="1" vertex="1"><mxGeometry x="794" y="931" width="40" height="80" as="geometry"/></mxCell><mxCell id="QPBQ5WxV9vGkjv2lbW1s-9" value="" style="shape=cylinder;whiteSpace=wrap;html=1;boundedLbl=1;rotation=-90;fillColor=#7EA6E0;" parent="1" vertex="1"><mxGeometry x="597" y="931" width="40" height="80" as="geometry"/></mxCell><mxCell id="QPBQ5WxV9vGkjv2lbW1s-10" value="Central-Services&lt;br&gt;(Ledger - API, Handlers)&lt;br&gt;" style="rounded=0;whiteSpace=wrap;html=1;fillColor=#FFD966;fontSize=15;" parent="1" vertex="1"><mxGeometry x="625" y="861" width="180" height="50" as="geometry"/></mxCell><mxCell id="QPBQ5WxV9vGkjv2lbW1s-11" value="Mojaloop&lt;br&gt;Adapter&lt;br&gt;" style="rounded=0;whiteSpace=wrap;html=1;fillColor=#FFD966;fontSize=15;" parent="1" vertex="1"><mxGeometry x="893" y="791" width="90" height="160" as="geometry"/></mxCell><mxCell id="QPBQ5WxV9vGkjv2lbW1s-12" value="C 1. Transfer" style="endArrow=classic;html=1;exitX=0.5;exitY=0;fontSize=13;labelBackgroundColor=none;spacingTop=22;spacingLeft=33;entryX=0;entryY=0.25;" parent="1" source="QPBQ5WxV9vGkjv2lbW1s-80" target="QPBQ5WxV9vGkjv2lbW1s-7" edge="1"><mxGeometry width="50" height="50" relative="1" as="geometry"><mxPoint x="298.5714285714289" y="763.4285714285716" as="sourcePoint"/><mxPoint x="456" y="845" as="targetPoint"/><Array as="points"><mxPoint x="284" y="832"/></Array></mxGeometry></mxCell><mxCell id="QPBQ5WxV9vGkjv2lbW1s-13" value="" style="endArrow=classic;html=1;exitX=1.013;exitY=0.388;exitPerimeter=0;entryX=1;entryY=0.3;dashed=1;" parent="1" source="QPBQ5WxV9vGkjv2lbW1s-7" target="QPBQ5WxV9vGkjv2lbW1s-9" edge="1"><mxGeometry width="50" height="50" relative="1" as="geometry"><mxPoint x="555" y="941" as="sourcePoint"/><mxPoint x="605" y="891" as="targetPoint"/><Array as="points"><mxPoint x="603" y="854"/></Array></mxGeometry></mxCell><mxCell id="QPBQ5WxV9vGkjv2lbW1s-14" value="request_to_prepare" style="text;html=1;strokeColor=none;fillColor=none;align=center;verticalAlign=middle;whiteSpace=wrap;rounded=0;fontSize=13;" parent="1" vertex="1"><mxGeometry x="605" y="1011" width="60" height="20" as="geometry"/></mxCell><mxCell id="QPBQ5WxV9vGkjv2lbW1s-15" value="" style="endArrow=classic;html=1;entryX=0.05;entryY=1.006;exitX=1;exitY=0.7;entryPerimeter=0;dashed=1;" parent="1" source="QPBQ5WxV9vGkjv2lbW1s-9" target="QPBQ5WxV9vGkjv2lbW1s-10" edge="1"><mxGeometry width="50" height="50" relative="1" as="geometry"><mxPoint x="670" y="951" as="sourcePoint"/><mxPoint x="705" y="911" as="targetPoint"/></mxGeometry></mxCell><mxCell id="QPBQ5WxV9vGkjv2lbW1s-16" value="C 1.2&lt;br style=&quot;font-size: 13px;&quot;&gt;" style="text;html=1;resizable=0;points=[];align=center;verticalAlign=middle;labelBackgroundColor=none;fontSize=13;" parent="QPBQ5WxV9vGkjv2lbW1s-15" vertex="1" connectable="0"><mxGeometry x="-0.15" relative="1" as="geometry"><mxPoint x="4" as="offset"/></mxGeometry></mxCell><mxCell id="QPBQ5WxV9vGkjv2lbW1s-17" value="" style="endArrow=classic;html=1;entryX=1;entryY=0.3;dashed=1;" parent="1" target="QPBQ5WxV9vGkjv2lbW1s-8" edge="1"><mxGeometry width="50" height="50" relative="1" as="geometry"><mxPoint x="798" y="912" as="sourcePoint"/><mxPoint x="815" y="1021" as="targetPoint"/></mxGeometry></mxCell><mxCell id="QPBQ5WxV9vGkjv2lbW1s-18" value="C 1.3&lt;br style=&quot;font-size: 13px;&quot;&gt;" style="text;html=1;resizable=0;points=[];align=center;verticalAlign=middle;labelBackgroundColor=none;fontSize=13;" parent="QPBQ5WxV9vGkjv2lbW1s-17" vertex="1" connectable="0"><mxGeometry x="-0.1471" y="1" relative="1" as="geometry"><mxPoint x="2" y="1" as="offset"/></mxGeometry></mxCell><mxCell id="QPBQ5WxV9vGkjv2lbW1s-19" value="prepared.notification" style="text;html=1;strokeColor=none;fillColor=none;align=center;verticalAlign=middle;whiteSpace=wrap;rounded=0;fontSize=13;" parent="1" vertex="1"><mxGeometry x="806" y="1011" width="60" height="20" as="geometry"/></mxCell><mxCell id="QPBQ5WxV9vGkjv2lbW1s-20" value="" style="endArrow=classic;html=1;exitX=1;exitY=0.85;entryX=-0.022;entryY=0.394;entryPerimeter=0;exitPerimeter=0;dashed=1;" parent="1" source="QPBQ5WxV9vGkjv2lbW1s-8" target="QPBQ5WxV9vGkjv2lbW1s-11" edge="1"><mxGeometry width="50" height="50" relative="1" as="geometry"><mxPoint x="825" y="941" as="sourcePoint"/><mxPoint x="875" y="891" as="targetPoint"/><Array as="points"><mxPoint x="842" y="854"/></Array></mxGeometry></mxCell><mxCell id="QPBQ5WxV9vGkjv2lbW1s-21" value="C 1.4" style="text;html=1;resizable=0;points=[];align=center;verticalAlign=middle;labelBackgroundColor=none;fontSize=13;" parent="QPBQ5WxV9vGkjv2lbW1s-20" vertex="1" connectable="0"><mxGeometry x="-0.006" relative="1" as="geometry"><mxPoint x="4" as="offset"/></mxGeometry></mxCell><mxCell id="QPBQ5WxV9vGkjv2lbW1s-22" value="" style="endArrow=classic;html=1;exitX=1.026;exitY=0.183;exitPerimeter=0;" parent="1" source="QPBQ5WxV9vGkjv2lbW1s-11" edge="1"><mxGeometry width="50" height="50" relative="1" as="geometry"><mxPoint x="996" y="822" as="sourcePoint"/><mxPoint x="1250" y="701" as="targetPoint"/><Array as="points"><mxPoint x="1150" y="820"/><mxPoint x="1150" y="701"/></Array></mxGeometry></mxCell><mxCell id="QPBQ5WxV9vGkjv2lbW1s-23" value="" style="shape=cylinder;whiteSpace=wrap;html=1;boundedLbl=1;rotation=-90;fillColor=#7EA6E0;" parent="1" vertex="1"><mxGeometry x="797" y="1021" width="40" height="80" as="geometry"/></mxCell><mxCell id="QPBQ5WxV9vGkjv2lbW1s-24" value="" style="shape=cylinder;whiteSpace=wrap;html=1;boundedLbl=1;rotation=-90;fillColor=#7EA6E0;" parent="1" vertex="1"><mxGeometry x="597" y="1021" width="40" height="80" as="geometry"/></mxCell><mxCell id="QPBQ5WxV9vGkjv2lbW1s-25" value="fulfiled.notification" style="text;html=1;strokeColor=none;fillColor=none;align=center;verticalAlign=middle;whiteSpace=wrap;rounded=0;fontSize=13;spacingLeft=-5;" parent="1" vertex="1"><mxGeometry x="607" y="1102" width="60" height="20" as="geometry"/></mxCell><mxCell id="QPBQ5WxV9vGkjv2lbW1s-26" value="request_to_fulfil" style="text;html=1;strokeColor=none;fillColor=none;align=center;verticalAlign=middle;whiteSpace=wrap;rounded=0;fontSize=13;" parent="1" vertex="1"><mxGeometry x="814" y="1102" width="60" height="20" as="geometry"/></mxCell><mxCell id="QPBQ5WxV9vGkjv2lbW1s-27" value="" style="endArrow=classic;html=1;entryX=0.993;entryY=0.365;entryPerimeter=0;" parent="1" target="QPBQ5WxV9vGkjv2lbW1s-11" edge="1"><mxGeometry width="50" height="50" relative="1" as="geometry"><mxPoint x="1250" y="759" as="sourcePoint"/><mxPoint x="995" y="849" as="targetPoint"/><Array as="points"><mxPoint x="1190" y="759"/><mxPoint x="1190" y="849"/></Array></mxGeometry></mxCell><mxCell id="QPBQ5WxV9vGkjv2lbW1s-28" value="Fulfil Transfer" style="text;html=1;resizable=0;points=[];align=center;verticalAlign=middle;labelBackgroundColor=none;fontSize=13;" parent="QPBQ5WxV9vGkjv2lbW1s-27" vertex="1" connectable="0"><mxGeometry x="0.1765" y="2" relative="1" as="geometry"><mxPoint x="1" y="6" as="offset"/></mxGeometry></mxCell><mxCell id="QPBQ5WxV9vGkjv2lbW1s-29" value="" style="endArrow=classic;html=1;exitX=0.25;exitY=1;entryX=0.975;entryY=0.877;entryPerimeter=0;dashed=1;" parent="1" source="QPBQ5WxV9vGkjv2lbW1s-11" target="QPBQ5WxV9vGkjv2lbW1s-52" edge="1"><mxGeometry width="50" height="50" relative="1" as="geometry"><mxPoint x="505" y="1111" as="sourcePoint"/><mxPoint x="555" y="1061" as="targetPoint"/><Array as="points"><mxPoint x="916" y="1062"/></Array></mxGeometry></mxCell><mxCell id="QPBQ5WxV9vGkjv2lbW1s-30" value="C 1.8" style="text;html=1;resizable=0;points=[];align=center;verticalAlign=middle;labelBackgroundColor=none;fontSize=13;" parent="QPBQ5WxV9vGkjv2lbW1s-29" vertex="1" connectable="0"><mxGeometry x="-0.1961" y="-1" relative="1" as="geometry"><mxPoint x="4" y="-28" as="offset"/></mxGeometry></mxCell><mxCell id="QPBQ5WxV9vGkjv2lbW1s-31" value="" style="endArrow=classic;html=1;entryX=0.55;entryY=1.017;entryPerimeter=0;exitX=0.5;exitY=0;dashed=1;" parent="1" source="QPBQ5WxV9vGkjv2lbW1s-23" edge="1"><mxGeometry width="50" height="50" relative="1" as="geometry"><mxPoint x="752" y="1061" as="sourcePoint"/><mxPoint x="733" y="912" as="targetPoint"/><Array as="points"><mxPoint x="733" y="1061"/></Array></mxGeometry></mxCell><mxCell id="QPBQ5WxV9vGkjv2lbW1s-32" value="C 1.9&lt;br style=&quot;font-size: 13px;&quot;&gt;" style="text;html=1;resizable=0;points=[];align=center;verticalAlign=middle;labelBackgroundColor=none;fontSize=13;" parent="QPBQ5WxV9vGkjv2lbW1s-31" vertex="1" connectable="0"><mxGeometry x="-0.7976" y="-13" relative="1" as="geometry"><mxPoint x="-6" y="-6" as="offset"/></mxGeometry></mxCell><mxCell id="QPBQ5WxV9vGkjv2lbW1s-33" value="" style="endArrow=classic;html=1;entryX=1;entryY=0.863;entryPerimeter=0;dashed=1;" parent="1" target="QPBQ5WxV9vGkjv2lbW1s-54" edge="1"><mxGeometry width="50" height="50" relative="1" as="geometry"><mxPoint x="693" y="914" as="sourcePoint"/><mxPoint x="765" y="1121" as="targetPoint"/><Array as="points"><mxPoint x="693" y="1061"/></Array></mxGeometry></mxCell><mxCell id="QPBQ5WxV9vGkjv2lbW1s-34" value="C 1.10&lt;br style=&quot;font-size: 13px&quot;&gt;" style="text;html=1;resizable=0;points=[];align=center;verticalAlign=middle;labelBackgroundColor=none;fontSize=13;" parent="QPBQ5WxV9vGkjv2lbW1s-33" vertex="1" connectable="0"><mxGeometry x="0.3103" y="1" relative="1" as="geometry"><mxPoint x="6" y="13" as="offset"/></mxGeometry></mxCell><mxCell id="QPBQ5WxV9vGkjv2lbW1s-35" value="" style="endArrow=classic;html=1;exitX=0.5;exitY=0;entryX=0.5;entryY=1;dashed=1;" parent="1" source="QPBQ5WxV9vGkjv2lbW1s-24" target="QPBQ5WxV9vGkjv2lbW1s-7" edge="1"><mxGeometry width="50" height="50" relative="1" as="geometry"><mxPoint x="405" y="1161" as="sourcePoint"/><mxPoint x="455" y="1111" as="targetPoint"/><Array as="points"><mxPoint x="515" y="1061"/></Array></mxGeometry></mxCell><mxCell id="QPBQ5WxV9vGkjv2lbW1s-36" value="C 1.11" style="text;html=1;resizable=0;points=[];align=center;verticalAlign=middle;labelBackgroundColor=none;fontSize=13;" parent="QPBQ5WxV9vGkjv2lbW1s-35" vertex="1" connectable="0"><mxGeometry x="0.1052" y="2" relative="1" as="geometry"><mxPoint x="9" y="14" as="offset"/></mxGeometry></mxCell><mxCell id="QPBQ5WxV9vGkjv2lbW1s-37" value="" style="endArrow=classic;html=1;entryX=0.5;entryY=1;" parent="1" target="QPBQ5WxV9vGkjv2lbW1s-80" edge="1"><mxGeometry width="50" height="50" relative="1" as="geometry"><mxPoint x="476" y="896" as="sourcePoint"/><mxPoint x="210" y="975" as="targetPoint"/><Array as="points"><mxPoint x="284" y="896"/></Array></mxGeometry></mxCell><mxCell id="QPBQ5WxV9vGkjv2lbW1s-38" value="C 1.12 Fulfil Notify" style="text;html=1;resizable=0;points=[];align=center;verticalAlign=middle;labelBackgroundColor=none;fontSize=13;" parent="QPBQ5WxV9vGkjv2lbW1s-37" vertex="1" connectable="0"><mxGeometry x="-0.1921" y="2" relative="1" as="geometry"><mxPoint x="-10" y="4" as="offset"/></mxGeometry></mxCell><mxCell id="QPBQ5WxV9vGkjv2lbW1s-39" value="C 1.1" style="text;html=1;strokeColor=none;fillColor=none;align=center;verticalAlign=middle;whiteSpace=wrap;rounded=0;fontSize=13;" parent="1" vertex="1"><mxGeometry x="586" y="881" width="40" height="20" as="geometry"/></mxCell><mxCell id="QPBQ5WxV9vGkjv2lbW1s-40" value="C 1.5" style="text;html=1;strokeColor=none;fillColor=none;align=center;verticalAlign=middle;whiteSpace=wrap;rounded=0;fontSize=13;" parent="1" vertex="1"><mxGeometry x="1134" y="748" width="40" height="20" as="geometry"/></mxCell><mxCell id="QPBQ5WxV9vGkjv2lbW1s-41" value="DB" style="shape=cylinder;whiteSpace=wrap;html=1;boundedLbl=1;fillColor=#7EA6E0;" parent="1" vertex="1"><mxGeometry x="624" y="757" width="60" height="49" as="geometry"/></mxCell><mxCell id="QPBQ5WxV9vGkjv2lbW1s-42" value="" style="shape=cylinder;whiteSpace=wrap;html=1;boundedLbl=1;rotation=-90;fillColor=#7EA6E0;" parent="1" vertex="1"><mxGeometry x="757" y="737" width="40" height="76" as="geometry"/></mxCell><mxCell id="QPBQ5WxV9vGkjv2lbW1s-43" value="&lt;font style=&quot;font-size: 20px&quot;&gt;Mojaloop&amp;nbsp;Services&lt;br&gt;&lt;/font&gt;" style="text;html=1;strokeColor=none;fillColor=none;align=center;verticalAlign=middle;whiteSpace=wrap;rounded=0;fontSize=20;fontStyle=1" parent="1" vertex="1"><mxGeometry x="468.5" y="1169" width="507" height="21" as="geometry"/></mxCell><mxCell id="QPBQ5WxV9vGkjv2lbW1s-44" value="positions" style="text;html=1;strokeColor=none;fillColor=none;align=center;verticalAlign=middle;whiteSpace=wrap;rounded=0;direction=south;fontSize=13;" parent="1" vertex="1"><mxGeometry x="794" y="815" width="20" height="40" as="geometry"/></mxCell><mxCell id="QPBQ5WxV9vGkjv2lbW1s-45" value="&lt;font style=&quot;font-size: 15px&quot;&gt;&lt;span&gt;Account Lookup Service&lt;/span&gt;&lt;br&gt;&lt;span&gt;(Parties / Participant)&lt;/span&gt;&lt;/font&gt;" style="rounded=0;whiteSpace=wrap;html=1;fillColor=#bac8d3;strokeColor=#23445d;" parent="1" vertex="1"><mxGeometry x="640" y="495" width="158" height="80" as="geometry"/></mxCell><mxCell id="QPBQ5WxV9vGkjv2lbW1s-46" value="&lt;font&gt;&lt;span style=&quot;font-size: 20px&quot;&gt;FSP&lt;/span&gt;&lt;br&gt;&lt;span style=&quot;font-size: 20px&quot;&gt;Backend&lt;br&gt;&lt;/span&gt;&lt;br&gt;&lt;font style=&quot;font-size: 15px&quot;&gt;(Does not natively speak Mojaloop API)&lt;br&gt;&lt;/font&gt;&lt;/font&gt;&lt;br&gt;&lt;br&gt;&lt;br&gt;" style="rounded=0;whiteSpace=wrap;html=1;fillColor=#99CCFF;spacingTop=-8;" parent="1" vertex="1"><mxGeometry x="1441" y="495" width="120" height="400" as="geometry"/></mxCell><mxCell id="QPBQ5WxV9vGkjv2lbW1s-47" value="&lt;font&gt;&lt;font style=&quot;font-size: 20px&quot;&gt;Scheme-Adapter&lt;br&gt;&lt;/font&gt;&lt;br&gt;&lt;font style=&quot;font-size: 15px&quot;&gt;(Converts from Mojaloop API to backend FSP API)&lt;/font&gt;&lt;br&gt;&lt;/font&gt;" style="rounded=0;whiteSpace=wrap;html=1;fillColor=#99FFFF;" parent="1" vertex="1"><mxGeometry x="1250" y="495" width="90" height="400" as="geometry"/></mxCell><mxCell id="QPBQ5WxV9vGkjv2lbW1s-48" value="A 2. MSISDN &lt;br&gt;based lookup" style="endArrow=classic;startArrow=classic;html=1;entryX=0.01;entryY=0.5;fontSize=13;labelBackgroundColor=none;spacingLeft=16;spacingTop=40;exitX=0.5;exitY=0;entryDx=0;entryDy=0;entryPerimeter=0;dashed=1;" parent="1" source="QPBQ5WxV9vGkjv2lbW1s-45" target="QPBQ5WxV9vGkjv2lbW1s-135" edge="1"><mxGeometry x="-0.7701" y="-59" width="50" height="50" relative="1" as="geometry"><mxPoint x="757" y="525" as="sourcePoint"/><mxPoint x="874" y="383" as="targetPoint"/><Array as="points"><mxPoint x="719" y="465"/><mxPoint x="790" y="465"/></Array><mxPoint x="31" y="-109" as="offset"/></mxGeometry></mxCell><mxCell id="QPBQ5WxV9vGkjv2lbW1s-49" value="" style="shape=cylinder;whiteSpace=wrap;html=1;boundedLbl=1;rotation=-90;fillColor=#7EA6E0;" parent="1" vertex="1"><mxGeometry x="804" y="941" width="40" height="80" as="geometry"/></mxCell><mxCell id="QPBQ5WxV9vGkjv2lbW1s-50" value="" style="shape=cylinder;whiteSpace=wrap;html=1;boundedLbl=1;rotation=-90;fillColor=#7EA6E0;" parent="1" vertex="1"><mxGeometry x="814" y="951" width="40" height="80" as="geometry"/></mxCell><mxCell id="QPBQ5WxV9vGkjv2lbW1s-51" value="" style="shape=cylinder;whiteSpace=wrap;html=1;boundedLbl=1;rotation=-90;fillColor=#7EA6E0;" parent="1" vertex="1"><mxGeometry x="807" y="1031" width="40" height="80" as="geometry"/></mxCell><mxCell id="QPBQ5WxV9vGkjv2lbW1s-52" value="" style="shape=cylinder;whiteSpace=wrap;html=1;boundedLbl=1;rotation=-90;fillColor=#7EA6E0;" parent="1" vertex="1"><mxGeometry x="817" y="1041" width="40" height="80" as="geometry"/></mxCell><mxCell id="QPBQ5WxV9vGkjv2lbW1s-53" value="" style="shape=cylinder;whiteSpace=wrap;html=1;boundedLbl=1;rotation=-90;fillColor=#7EA6E0;" parent="1" vertex="1"><mxGeometry x="607" y="1031" width="40" height="80" as="geometry"/></mxCell><mxCell id="QPBQ5WxV9vGkjv2lbW1s-54" value="" style="shape=cylinder;whiteSpace=wrap;html=1;boundedLbl=1;rotation=-90;fillColor=#7EA6E0;" parent="1" vertex="1"><mxGeometry x="617" y="1041" width="40" height="80" as="geometry"/></mxCell><mxCell id="QPBQ5WxV9vGkjv2lbW1s-55" value="" style="shape=cylinder;whiteSpace=wrap;html=1;boundedLbl=1;rotation=-90;fillColor=#7EA6E0;" parent="1" vertex="1"><mxGeometry x="607" y="941" width="40" height="80" as="geometry"/></mxCell><mxCell id="QPBQ5WxV9vGkjv2lbW1s-56" value="" style="shape=cylinder;whiteSpace=wrap;html=1;boundedLbl=1;rotation=-90;fillColor=#7EA6E0;" parent="1" vertex="1"><mxGeometry x="617" y="951" width="40" height="80" as="geometry"/></mxCell><mxCell id="QPBQ5WxV9vGkjv2lbW1s-57" value="DB" style="shape=cylinder;whiteSpace=wrap;html=1;boundedLbl=1;fillColor=#7EA6E0;" parent="1" vertex="1"><mxGeometry x="634" y="767" width="60" height="49" as="geometry"/></mxCell><mxCell id="QPBQ5WxV9vGkjv2lbW1s-58" value="&amp;nbsp;Database" style="shape=cylinder;whiteSpace=wrap;html=1;boundedLbl=1;fillColor=#7EA6E0;" parent="1" vertex="1"><mxGeometry x="644" y="777" width="60" height="49" as="geometry"/></mxCell><mxCell id="QPBQ5WxV9vGkjv2lbW1s-59" value="" style="shape=cylinder;whiteSpace=wrap;html=1;boundedLbl=1;rotation=-90;fillColor=#7EA6E0;" parent="1" vertex="1"><mxGeometry x="767" y="747" width="40" height="76" as="geometry"/></mxCell><mxCell id="QPBQ5WxV9vGkjv2lbW1s-60" value="" style="shape=cylinder;whiteSpace=wrap;html=1;boundedLbl=1;rotation=-90;fillColor=#7EA6E0;" parent="1" vertex="1"><mxGeometry x="777" y="757" width="40" height="76" as="geometry"/></mxCell><mxCell id="QPBQ5WxV9vGkjv2lbW1s-61" value="&lt;font&gt;&lt;font style=&quot;font-size: 20px&quot;&gt;FSP&lt;br&gt;Backend&lt;br&gt;&amp;nbsp;&amp;nbsp;&lt;/font&gt;&lt;br&gt;&lt;font style=&quot;font-size: 15px&quot;&gt;(Natively speaks Mojaloop API)&lt;br&gt;&lt;/font&gt;&lt;/font&gt;&lt;br&gt;&lt;br&gt;&lt;br&gt;" style="rounded=0;whiteSpace=wrap;html=1;fillColor=#9AC7BF;" parent="1" vertex="1"><mxGeometry x="80" y="618" width="120" height="410" as="geometry"/></mxCell><mxCell id="QPBQ5WxV9vGkjv2lbW1s-62" value="A" style="ellipse;whiteSpace=wrap;html=1;aspect=fixed;fillColor=#FFD966;" parent="1" vertex="1"><mxGeometry x="270" y="642" width="30" height="30" as="geometry"/></mxCell><mxCell id="QPBQ5WxV9vGkjv2lbW1s-63" value="" style="endArrow=classic;startArrow=classic;html=1;exitX=0.5;exitY=0;entryX=0;entryY=0.5;" parent="1" source="QPBQ5WxV9vGkjv2lbW1s-62" target="QPBQ5WxV9vGkjv2lbW1s-45" edge="1"><mxGeometry width="50" height="50" relative="1" as="geometry"><mxPoint x="360" y="575" as="sourcePoint"/><mxPoint x="620" y="535" as="targetPoint"/><Array as="points"><mxPoint x="285" y="535"/></Array></mxGeometry></mxCell><mxCell id="QPBQ5WxV9vGkjv2lbW1s-64" value="A 1. User Lookup" style="text;html=1;resizable=0;points=[];align=center;verticalAlign=middle;labelBackgroundColor=none;fontSize=13;" parent="QPBQ5WxV9vGkjv2lbW1s-63" vertex="1" connectable="0"><mxGeometry x="-0.2667" relative="1" as="geometry"><mxPoint x="-13" y="-10" as="offset"/></mxGeometry></mxCell><mxCell id="QPBQ5WxV9vGkjv2lbW1s-65" value="" style="endArrow=classic;startArrow=classic;html=1;entryX=0;entryY=0.5;" parent="1" target="QPBQ5WxV9vGkjv2lbW1s-62" edge="1"><mxGeometry width="50" height="50" relative="1" as="geometry"><mxPoint x="202" y="657" as="sourcePoint"/><mxPoint x="250" y="632" as="targetPoint"/></mxGeometry></mxCell><mxCell id="QPBQ5WxV9vGkjv2lbW1s-66" value="" style="endArrow=classic;startArrow=classic;html=1;exitX=1;exitY=0.75;" parent="1" source="QPBQ5WxV9vGkjv2lbW1s-45" edge="1"><mxGeometry width="50" height="50" relative="1" as="geometry"><mxPoint x="830" y="555" as="sourcePoint"/><mxPoint x="1250" y="554" as="targetPoint"/></mxGeometry></mxCell><mxCell id="QPBQ5WxV9vGkjv2lbW1s-67" value="A 3. Receiver Details" style="text;html=1;resizable=0;points=[];align=center;verticalAlign=middle;labelBackgroundColor=none;fontSize=13;" parent="QPBQ5WxV9vGkjv2lbW1s-66" vertex="1" connectable="0"><mxGeometry x="-0.2483" relative="1" as="geometry"><mxPoint x="-50" y="9" as="offset"/></mxGeometry></mxCell><mxCell id="QPBQ5WxV9vGkjv2lbW1s-68" value="B" style="ellipse;whiteSpace=wrap;html=1;aspect=fixed;fillColor=#FFD966;" parent="1" vertex="1"><mxGeometry x="269" y="699" width="30" height="30" as="geometry"/></mxCell><mxCell id="QPBQ5WxV9vGkjv2lbW1s-69" value="" style="endArrow=classic;startArrow=classic;html=1;" parent="1" edge="1"><mxGeometry width="50" height="50" relative="1" as="geometry"><mxPoint x="200" y="715" as="sourcePoint"/><mxPoint x="270" y="715" as="targetPoint"/><Array as="points"/></mxGeometry></mxCell><mxCell id="QPBQ5WxV9vGkjv2lbW1s-70" value="Merchant&amp;nbsp;&lt;br style=&quot;font-size: 13px;&quot;&gt;Registry&lt;br style=&quot;font-size: 13px;&quot;&gt;" style="shape=cylinder;whiteSpace=wrap;html=1;boundedLbl=1;fillColor=#7EA6E0;fontSize=13;spacingLeft=1;" parent="1" vertex="1"><mxGeometry x="1039" y="449" width="60" height="80" as="geometry"/></mxCell><mxCell id="QPBQ5WxV9vGkjv2lbW1s-71" value="" style="endArrow=classic;startArrow=classic;html=1;entryX=0;entryY=0.5;exitX=1;exitY=0.25;entryDx=0;entryDy=0;dashed=1;" parent="1" source="QPBQ5WxV9vGkjv2lbW1s-45" target="QPBQ5WxV9vGkjv2lbW1s-136" edge="1"><mxGeometry width="50" height="50" relative="1" as="geometry"><mxPoint x="780" y="526" as="sourcePoint"/><mxPoint x="1010" y="433" as="targetPoint"/><Array as="points"/></mxGeometry></mxCell><mxCell id="QPBQ5WxV9vGkjv2lbW1s-72" value="A 2. mID based &lt;br&gt;lookup" style="text;html=1;resizable=0;points=[];align=center;verticalAlign=middle;labelBackgroundColor=none;fontSize=13;" parent="QPBQ5WxV9vGkjv2lbW1s-71" vertex="1" connectable="0"><mxGeometry x="-0.4725" y="2" relative="1" as="geometry"><mxPoint x="74.5" y="-13" as="offset"/></mxGeometry></mxCell><mxCell id="QPBQ5WxV9vGkjv2lbW1s-73" value="" style="endArrow=classic;startArrow=classic;html=1;exitX=1;exitY=0.5;entryX=0;entryY=0.5;entryDx=0;entryDy=0;" parent="1" source="QPBQ5WxV9vGkjv2lbW1s-68" target="QPBQ5WxV9vGkjv2lbW1s-141" edge="1"><mxGeometry width="50" height="50" relative="1" as="geometry"><mxPoint x="300" y="642" as="sourcePoint"/><mxPoint x="400" y="642" as="targetPoint"/></mxGeometry></mxCell><mxCell id="QPBQ5WxV9vGkjv2lbW1s-74" value="B 1. Quote" style="text;html=1;resizable=0;points=[];align=center;verticalAlign=middle;labelBackgroundColor=none;fontSize=13;" parent="QPBQ5WxV9vGkjv2lbW1s-73" vertex="1" connectable="0"><mxGeometry x="-0.2263" y="1" relative="1" as="geometry"><mxPoint x="11" y="-8" as="offset"/></mxGeometry></mxCell><mxCell id="QPBQ5WxV9vGkjv2lbW1s-75" value="&lt;font&gt;Mojaloop Hub&lt;br&gt;&lt;/font&gt;" style="text;html=1;strokeColor=none;fillColor=none;align=center;verticalAlign=middle;whiteSpace=wrap;rounded=0;fontSize=29;" parent="1" vertex="1"><mxGeometry x="630" y="300" width="184" height="20" as="geometry"/></mxCell><mxCell id="QPBQ5WxV9vGkjv2lbW1s-76" value="&lt;font style=&quot;font-size: 25px&quot;&gt;Payer FSP&lt;/font&gt;" style="text;html=1;strokeColor=none;fillColor=none;align=center;verticalAlign=middle;whiteSpace=wrap;rounded=0;fontSize=25;" parent="1" vertex="1"><mxGeometry x="48" y="591" width="184" height="20" as="geometry"/></mxCell><mxCell id="QPBQ5WxV9vGkjv2lbW1s-77" value="&lt;font style=&quot;font-size: 25px&quot;&gt;Payee FSP&lt;/font&gt;" style="text;html=1;strokeColor=none;fillColor=none;align=center;verticalAlign=middle;whiteSpace=wrap;rounded=0;fontSize=25;" parent="1" vertex="1"><mxGeometry x="1313" y="450" width="184" height="20" as="geometry"/></mxCell><mxCell id="QPBQ5WxV9vGkjv2lbW1s-78" value="Ledger&lt;br&gt;" style="shape=cylinder;whiteSpace=wrap;html=1;boundedLbl=1;fillColor=#3399FF;fontSize=14;" parent="1" vertex="1"><mxGeometry x="1471" y="779" width="60" height="80" as="geometry"/></mxCell><mxCell id="QPBQ5WxV9vGkjv2lbW1s-79" value="Ledger&lt;br&gt;" style="shape=cylinder;whiteSpace=wrap;html=1;boundedLbl=1;fillColor=#00994D;fontSize=14;" parent="1" vertex="1"><mxGeometry x="110" y="862.5" width="60" height="80" as="geometry"/></mxCell><mxCell id="QPBQ5WxV9vGkjv2lbW1s-80" value="C" style="ellipse;whiteSpace=wrap;html=1;aspect=fixed;fillColor=#FFD966;" parent="1" vertex="1"><mxGeometry x="269" y="881" width="30" height="30" as="geometry"/></mxCell><mxCell id="QPBQ5WxV9vGkjv2lbW1s-81" value="" style="endArrow=classic;html=1;fontSize=14;exitX=1;exitY=0.678;exitPerimeter=0;entryX=0;entryY=0.5;startArrow=classic;startFill=1;" parent="1" source="QPBQ5WxV9vGkjv2lbW1s-61" target="QPBQ5WxV9vGkjv2lbW1s-80" edge="1"><mxGeometry width="50" height="50" relative="1" as="geometry"><mxPoint x="250" y="755" as="sourcePoint"/><mxPoint x="300" y="705" as="targetPoint"/><Array as="points"><mxPoint x="230" y="896"/></Array></mxGeometry></mxCell><mxCell id="QPBQ5WxV9vGkjv2lbW1s-146" value="" style="edgeStyle=orthogonalEdgeStyle;rounded=0;orthogonalLoop=1;jettySize=auto;html=1;strokeColor=#6C8EBF;" parent="1" source="QPBQ5WxV9vGkjv2lbW1s-82" target="QPBQ5WxV9vGkjv2lbW1s-9" edge="1"><mxGeometry relative="1" as="geometry"/></mxCell><mxCell id="QPBQ5WxV9vGkjv2lbW1s-82" value="kafka" style="text;html=1;strokeColor=none;fillColor=#7EA6E0;align=center;verticalAlign=middle;whiteSpace=wrap;rounded=0;direction=south;fontSize=13;" parent="1" vertex="1"><mxGeometry x="639" y="979" width="20" height="24" as="geometry"/></mxCell><mxCell id="QPBQ5WxV9vGkjv2lbW1s-83" value="kafka" style="text;html=1;strokeColor=none;fillColor=#7EA6E0;align=center;verticalAlign=middle;whiteSpace=wrap;rounded=0;direction=south;fontSize=13;" parent="1" vertex="1"><mxGeometry x="836" y="980" width="20" height="24" as="geometry"/></mxCell><mxCell id="QPBQ5WxV9vGkjv2lbW1s-84" value="kafka" style="text;html=1;strokeColor=none;fillColor=#7EA6E0;align=center;verticalAlign=middle;whiteSpace=wrap;rounded=0;direction=south;fontSize=13;" parent="1" vertex="1"><mxGeometry x="638" y="1069" width="20" height="26" as="geometry"/></mxCell><mxCell id="QPBQ5WxV9vGkjv2lbW1s-85" value="kafka" style="text;html=1;strokeColor=none;fillColor=#7EA6E0;align=center;verticalAlign=middle;whiteSpace=wrap;rounded=0;direction=south;fontSize=13;" parent="1" vertex="1"><mxGeometry x="839" y="1068" width="20" height="26" as="geometry"/></mxCell><mxCell id="QPBQ5WxV9vGkjv2lbW1s-86" value="kafka" style="text;html=1;strokeColor=none;fillColor=#7EA6E0;align=center;verticalAlign=middle;whiteSpace=wrap;rounded=0;direction=south;fontSize=13;" parent="1" vertex="1"><mxGeometry x="800" y="781" width="20" height="30" as="geometry"/></mxCell><mxCell id="QPBQ5WxV9vGkjv2lbW1s-87" value="" style="endArrow=classic;startArrow=classic;html=1;fontSize=14;dashed=1;" parent="1" edge="1"><mxGeometry width="50" height="50" relative="1" as="geometry"><mxPoint x="674" y="861" as="sourcePoint"/><mxPoint x="674" y="826" as="targetPoint"/></mxGeometry></mxCell><mxCell id="QPBQ5WxV9vGkjv2lbW1s-88" value="" style="endArrow=classic;startArrow=classic;html=1;fontSize=14;dashed=1;" parent="1" edge="1"><mxGeometry width="50" height="50" relative="1" as="geometry"><mxPoint x="797" y="861" as="sourcePoint"/><mxPoint x="797" y="817" as="targetPoint"/></mxGeometry></mxCell><mxCell id="QPBQ5WxV9vGkjv2lbW1s-89" value="" style="endArrow=classic;startArrow=classic;html=1;fontSize=14;entryX=0;entryY=0.518;entryPerimeter=0;dashed=1;" parent="1" target="QPBQ5WxV9vGkjv2lbW1s-46" edge="1"><mxGeometry width="50" height="50" relative="1" as="geometry"><mxPoint x="1341" y="702" as="sourcePoint"/><mxPoint x="1442" y="704" as="targetPoint"/></mxGeometry></mxCell><mxCell id="QPBQ5WxV9vGkjv2lbW1s-90" value="C 1.6&lt;br style=&quot;font-size: 13px;&quot;&gt;Prepare&lt;br style=&quot;font-size: 13px;&quot;&gt;Transfer&lt;br style=&quot;font-size: 13px;&quot;&gt;" style="text;html=1;strokeColor=none;fillColor=none;align=center;verticalAlign=middle;whiteSpace=wrap;rounded=0;fontSize=13;" parent="1" vertex="1"><mxGeometry x="1368" y="699" width="40" height="20" as="geometry"/></mxCell><mxCell id="QPBQ5WxV9vGkjv2lbW1s-91" value="C 1.7" style="text;html=1;strokeColor=none;fillColor=none;align=center;verticalAlign=middle;whiteSpace=wrap;rounded=0;fontSize=13;" parent="1" vertex="1"><mxGeometry x="1117" y="831" width="40" height="20" as="geometry"/></mxCell><mxCell id="QPBQ5WxV9vGkjv2lbW1s-92" value="" style="endArrow=classic;html=1;fontSize=14;exitX=0.5;exitY=0;entryX=0.75;entryY=1;dashed=1;" parent="1" source="QPBQ5WxV9vGkjv2lbW1s-25" target="QPBQ5WxV9vGkjv2lbW1s-11" edge="1"><mxGeometry width="50" height="50" relative="1" as="geometry"><mxPoint x="720" y="1145" as="sourcePoint"/><mxPoint x="770" y="1095" as="targetPoint"/><Array as="points"><mxPoint x="637" y="1135"/><mxPoint x="961" y="1135"/></Array></mxGeometry></mxCell><mxCell id="QPBQ5WxV9vGkjv2lbW1s-93" value="C 1.11" style="text;html=1;resizable=0;points=[];align=center;verticalAlign=middle;labelBackgroundColor=none;fontSize=13;" parent="QPBQ5WxV9vGkjv2lbW1s-92" vertex="1" connectable="0"><mxGeometry x="-0.3583" y="-1" relative="1" as="geometry"><mxPoint y="-10" as="offset"/></mxGeometry></mxCell><mxCell id="QPBQ5WxV9vGkjv2lbW1s-94" value="" style="endArrow=classic;html=1;fontSize=14;exitX=0.993;exitY=0.596;exitPerimeter=0;" parent="1" source="QPBQ5WxV9vGkjv2lbW1s-11" edge="1"><mxGeometry width="50" height="50" relative="1" as="geometry"><mxPoint x="995" y="886" as="sourcePoint"/><mxPoint x="1250" y="886" as="targetPoint"/></mxGeometry></mxCell><mxCell id="QPBQ5WxV9vGkjv2lbW1s-95" value="C 1.12" style="text;html=1;strokeColor=none;fillColor=none;align=center;verticalAlign=middle;whiteSpace=wrap;rounded=0;fontSize=13;" parent="1" vertex="1"><mxGeometry x="1114" y="868" width="50" height="20" as="geometry"/></mxCell><mxCell id="QPBQ5WxV9vGkjv2lbW1s-96" value="Fulfil Notify" style="text;html=1;resizable=0;points=[];align=center;verticalAlign=middle;labelBackgroundColor=none;fontSize=13;spacingLeft=-9;" parent="1" vertex="1" connectable="0"><mxGeometry x="1144" y="886" as="geometry"><mxPoint x="2" y="8" as="offset"/></mxGeometry></mxCell><mxCell id="QPBQ5WxV9vGkjv2lbW1s-97" value="" style="endArrow=classic;startArrow=classic;html=1;fontSize=14;entryX=0;entryY=0.973;entryPerimeter=0;exitX=1.021;exitY=0.973;exitPerimeter=0;dashed=1;" parent="1" edge="1"><mxGeometry width="50" height="50" relative="1" as="geometry"><mxPoint x="1342" y="886" as="sourcePoint"/><mxPoint x="1441" y="886" as="targetPoint"/></mxGeometry></mxCell><mxCell id="QPBQ5WxV9vGkjv2lbW1s-98" value="C 1.13&lt;br style=&quot;font-size: 13px&quot;&gt;Fulfil Notify&lt;br style=&quot;font-size: 13px&quot;&gt;" style="text;html=1;strokeColor=none;fillColor=none;align=center;verticalAlign=middle;whiteSpace=wrap;rounded=0;fontSize=13;" parent="1" vertex="1"><mxGeometry x="1355" y="876" width="70" height="20" as="geometry"/></mxCell><mxCell id="QPBQ5WxV9vGkjv2lbW1s-99" value="B 2. Fee /&lt;br style=&quot;font-size: 13px&quot;&gt;Commission&lt;br style=&quot;font-size: 13px&quot;&gt;" style="text;html=1;strokeColor=none;fillColor=none;align=center;verticalAlign=middle;whiteSpace=wrap;rounded=0;fontSize=13;" parent="1" vertex="1"><mxGeometry x="1363" y="633" width="56" height="20" as="geometry"/></mxCell><mxCell id="QPBQ5WxV9vGkjv2lbW1s-100" value="A 4. Get&amp;nbsp;&lt;br style=&quot;font-size: 13px&quot;&gt;receiver&amp;nbsp;&lt;br style=&quot;font-size: 13px&quot;&gt;details&lt;br style=&quot;font-size: 13px&quot;&gt;" style="text;html=1;strokeColor=none;fillColor=none;align=center;verticalAlign=middle;whiteSpace=wrap;rounded=0;fontSize=13;" parent="1" vertex="1"><mxGeometry x="1364" y="549" width="55" height="20" as="geometry"/></mxCell><mxCell id="QPBQ5WxV9vGkjv2lbW1s-101" value="" style="endArrow=classic;startArrow=classic;html=1;fontSize=12;exitX=1.017;exitY=0.146;exitPerimeter=0;dashed=1;" parent="1" source="QPBQ5WxV9vGkjv2lbW1s-47" edge="1"><mxGeometry width="50" height="50" relative="1" as="geometry"><mxPoint x="1352" y="554" as="sourcePoint"/><mxPoint x="1441" y="554" as="targetPoint"/></mxGeometry></mxCell><mxCell id="QPBQ5WxV9vGkjv2lbW1s-102" value="" style="endArrow=classic;startArrow=classic;html=1;fontSize=12;exitX=1.017;exitY=0.371;exitPerimeter=0;entryX=0.682;entryY=0.278;entryPerimeter=0;verticalAlign=bottom;align=center;dashed=1;" parent="1" source="QPBQ5WxV9vGkjv2lbW1s-47" edge="1"><mxGeometry width="50" height="50" relative="1" as="geometry"><mxPoint x="1350" y="644" as="sourcePoint"/><mxPoint x="1439" y="644" as="targetPoint"/></mxGeometry></mxCell><mxCell id="QPBQ5WxV9vGkjv2lbW1s-103" value="" style="endArrow=classic;startArrow=classic;html=1;exitX=1;exitY=0.5;verticalAlign=bottom;align=center;exitDx=0;exitDy=0;entryX=0;entryY=0.25;entryDx=0;entryDy=0;" parent="1" source="QPBQ5WxV9vGkjv2lbW1s-141" target="QPBQ5WxV9vGkjv2lbW1s-47" edge="1"><mxGeometry width="50" height="50" relative="1" as="geometry"><mxPoint x="1025" y="643" as="sourcePoint"/><mxPoint x="1250" y="643" as="targetPoint"/><Array as="points"><mxPoint x="800" y="714"/><mxPoint x="950" y="595"/></Array></mxGeometry></mxCell><mxCell id="QPBQ5WxV9vGkjv2lbW1s-104" value="B 1. Quote" style="text;html=1;resizable=0;points=[];align=center;verticalAlign=middle;labelBackgroundColor=none;fontSize=13;" parent="QPBQ5WxV9vGkjv2lbW1s-103" vertex="1" connectable="0"><mxGeometry x="-0.2263" y="1" relative="1" as="geometry"><mxPoint x="211.5" y="-66" as="offset"/></mxGeometry></mxCell><mxCell id="QPBQ5WxV9vGkjv2lbW1s-105" value="D 6." style="edgeStyle=none;rounded=0;html=1;exitX=1;exitY=0.5;entryX=0.5;entryY=0;jettySize=auto;orthogonalLoop=1;dashed=1;entryDx=0;entryDy=0;" parent="1" source="QPBQ5WxV9vGkjv2lbW1s-106" target="QPBQ5WxV9vGkjv2lbW1s-113" edge="1"><mxGeometry x="-0.4338" y="11" relative="1" as="geometry"><mxPoint as="offset"/></mxGeometry></mxCell><mxCell id="QPBQ5WxV9vGkjv2lbW1s-106" value="Central-Settlement" style="rounded=0;whiteSpace=wrap;html=1;fillColor=#CCCCFF;fontSize=15;" parent="1" vertex="1"><mxGeometry x="629.5" y="611" width="180" height="50" as="geometry"/></mxCell><mxCell id="QPBQ5WxV9vGkjv2lbW1s-107" value="" style="endArrow=classic;startArrow=classic;html=1;fontSize=14;entryX=0.372;entryY=1.02;entryPerimeter=0;exitX=0.5;exitY=0;dashed=1;" parent="1" source="QPBQ5WxV9vGkjv2lbW1s-41" target="QPBQ5WxV9vGkjv2lbW1s-106" edge="1"><mxGeometry width="50" height="50" relative="1" as="geometry"><mxPoint x="684" y="871" as="sourcePoint"/><mxPoint x="684" y="836" as="targetPoint"/></mxGeometry></mxCell><mxCell id="QPBQ5WxV9vGkjv2lbW1s-108" value="&lt;font style=&quot;font-size: 11px&quot;&gt;D 5. Update Positions&lt;/font&gt;" style="endArrow=classic;startArrow=classic;html=1;fontSize=14;exitX=1;exitY=0.3;dashed=1;exitDx=0;exitDy=0;" parent="1" source="QPBQ5WxV9vGkjv2lbW1s-42" target="QPBQ5WxV9vGkjv2lbW1s-106" edge="1"><mxGeometry x="0.5096" y="-27" width="50" height="50" relative="1" as="geometry"><mxPoint x="664" y="767" as="sourcePoint"/><mxPoint x="717" y="735" as="targetPoint"/><mxPoint as="offset"/></mxGeometry></mxCell><mxCell id="QPBQ5WxV9vGkjv2lbW1s-109" value="" style="shape=cylinder;whiteSpace=wrap;html=1;boundedLbl=1;rotation=-90;fillColor=#7EA6E0;" parent="1" vertex="1"><mxGeometry x="804" y="941" width="40" height="80" as="geometry"/></mxCell><mxCell id="QPBQ5WxV9vGkjv2lbW1s-110" value="" style="shape=cylinder;whiteSpace=wrap;html=1;boundedLbl=1;rotation=-90;fillColor=#7EA6E0;" parent="1" vertex="1"><mxGeometry x="814" y="951" width="40" height="80" as="geometry"/></mxCell><mxCell id="QPBQ5WxV9vGkjv2lbW1s-111" value="settlement.notifications" style="text;html=1;strokeColor=none;fillColor=none;align=center;verticalAlign=middle;whiteSpace=wrap;rounded=0;fontSize=13;" parent="1" vertex="1"><mxGeometry x="912" y="715" width="60" height="20" as="geometry"/></mxCell><mxCell id="QPBQ5WxV9vGkjv2lbW1s-112" value="" style="group" parent="1" vertex="1" connectable="0"><mxGeometry x="898" y="635" width="60" height="100" as="geometry"/></mxCell><mxCell id="QPBQ5WxV9vGkjv2lbW1s-113" value="" style="shape=cylinder;whiteSpace=wrap;html=1;boundedLbl=1;rotation=-90;fillColor=#7EA6E0;" parent="QPBQ5WxV9vGkjv2lbW1s-112" vertex="1"><mxGeometry width="40" height="80" as="geometry"/></mxCell><mxCell id="QPBQ5WxV9vGkjv2lbW1s-114" value="" style="shape=cylinder;whiteSpace=wrap;html=1;boundedLbl=1;rotation=-90;fillColor=#7EA6E0;" parent="QPBQ5WxV9vGkjv2lbW1s-112" vertex="1"><mxGeometry x="10" y="10" width="40" height="80" as="geometry"/></mxCell><mxCell id="QPBQ5WxV9vGkjv2lbW1s-115" value="" style="shape=cylinder;whiteSpace=wrap;html=1;boundedLbl=1;rotation=-90;fillColor=#7EA6E0;" parent="QPBQ5WxV9vGkjv2lbW1s-112" vertex="1"><mxGeometry x="20" y="20" width="40" height="80" as="geometry"/></mxCell><mxCell id="QPBQ5WxV9vGkjv2lbW1s-116" value="kafka" style="text;html=1;strokeColor=none;fillColor=#7EA6E0;align=center;verticalAlign=middle;whiteSpace=wrap;rounded=0;direction=south;fontSize=13;" parent="QPBQ5WxV9vGkjv2lbW1s-112" vertex="1"><mxGeometry x="40" y="48" width="20" height="24" as="geometry"/></mxCell><mxCell id="QPBQ5WxV9vGkjv2lbW1s-117" value="&lt;span&gt;Scheme Settlement Processor&lt;/span&gt;&lt;br&gt;" style="rounded=0;whiteSpace=wrap;html=1;fillColor=#9999FF;" parent="1" vertex="1"><mxGeometry x="370" y="395" width="120" height="50" as="geometry"/></mxCell><mxCell id="QPBQ5WxV9vGkjv2lbW1s-118" value="Hub Operator" style="shape=umlActor;verticalLabelPosition=bottom;labelBackgroundColor=none;verticalAlign=top;html=1;outlineConnect=0;" parent="1" vertex="1"><mxGeometry x="556" y="390" width="30" height="60" as="geometry"/></mxCell><mxCell id="QPBQ5WxV9vGkjv2lbW1s-119" value="&lt;font style=&quot;font-size: 11px&quot;&gt;D 1. Create &lt;br&gt;Settlement&lt;/font&gt;" style="endArrow=classic;startArrow=classic;html=1;entryX=0;entryY=0.25;fontSize=13;labelBackgroundColor=none;spacingLeft=16;spacingTop=40;dashed=1;" parent="1" source="QPBQ5WxV9vGkjv2lbW1s-118" target="QPBQ5WxV9vGkjv2lbW1s-106" edge="1"><mxGeometry x="-0.8311" y="-41" width="50" height="50" relative="1" as="geometry"><mxPoint x="728" y="505" as="sourcePoint"/><mxPoint x="874" y="476" as="targetPoint"/><Array as="points"><mxPoint x="571" y="624"/></Array><mxPoint as="offset"/></mxGeometry></mxCell><mxCell id="QPBQ5WxV9vGkjv2lbW1s-120" value="D" style="ellipse;whiteSpace=wrap;html=1;aspect=fixed;fillColor=#FFD966;" parent="1" vertex="1"><mxGeometry x="415" y="491" width="30" height="30" as="geometry"/></mxCell><mxCell id="QPBQ5WxV9vGkjv2lbW1s-121" value="" style="endArrow=classic;html=1;fontSize=14;entryX=0.5;entryY=0;startArrow=classic;startFill=1;dashed=1;" parent="1" source="QPBQ5WxV9vGkjv2lbW1s-117" target="QPBQ5WxV9vGkjv2lbW1s-120" edge="1"><mxGeometry width="50" height="50" relative="1" as="geometry"><mxPoint x="210" y="773" as="sourcePoint"/><mxPoint x="279" y="774" as="targetPoint"/></mxGeometry></mxCell><mxCell id="QPBQ5WxV9vGkjv2lbW1s-122" value="D 2. Query &lt;br&gt;Settlement&lt;br&gt;Report&lt;br&gt;(Pull)&lt;br&gt;" style="endArrow=classic;html=1;entryX=0;entryY=0.5;labelBackgroundColor=none;entryDx=0;entryDy=0;dashed=1;" parent="1" target="QPBQ5WxV9vGkjv2lbW1s-106" edge="1"><mxGeometry x="-0.4444" y="30" width="50" height="50" relative="1" as="geometry"><mxPoint x="445" y="505" as="sourcePoint"/><mxPoint x="630" y="698" as="targetPoint"/><Array as="points"><mxPoint x="470" y="505"/><mxPoint x="470" y="636"/></Array><mxPoint as="offset"/></mxGeometry></mxCell><mxCell id="QPBQ5WxV9vGkjv2lbW1s-123" value="D 4. Send&lt;br&gt;Acks&lt;br&gt;(Push)&lt;br&gt;" style="endArrow=classic;html=1;entryX=0;entryY=0.75;labelBackgroundColor=none;exitX=0.5;exitY=1;dashed=1;" parent="1" source="QPBQ5WxV9vGkjv2lbW1s-120" target="QPBQ5WxV9vGkjv2lbW1s-106" edge="1"><mxGeometry x="-0.6726" y="-30" width="50" height="50" relative="1" as="geometry"><mxPoint x="450" y="525" as="sourcePoint"/><mxPoint x="640" y="983.5" as="targetPoint"/><Array as="points"><mxPoint x="430" y="649"/></Array><mxPoint as="offset"/></mxGeometry></mxCell><mxCell id="QPBQ5WxV9vGkjv2lbW1s-124" value="Settlement&lt;br&gt;Bank&lt;br&gt;" style="shape=umlActor;verticalLabelPosition=bottom;labelBackgroundColor=none;verticalAlign=top;html=1;outlineConnect=0;" parent="1" vertex="1"><mxGeometry x="125" y="390" width="30" height="60" as="geometry"/></mxCell><mxCell id="QPBQ5WxV9vGkjv2lbW1s-125" value="&lt;span style=&quot;font-size: 11px&quot;&gt;D 3. Process Settlements&lt;/span&gt;&lt;br&gt;" style="endArrow=classic;html=1;fontSize=14;entryX=0;entryY=0.5;startArrow=classic;startFill=1;exitX=0.5;exitY=0.5;exitPerimeter=0;labelBackgroundColor=none;dashed=1;rounded=0;" parent="1" source="QPBQ5WxV9vGkjv2lbW1s-124" target="QPBQ5WxV9vGkjv2lbW1s-117" edge="1"><mxGeometry x="-0.2754" y="-9" width="50" height="50" relative="1" as="geometry"><mxPoint x="440" y="455" as="sourcePoint"/><mxPoint x="440" y="501" as="targetPoint"/><mxPoint as="offset"/></mxGeometry></mxCell><mxCell id="QPBQ5WxV9vGkjv2lbW1s-126" value="&lt;font style=&quot;font-size: 25px&quot;&gt;Bank&lt;/font&gt;" style="text;html=1;strokeColor=none;fillColor=none;align=center;verticalAlign=middle;whiteSpace=wrap;rounded=0;fontSize=25;" parent="1" vertex="1"><mxGeometry x="48" y="344" width="184" height="20" as="geometry"/></mxCell><mxCell id="QPBQ5WxV9vGkjv2lbW1s-127" value="D 7. Position Notifications Change result" style="edgeStyle=none;rounded=0;html=1;exitX=1;exitY=0.5;entryX=0.5;entryY=0;jettySize=auto;orthogonalLoop=1;labelBackgroundColor=none;dashed=1;" parent="1" source="QPBQ5WxV9vGkjv2lbW1s-113" target="QPBQ5WxV9vGkjv2lbW1s-117" edge="1"><mxGeometry x="0.5944" y="-10" relative="1" as="geometry"><mxPoint x="820" y="709" as="sourcePoint"/><mxPoint x="902" y="709" as="targetPoint"/><Array as="points"><mxPoint x="918" y="595"/><mxPoint x="620" y="595"/><mxPoint x="620" y="365"/><mxPoint x="430" y="365"/></Array><mxPoint as="offset"/></mxGeometry></mxCell><mxCell id="QPBQ5WxV9vGkjv2lbW1s-128" value="D 7. Settlement Notification" style="edgeStyle=none;rounded=0;html=1;exitX=0;exitY=0.5;entryX=0.5;entryY=0;jettySize=auto;orthogonalLoop=1;dashed=1;" parent="1" source="QPBQ5WxV9vGkjv2lbW1s-115" target="QPBQ5WxV9vGkjv2lbW1s-11" edge="1"><mxGeometry x="0.4474" relative="1" as="geometry"><mxPoint x="820" y="709" as="sourcePoint"/><mxPoint x="902" y="709" as="targetPoint"/><mxPoint as="offset"/></mxGeometry></mxCell><mxCell id="QPBQ5WxV9vGkjv2lbW1s-129" value="kafka" style="text;html=1;strokeColor=none;fillColor=#7EA6E0;align=center;verticalAlign=middle;whiteSpace=wrap;rounded=0;direction=south;fontSize=13;" parent="1" vertex="1"><mxGeometry x="834" y="979" width="20" height="24" as="geometry"/></mxCell><mxCell id="QPBQ5WxV9vGkjv2lbW1s-130" style="rounded=0;orthogonalLoop=1;jettySize=auto;html=1;exitX=1;exitY=0.5;exitDx=0;exitDy=0;startArrow=classic;startFill=1;entryX=0;entryY=0.5;entryDx=0;entryDy=0;dashed=1;" parent="1" target="QPBQ5WxV9vGkjv2lbW1s-134" edge="1"><mxGeometry relative="1" as="geometry"><mxPoint x="985" y="336" as="sourcePoint"/><mxPoint x="1200" y="325" as="targetPoint"/></mxGeometry></mxCell><mxCell id="QPBQ5WxV9vGkjv2lbW1s-131" value="&lt;font style=&quot;font-size: 25px&quot;&gt;GSMA&lt;/font&gt;" style="text;html=1;strokeColor=none;fillColor=none;align=center;verticalAlign=middle;whiteSpace=wrap;rounded=0;fontSize=25;" parent="1" vertex="1"><mxGeometry x="1226" y="269" width="184" height="30" as="geometry"/></mxCell><mxCell id="QPBQ5WxV9vGkjv2lbW1s-132" style="edgeStyle=orthogonalEdgeStyle;rounded=0;orthogonalLoop=1;jettySize=auto;html=1;exitX=1;exitY=0.25;exitDx=0;exitDy=0;startArrow=classic;startFill=1;dashed=1;" parent="1" target="QPBQ5WxV9vGkjv2lbW1s-70" edge="1"><mxGeometry relative="1" as="geometry"><mxPoint x="985" y="407" as="sourcePoint"/></mxGeometry></mxCell><mxCell id="QPBQ5WxV9vGkjv2lbW1s-133" value="&lt;font&gt;&lt;font style=&quot;font-size: 14px&quot;&gt;(Schema customised by Hub Operator)&lt;/font&gt;&lt;br&gt;&lt;/font&gt;" style="text;html=1;strokeColor=none;fillColor=none;align=center;verticalAlign=middle;whiteSpace=wrap;rounded=0;fontSize=29;" parent="1" vertex="1"><mxGeometry x="574" y="1225" width="282" height="20" as="geometry"/></mxCell><mxCell id="QPBQ5WxV9vGkjv2lbW1s-134" value="&lt;font style=&quot;font-size: 15px&quot;&gt;Pathfinder&lt;/font&gt;" style="rounded=0;whiteSpace=wrap;html=1;fillColor=#7EA6E0;strokeColor=#36393d;" parent="1" vertex="1"><mxGeometry x="1273" y="305" width="100" height="64" as="geometry"/></mxCell><mxCell id="QPBQ5WxV9vGkjv2lbW1s-135" value="&lt;span&gt;&lt;font style=&quot;font-size: 15px&quot;&gt;ALS Oracle MSISDN Adapter&lt;/font&gt;&lt;/span&gt;" style="rounded=0;whiteSpace=wrap;html=1;fillColor=#E6E6E6;strokeColor=#23445d;" parent="1" vertex="1"><mxGeometry x="885" y="305" width="100" height="64" as="geometry"/></mxCell><mxCell id="QPBQ5WxV9vGkjv2lbW1s-136" value="&lt;span&gt;&lt;font style=&quot;font-size: 15px&quot;&gt;ALS Oracle Merchant Service&lt;/font&gt;&lt;/span&gt;" style="rounded=0;whiteSpace=wrap;html=1;fillColor=#E6E6E6;strokeColor=#23445d;" parent="1" vertex="1"><mxGeometry x="885" y="380" width="100" height="64" as="geometry"/></mxCell><mxCell id="QPBQ5WxV9vGkjv2lbW1s-137" value="" style="group" parent="1" vertex="1" connectable="0"><mxGeometry x="1268" y="971" width="160" height="40" as="geometry"/></mxCell><mxCell id="QPBQ5WxV9vGkjv2lbW1s-138" value="API &lt;br style=&quot;font-size: 12px;&quot;&gt;Internal Use-Only" style="endArrow=none;dashed=1;html=1;strokeColor=#000000;fontSize=12;" parent="QPBQ5WxV9vGkjv2lbW1s-137" edge="1"><mxGeometry width="50" height="50" relative="1" as="geometry"><mxPoint as="sourcePoint"/><mxPoint x="160" as="targetPoint"/></mxGeometry></mxCell><mxCell id="QPBQ5WxV9vGkjv2lbW1s-139" value="Mojaloop API&lt;br style=&quot;font-size: 12px;&quot;&gt;Specification v1.0&lt;br style=&quot;font-size: 12px;&quot;&gt;" style="endArrow=none;html=1;strokeColor=#000000;fontSize=12;" parent="QPBQ5WxV9vGkjv2lbW1s-137" edge="1"><mxGeometry width="50" height="50" relative="1" as="geometry"><mxPoint y="40" as="sourcePoint"/><mxPoint x="160" y="40" as="targetPoint"/></mxGeometry></mxCell><mxCell id="QPBQ5WxV9vGkjv2lbW1s-140" value="&lt;span style=&quot;font-size: 14px&quot;&gt;Key&lt;/span&gt;&lt;br&gt;" style="text;html=1;strokeColor=none;fillColor=none;align=center;verticalAlign=middle;whiteSpace=wrap;rounded=0;fontSize=25;fontColor=#000000;rotation=-90;" parent="1" vertex="1"><mxGeometry x="1198" y="983" width="68" height="20" as="geometry"/></mxCell><mxCell id="QPBQ5WxV9vGkjv2lbW1s-141" value="Quoting-Service" style="rounded=0;whiteSpace=wrap;html=1;fillColor=#ffe6cc;fontSize=15;strokeColor=#d79b00;" parent="1" vertex="1"><mxGeometry x="430" y="689" width="180" height="50" as="geometry"/></mxCell><mxCell id="QPBQ5WxV9vGkjv2lbW1s-142" value="" style="endArrow=classic;startArrow=classic;html=1;fontSize=14;dashed=1;entryX=0.75;entryY=1;entryDx=0;entryDy=0;exitX=0;exitY=0.3;exitDx=0;exitDy=0;" parent="1" source="QPBQ5WxV9vGkjv2lbW1s-41" target="QPBQ5WxV9vGkjv2lbW1s-141" edge="1"><mxGeometry width="50" height="50" relative="1" as="geometry"><mxPoint x="684" y="871" as="sourcePoint"/><mxPoint x="684" y="836" as="targetPoint"/></mxGeometry></mxCell><mxCell id="QPBQ5WxV9vGkjv2lbW1s-143" value="&lt;span&gt;&lt;font&gt;&lt;span style=&quot;font-size: 15px&quot;&gt;ALS Oracle Simulator&lt;/span&gt;&lt;br&gt;&lt;/font&gt;&lt;/span&gt;" style="rounded=0;whiteSpace=wrap;html=1;fillColor=#E6E6E6;strokeColor=#23445d;" parent="1" vertex="1"><mxGeometry x="912" y="506" width="100" height="38" as="geometry"/></mxCell><mxCell id="QPBQ5WxV9vGkjv2lbW1s-144" value="" style="endArrow=classic;startArrow=classic;html=1;exitX=1;exitY=0.375;dashed=1;exitDx=0;exitDy=0;entryX=0;entryY=0.5;entryDx=0;entryDy=0;exitPerimeter=0;" parent="1" source="QPBQ5WxV9vGkjv2lbW1s-45" target="QPBQ5WxV9vGkjv2lbW1s-143" edge="1"><mxGeometry width="50" height="50" relative="1" as="geometry"><mxPoint x="808" y="525" as="sourcePoint"/><mxPoint x="895" y="422" as="targetPoint"/><Array as="points"/></mxGeometry></mxCell><mxCell id="QPBQ5WxV9vGkjv2lbW1s-145" value="A 2. *ID based &lt;br&gt;lookup" style="text;html=1;resizable=0;points=[];align=center;verticalAlign=middle;labelBackgroundColor=none;fontSize=13;" parent="QPBQ5WxV9vGkjv2lbW1s-144" vertex="1" connectable="0"><mxGeometry x="-0.4725" y="2" relative="1" as="geometry"><mxPoint x="33.5" as="offset"/></mxGeometry></mxCell><mxCell id="kw4FWQOrDmjUzLnGionM-1" value="" style="rounded=1;whiteSpace=wrap;html=1;fontSize=11;strokeColor=#82b366;fillColor=#d5e8d4;opacity=20;strokeWidth=3;" parent="1" vertex="1"><mxGeometry x="450" y="750" width="270" height="380" as="geometry"/></mxCell></root></mxGraphModel></diagram><diagram id="UiNzN-dFZJ_Z2km-TB4z" name="create-participant-account"><mxGraphModel dx="782" dy="403" grid="1" gridSize="10" guides="1" tooltips="1" connect="1" arrows="1" fold="1" page="1" pageScale="1" pageWidth="850" pageHeight="1100" math="0" shadow="0"><root><mxCell id="0"/><mxCell id="1" parent="0"/><mxCell id="9dSdNYxQJ71QNB0NJ-xn-1" value="" style="shape=image;verticalLabelPosition=bottom;labelBackgroundColor=default;verticalAlign=top;aspect=fixed;imageAspect=0;image=data:image/svg+xml,PHN2ZyB4bWxucz0iaHR0cDovL3d3dy53My5vcmcvMjAwMC9zdmciIHhtbG5zOnhsaW5rPSJodHRwOi8vd3d3LnczLm9yZy8xOTk5L3hsaW5rIiBjb250ZW50c3R5bGV0eXBlPSJ0ZXh0L2NzcyIgaGVpZ2h0PSI5ODkuOTc2NTYyNSIgcHJlc2VydmVBc3BlY3RSYXRpbz0ibm9uZSIgc3R5bGU9IndpZHRoOjE2NjdweDtoZWlnaHQ6MTAwMXB4O2JhY2tncm91bmQ6I0ZGRkZGRjsiIHZlcnNpb249IjEuMSIgdmlld0JveD0iOSA2IDE2NDkuNSA5ODkuOTc2NTYyNSIgd2lkdGg9IjE2NDkuNSIgem9vbUFuZFBhbj0ibWFnbmlmeSI+PGRlZnMvPjxnPjxyZWN0IGZpbGw9IiNGRkZGRjkiIGhlaWdodD0iOTg5Ljk3NjYiIHN0eWxlPSJzdHJva2U6IzE4MTgxODtzdHJva2Utd2lkdGg6MC41OyIgd2lkdGg9IjY0Ni41IiB4PSIyMjgiIHk9IjYiLz48dGV4dCBmaWxsPSIjMDAwMDAwIiBmb250LWZhbWlseT0ic2Fucy1zZXJpZiIgZm9udC1zaXplPSIxMyIgZm9udC13ZWlnaHQ9ImJvbGQiIGxlbmd0aEFkanVzdD0ic3BhY2luZyIgdGV4dExlbmd0aD0iMTA4IiB4PSI0OTQuNzUiIHk9IjE4LjA2NjkiPkNlbnRyYWwtTGVkZ2VyPC90ZXh0PjxyZWN0IGZpbGw9IiNGOUZGRjkiIGhlaWdodD0iOTg5Ljk3NjYiIHN0eWxlPSJzdHJva2U6IzE4MTgxODtzdHJva2Utd2lkdGg6MC41OyIgd2lkdGg9IjU2NS41IiB4PSIxMDkzIiB5PSI2Ii8+PHRleHQgZmlsbD0iIzAwMDAwMCIgZm9udC1mYW1pbHk9InNhbnMtc2VyaWYiIGZvbnQtc2l6ZT0iMTMiIGZvbnQtd2VpZ2h0PSJib2xkIiBsZW5ndGhBZGp1c3Q9InNwYWNpbmciIHRleHRMZW5ndGg9IjU3IiB4PSIxMzQ0Ljc1IiB5PSIxOC4wNjY5Ij5TdG9yYWdlPC90ZXh0PjxyZWN0IGhlaWdodD0iNTU5LjA1NDciIHN0eWxlPSJzdHJva2U6IzAwMDAwMDtzdHJva2Utd2lkdGg6MS41O2ZpbGw6bm9uZTsiIHdpZHRoPSIxNTk5LjUiIHg9IjEwIiB5PSIzNDAuNjI1Ii8+PGxpbmUgc3R5bGU9InN0cm9rZTojMTgxODE4O3N0cm9rZS13aWR0aDowLjU7ZmlsbDpub25lO3N0cm9rZS1kYXNoYXJyYXk6NS4wLDUuMDsiIHgxPSI4NiIgeDI9Ijg2IiB5MT0iODcuNDI5NyIgeTI9IjkxNi42Nzk3Ii8+PGxpbmUgc3R5bGU9InN0cm9rZTojMTgxODE4O3N0cm9rZS13aWR0aDowLjU7ZmlsbDpub25lO3N0cm9rZS1kYXNoYXJyYXk6NS4wLDUuMDsiIHgxPSIyNTIiIHgyPSIyNTIiIHkxPSI4Ny40Mjk3IiB5Mj0iOTE2LjY3OTciLz48bGluZSBzdHlsZT0ic3Ryb2tlOiMxODE4MTg7c3Ryb2tlLXdpZHRoOjAuNTtmaWxsOm5vbmU7c3Ryb2tlLWRhc2hhcnJheTo1LjAsNS4wOyIgeDE9IjQ2NiIgeDI9IjQ2NiIgeTE9Ijg3LjQyOTciIHkyPSI5MTYuNjc5NyIvPjxsaW5lIHN0eWxlPSJzdHJva2U6IzE4MTgxODtzdHJva2Utd2lkdGg6MC41O2ZpbGw6bm9uZTtzdHJva2UtZGFzaGFycmF5OjUuMCw1LjA7IiB4MT0iNjQ4IiB4Mj0iNjQ4IiB5MT0iODcuNDI5NyIgeTI9IjkxNi42Nzk3Ii8+PGxpbmUgc3R5bGU9InN0cm9rZTojMTgxODE4O3N0cm9rZS13aWR0aDowLjU7ZmlsbDpub25lO3N0cm9rZS1kYXNoYXJyYXk6NS4wLDUuMDsiIHgxPSI4MDQuNSIgeDI9IjgwNC41IiB5MT0iODcuNDI5NyIgeTI9IjkxNi42Nzk3Ii8+PGxpbmUgc3R5bGU9InN0cm9rZTojMTgxODE4O3N0cm9rZS13aWR0aDowLjU7ZmlsbDpub25lO3N0cm9rZS1kYXNoYXJyYXk6NS4wLDUuMDsiIHgxPSIxMTY0IiB4Mj0iMTE2NCIgeTE9Ijg3LjQyOTciIHkyPSI5MTYuNjc5NyIvPjxsaW5lIHN0eWxlPSJzdHJva2U6IzE4MTgxODtzdHJva2Utd2lkdGg6MC41O2ZpbGw6bm9uZTtzdHJva2UtZGFzaGFycmF5OjUuMCw1LjA7IiB4MT0iMTM4Ny41IiB4Mj0iMTM4Ny41IiB5MT0iODcuNDI5NyIgeTI9IjkxNi42Nzk3Ii8+PGxpbmUgc3R5bGU9InN0cm9rZTojMTgxODE4O3N0cm9rZS13aWR0aDowLjU7ZmlsbDpub25lO3N0cm9rZS1kYXNoYXJyYXk6NS4wLDUuMDsiIHgxPSIxNTQ1LjUiIHgyPSIxNTQ1LjUiIHkxPSI4Ny40Mjk3IiB5Mj0iOTE2LjY3OTciLz48bGluZSBzdHlsZT0ic3Ryb2tlOiMxODE4MTg7c3Ryb2tlLXdpZHRoOjAuNTtmaWxsOm5vbmU7c3Ryb2tlLWRhc2hhcnJheTo1LjAsNS4wOyIgeDE9IjE2MzEuNSIgeDI9IjE2MzEuNSIgeTE9Ijg3LjQyOTciIHkyPSI5MTYuNjc5NyIvPjx0ZXh0IGZpbGw9IiMwMDAwMDAiIGZvbnQtZmFtaWx5PSJzYW5zLXNlcmlmIiBmb250LXNpemU9IjE0IiBsZW5ndGhBZGp1c3Q9InNwYWNpbmciIHRleHRMZW5ndGg9IjEyNiIgeD0iMjAiIHk9Ijg0LjEyNzkiPk1vamFsb29wIEFkYXB0ZXI8L3RleHQ+PGVsbGlwc2UgY3g9Ijg2IiBjeT0iMTkuNjMyOCIgZmlsbD0iI0UyRTJGMCIgcng9IjgiIHJ5PSI4IiBzdHlsZT0ic3Ryb2tlOiMxODE4MTg7c3Ryb2tlLXdpZHRoOjAuNTsiLz48cGF0aCBkPSJNODYsMjcuNjMyOCBMODYsNTQuNjMyOCBNNzMsMzUuNjMyOCBMOTksMzUuNjMyOCBNODYsNTQuNjMyOCBMNzMsNjkuNjMyOCBNODYsNTQuNjMyOCBMOTksNjkuNjMyOCAiIGZpbGw9Im5vbmUiIHN0eWxlPSJzdHJva2U6IzE4MTgxODtzdHJva2Utd2lkdGg6MC41OyIvPjx0ZXh0IGZpbGw9IiMwMDAwMDAiIGZvbnQtZmFtaWx5PSJzYW5zLXNlcmlmIiBmb250LXNpemU9IjE0IiBsZW5ndGhBZGp1c3Q9InNwYWNpbmciIHRleHRMZW5ndGg9IjEyNiIgeD0iMjAiIHk9IjkyOC42NzQ4Ij5Nb2phbG9vcCBBZGFwdGVyPC90ZXh0PjxlbGxpcHNlIGN4PSI4NiIgY3k9Ijk0MC40NzY2IiBmaWxsPSIjRTJFMkYwIiByeD0iOCIgcnk9IjgiIHN0eWxlPSJzdHJva2U6IzE4MTgxODtzdHJva2Utd2lkdGg6MC41OyIvPjxwYXRoIGQ9Ik04Niw5NDguNDc2NiBMODYsOTc1LjQ3NjYgTTczLDk1Ni40NzY2IEw5OSw5NTYuNDc2NiBNODYsOTc1LjQ3NjYgTDczLDk5MC40NzY2IE04Niw5NzUuNDc2NiBMOTksOTkwLjQ3NjYgIiBmaWxsPSJub25lIiBzdHlsZT0ic3Ryb2tlOiMxODE4MTg7c3Ryb2tlLXdpZHRoOjAuNTsiLz48cmVjdCBmaWxsPSIjRTJFMkYwIiBoZWlnaHQ9IjMwLjI5NjkiIHJ4PSIyLjUiIHJ5PSIyLjUiIHN0eWxlPSJzdHJva2U6IzE4MTgxODtzdHJva2Utd2lkdGg6MC41OyIgd2lkdGg9IjQwIiB4PSIyMzIiIHk9IjU2LjEzMjgiLz48dGV4dCBmaWxsPSIjMDAwMDAwIiBmb250LWZhbWlseT0ic2Fucy1zZXJpZiIgZm9udC1zaXplPSIxNCIgZm9udC13ZWlnaHQ9ImJvbGQiIGxlbmd0aEFkanVzdD0ic3BhY2luZyIgdGV4dExlbmd0aD0iMjYiIHg9IjIzOSIgeT0iNzYuMTI3OSI+QVBJPC90ZXh0PjxyZWN0IGZpbGw9IiNFMkUyRjAiIGhlaWdodD0iMzAuMjk2OSIgcng9IjIuNSIgcnk9IjIuNSIgc3R5bGU9InN0cm9rZTojMTgxODE4O3N0cm9rZS13aWR0aDowLjU7IiB3aWR0aD0iNDAiIHg9IjIzMiIgeT0iOTE1LjY3OTciLz48dGV4dCBmaWxsPSIjMDAwMDAwIiBmb250LWZhbWlseT0ic2Fucy1zZXJpZiIgZm9udC1zaXplPSIxNCIgZm9udC13ZWlnaHQ9ImJvbGQiIGxlbmd0aEFkanVzdD0ic3BhY2luZyIgdGV4dExlbmd0aD0iMjYiIHg9IjIzOSIgeT0iOTM1LjY3NDgiPkFQSTwvdGV4dD48cmVjdCBmaWxsPSIjRTJFMkYwIiBoZWlnaHQ9IjMwLjI5NjkiIHJ4PSIyLjUiIHJ5PSIyLjUiIHN0eWxlPSJzdHJva2U6IzE4MTgxODtzdHJva2Utd2lkdGg6MC41OyIgd2lkdGg9IjEwNiIgeD0iNDEzIiB5PSI1Ni4xMzI4Ii8+PHRleHQgZmlsbD0iIzAwMDAwMCIgZm9udC1mYW1pbHk9InNhbnMtc2VyaWYiIGZvbnQtc2l6ZT0iMTQiIGxlbmd0aEFkanVzdD0ic3BhY2luZyIgdGV4dC1kZWNvcmF0aW9uPSJ1bmRlcmxpbmUiIHRleHRMZW5ndGg9IjIyIiB4PSI0MjAiIHk9Ijc2LjEyNzkiPmFwaTwvdGV4dD48dGV4dCBmaWxsPSIjMDAwMDAwIiBmb250LWZhbWlseT0ic2Fucy1zZXJpZiIgZm9udC1zaXplPSIxNCIgbGVuZ3RoQWRqdXN0PSJzcGFjaW5nIiB0ZXh0TGVuZ3RoPSI2NiIgeD0iNDQ2IiB5PSI3Ni4xMjc5Ij4vIEhhbmRsZXI8L3RleHQ+PHJlY3QgZmlsbD0iI0UyRTJGMCIgaGVpZ2h0PSIzMC4yOTY5IiByeD0iMi41IiByeT0iMi41IiBzdHlsZT0ic3Ryb2tlOiMxODE4MTg7c3Ryb2tlLXdpZHRoOjAuNTsiIHdpZHRoPSIxMDYiIHg9IjQxMyIgeT0iOTE1LjY3OTciLz48dGV4dCBmaWxsPSIjMDAwMDAwIiBmb250LWZhbWlseT0ic2Fucy1zZXJpZiIgZm9udC1zaXplPSIxNCIgbGVuZ3RoQWRqdXN0PSJzcGFjaW5nIiB0ZXh0LWRlY29yYXRpb249InVuZGVybGluZSIgdGV4dExlbmd0aD0iMjIiIHg9IjQyMCIgeT0iOTM1LjY3NDgiPmFwaTwvdGV4dD48dGV4dCBmaWxsPSIjMDAwMDAwIiBmb250LWZhbWlseT0ic2Fucy1zZXJpZiIgZm9udC1zaXplPSIxNCIgbGVuZ3RoQWRqdXN0PSJzcGFjaW5nIiB0ZXh0TGVuZ3RoPSI2NiIgeD0iNDQ2IiB5PSI5MzUuNjc0OCI+LyBIYW5kbGVyPC90ZXh0PjxyZWN0IGZpbGw9IiNFMkUyRjAiIGhlaWdodD0iMzAuMjk2OSIgcng9IjIuNSIgcnk9IjIuNSIgc3R5bGU9InN0cm9rZTojMTgxODE4O3N0cm9rZS13aWR0aDowLjU7IiB3aWR0aD0iMTM0IiB4PSI1ODEiIHk9IjU2LjEzMjgiLz48dGV4dCBmaWxsPSIjMDAwMDAwIiBmb250LWZhbWlseT0ic2Fucy1zZXJpZiIgZm9udC1zaXplPSIxNCIgbGVuZ3RoQWRqdXN0PSJzcGFjaW5nIiB0ZXh0LWRlY29yYXRpb249InVuZGVybGluZSIgdGV4dExlbmd0aD0iNTQiIHg9IjU4OCIgeT0iNzYuMTI3OSI+ZG9tYWluPC90ZXh0Pjx0ZXh0IGZpbGw9IiMwMDAwMDAiIGZvbnQtZmFtaWx5PSJzYW5zLXNlcmlmIiBmb250LXNpemU9IjE0IiBsZW5ndGhBZGp1c3Q9InNwYWNpbmciIHRleHRMZW5ndGg9IjYyIiB4PSI2NDYiIHk9Ijc2LjEyNzkiPi8gU2VydmljZTwvdGV4dD48cmVjdCBmaWxsPSIjRTJFMkYwIiBoZWlnaHQ9IjMwLjI5NjkiIHJ4PSIyLjUiIHJ5PSIyLjUiIHN0eWxlPSJzdHJva2U6IzE4MTgxODtzdHJva2Utd2lkdGg6MC41OyIgd2lkdGg9IjEzNCIgeD0iNTgxIiB5PSI5MTUuNjc5NyIvPjx0ZXh0IGZpbGw9IiMwMDAwMDAiIGZvbnQtZmFtaWx5PSJzYW5zLXNlcmlmIiBmb250LXNpemU9IjE0IiBsZW5ndGhBZGp1c3Q9InNwYWNpbmciIHRleHQtZGVjb3JhdGlvbj0idW5kZXJsaW5lIiB0ZXh0TGVuZ3RoPSI1NCIgeD0iNTg4IiB5PSI5MzUuNjc0OCI+ZG9tYWluPC90ZXh0Pjx0ZXh0IGZpbGw9IiMwMDAwMDAiIGZvbnQtZmFtaWx5PSJzYW5zLXNlcmlmIiBmb250LXNpemU9IjE0IiBsZW5ndGhBZGp1c3Q9InNwYWNpbmciIHRleHRMZW5ndGg9IjYyIiB4PSI2NDYiIHk9IjkzNS42NzQ4Ij4vIFNlcnZpY2U8L3RleHQ+PHJlY3QgZmlsbD0iI0UyRTJGMCIgaGVpZ2h0PSIzMC4yOTY5IiByeD0iMi41IiByeT0iMi41IiBzdHlsZT0ic3Ryb2tlOiMxODE4MTg7c3Ryb2tlLXdpZHRoOjAuNTsiIHdpZHRoPSIxMzEiIHg9IjczOS41IiB5PSI1Ni4xMzI4Ii8+PHRleHQgZmlsbD0iIzAwMDAwMCIgZm9udC1mYW1pbHk9InNhbnMtc2VyaWYiIGZvbnQtc2l6ZT0iMTQiIGxlbmd0aEFkanVzdD0ic3BhY2luZyIgdGV4dC1kZWNvcmF0aW9uPSJ1bmRlcmxpbmUiIHRleHRMZW5ndGg9IjUyIiB4PSI3NDYuNSIgeT0iNzYuMTI3OSI+bW9kZWxzPC90ZXh0Pjx0ZXh0IGZpbGw9IiMwMDAwMDAiIGZvbnQtZmFtaWx5PSJzYW5zLXNlcmlmIiBmb250LXNpemU9IjE0IiBsZW5ndGhBZGp1c3Q9InNwYWNpbmciIHRleHRMZW5ndGg9IjYxIiB4PSI4MDIuNSIgeT0iNzYuMTI3OSI+LyBGYWNhZGU8L3RleHQ+PHJlY3QgZmlsbD0iI0UyRTJGMCIgaGVpZ2h0PSIzMC4yOTY5IiByeD0iMi41IiByeT0iMi41IiBzdHlsZT0ic3Ryb2tlOiMxODE4MTg7c3Ryb2tlLXdpZHRoOjAuNTsiIHdpZHRoPSIxMzEiIHg9IjczOS41IiB5PSI5MTUuNjc5NyIvPjx0ZXh0IGZpbGw9IiMwMDAwMDAiIGZvbnQtZmFtaWx5PSJzYW5zLXNlcmlmIiBmb250LXNpemU9IjE0IiBsZW5ndGhBZGp1c3Q9InNwYWNpbmciIHRleHQtZGVjb3JhdGlvbj0idW5kZXJsaW5lIiB0ZXh0TGVuZ3RoPSI1MiIgeD0iNzQ2LjUiIHk9IjkzNS42NzQ4Ij5tb2RlbHM8L3RleHQ+PHRleHQgZmlsbD0iIzAwMDAwMCIgZm9udC1mYW1pbHk9InNhbnMtc2VyaWYiIGZvbnQtc2l6ZT0iMTQiIGxlbmd0aEFkanVzdD0ic3BhY2luZyIgdGV4dExlbmd0aD0iNjEiIHg9IjgwMi41IiB5PSI5MzUuNjc0OCI+LyBGYWNhZGU8L3RleHQ+PHRleHQgZmlsbD0iIzAwMDAwMCIgZm9udC1mYW1pbHk9InNhbnMtc2VyaWYiIGZvbnQtc2l6ZT0iMTQiIGxlbmd0aEFkanVzdD0ic3BhY2luZyIgdGV4dExlbmd0aD0iMTI4IiB4PSIxMDk3IiB5PSI4NC4xMjc5Ij5UaWdlckJlZXRsZSBDbGllbnQ8L3RleHQ+PGVsbGlwc2UgY3g9IjExNjQiIGN5PSI1NS4xMzI4IiBmaWxsPSIjRTJFMkYwIiByeD0iMTIiIHJ5PSIxMiIgc3R5bGU9InN0cm9rZTojMTgxODE4O3N0cm9rZS13aWR0aDowLjU7Ii8+PHBvbHlnb24gZmlsbD0iIzE4MTgxOCIgcG9pbnRzPSIxMTYwLDQzLjEzMjgsMTE2NiwzOC4xMzI4LDExNjQsNDMuMTMyOCwxMTY2LDQ4LjEzMjgsMTE2MCw0My4xMzI4IiBzdHlsZT0ic3Ryb2tlOiMxODE4MTg7c3Ryb2tlLXdpZHRoOjEuMDsiLz48dGV4dCBmaWxsPSIjMDAwMDAwIiBmb250LWZhbWlseT0ic2Fucy1zZXJpZiIgZm9udC1zaXplPSIxNCIgbGVuZ3RoQWRqdXN0PSJzcGFjaW5nIiB0ZXh0TGVuZ3RoPSIxMjgiIHg9IjEwOTciIHk9IjkyOC42NzQ4Ij5UaWdlckJlZXRsZSBDbGllbnQ8L3RleHQ+PGVsbGlwc2UgY3g9IjExNjQiIGN5PSI5NDcuOTc2NiIgZmlsbD0iI0UyRTJGMCIgcng9IjEyIiByeT0iMTIiIHN0eWxlPSJzdHJva2U6IzE4MTgxODtzdHJva2Utd2lkdGg6MC41OyIvPjxwb2x5Z29uIGZpbGw9IiMxODE4MTgiIHBvaW50cz0iMTE2MCw5MzUuOTc2NiwxMTY2LDkzMC45NzY2LDExNjQsOTM1Ljk3NjYsMTE2Niw5NDAuOTc2NiwxMTYwLDkzNS45NzY2IiBzdHlsZT0ic3Ryb2tlOiMxODE4MTg7c3Ryb2tlLXdpZHRoOjEuMDsiLz48cmVjdCBmaWxsPSIjRTJFMkYwIiBoZWlnaHQ9IjMwLjI5NjkiIHN0eWxlPSJzdHJva2U6IzE4MTgxODtzdHJva2Utd2lkdGg6MC41OyIgd2lkdGg9IjE1MSIgeD0iMTMxNC41IiB5PSI1Mi4xMzI4Ii8+PHJlY3QgZmlsbD0iI0UyRTJGMCIgaGVpZ2h0PSIzMC4yOTY5IiBzdHlsZT0ic3Ryb2tlOiMxODE4MTg7c3Ryb2tlLXdpZHRoOjAuNTsiIHdpZHRoPSIxNTEiIHg9IjEzMTAuNSIgeT0iNTYuMTMyOCIvPjx0ZXh0IGZpbGw9IiMwMDAwMDAiIGZvbnQtZmFtaWx5PSJzYW5zLXNlcmlmIiBmb250LXNpemU9IjE0IiBsZW5ndGhBZGp1c3Q9InNwYWNpbmciIHRleHRMZW5ndGg9IjEzNyIgeD0iMTMxNy41IiB5PSI3Ni4xMjc5Ij5UaWdlckJlZXRsZSBDbHVzdGVyPC90ZXh0PjxyZWN0IGZpbGw9IiNFMkUyRjAiIGhlaWdodD0iMzAuMjk2OSIgc3R5bGU9InN0cm9rZTojMTgxODE4O3N0cm9rZS13aWR0aDowLjU7IiB3aWR0aD0iMTUxIiB4PSIxMzE0LjUiIHk9IjkxNS42Nzk3Ii8+PHJlY3QgZmlsbD0iI0UyRTJGMCIgaGVpZ2h0PSIzMC4yOTY5IiBzdHlsZT0ic3Ryb2tlOiMxODE4MTg7c3Ryb2tlLXdpZHRoOjAuNTsiIHdpZHRoPSIxNTEiIHg9IjEzMTAuNSIgeT0iOTE5LjY3OTciLz48dGV4dCBmaWxsPSIjMDAwMDAwIiBmb250LWZhbWlseT0ic2Fucy1zZXJpZiIgZm9udC1zaXplPSIxNCIgbGVuZ3RoQWRqdXN0PSJzcGFjaW5nIiB0ZXh0TGVuZ3RoPSIxMzciIHg9IjEzMTcuNSIgeT0iOTM5LjY3NDgiPlRpZ2VyQmVldGxlIENsdXN0ZXI8L3RleHQ+PHRleHQgZmlsbD0iIzAwMDAwMCIgZm9udC1mYW1pbHk9InNhbnMtc2VyaWYiIGZvbnQtc2l6ZT0iMTQiIGxlbmd0aEFkanVzdD0ic3BhY2luZyIgdGV4dExlbmd0aD0iMTAxIiB4PSIxNDkyLjUiIHk9Ijg0LjEyNzkiPmNlbnRyYWwtbGVkZ2VyPC90ZXh0PjxwYXRoIGQ9Ik0xNTI4LDM1LjEzMjggQzE1MjgsMjUuMTMyOCAxNTQ2LDI1LjEzMjggMTU0NiwyNS4xMzI4IEMxNTQ2LDI1LjEzMjggMTU2NCwyNS4xMzI4IDE1NjQsMzUuMTMyOCBMMTU2NCw2MS4xMzI4IEMxNTY0LDcxLjEzMjggMTU0Niw3MS4xMzI4IDE1NDYsNzEuMTMyOCBDMTU0Niw3MS4xMzI4IDE1MjgsNzEuMTMyOCAxNTI4LDYxLjEzMjggTDE1MjgsMzUuMTMyOCAiIGZpbGw9IiNFMkUyRjAiIHN0eWxlPSJzdHJva2U6IzE4MTgxODtzdHJva2Utd2lkdGg6MS41OyIvPjxwYXRoIGQ9Ik0xNTI4LDM1LjEzMjggQzE1MjgsNDUuMTMyOCAxNTQ2LDQ1LjEzMjggMTU0Niw0NS4xMzI4IEMxNTQ2LDQ1LjEzMjggMTU2NCw0NS4xMzI4IDE1NjQsMzUuMTMyOCAiIGZpbGw9Im5vbmUiIHN0eWxlPSJzdHJva2U6IzE4MTgxODtzdHJva2Utd2lkdGg6MS41OyIvPjx0ZXh0IGZpbGw9IiMwMDAwMDAiIGZvbnQtZmFtaWx5PSJzYW5zLXNlcmlmIiBmb250LXNpemU9IjE0IiBsZW5ndGhBZGp1c3Q9InNwYWNpbmciIHRleHRMZW5ndGg9IjEwMSIgeD0iMTQ5Mi41IiB5PSI5MjguNjc0OCI+Y2VudHJhbC1sZWRnZXI8L3RleHQ+PHBhdGggZD0iTTE1MjgsOTQxLjk3NjYgQzE1MjgsOTMxLjk3NjYgMTU0Niw5MzEuOTc2NiAxNTQ2LDkzMS45NzY2IEMxNTQ2LDkzMS45NzY2IDE1NjQsOTMxLjk3NjYgMTU2NCw5NDEuOTc2NiBMMTU2NCw5NjcuOTc2NiBDMTU2NCw5NzcuOTc2NiAxNTQ2LDk3Ny45NzY2IDE1NDYsOTc3Ljk3NjYgQzE1NDYsOTc3Ljk3NjYgMTUyOCw5NzcuOTc2NiAxNTI4LDk2Ny45NzY2IEwxNTI4LDk0MS45NzY2ICIgZmlsbD0iI0UyRTJGMCIgc3R5bGU9InN0cm9rZTojMTgxODE4O3N0cm9rZS13aWR0aDoxLjU7Ii8+PHBhdGggZD0iTTE1MjgsOTQxLjk3NjYgQzE1MjgsOTUxLjk3NjYgMTU0Niw5NTEuOTc2NiAxNTQ2LDk1MS45NzY2IEMxNTQ2LDk1MS45NzY2IDE1NjQsOTUxLjk3NjYgMTU2NCw5NDEuOTc2NiAiIGZpbGw9Im5vbmUiIHN0eWxlPSJzdHJva2U6IzE4MTgxODtzdHJva2Utd2lkdGg6MS41OyIvPjx0ZXh0IGZpbGw9IiMwMDAwMDAiIGZvbnQtZmFtaWx5PSJzYW5zLXNlcmlmIiBmb250LXNpemU9IjE0IiBsZW5ndGhBZGp1c3Q9InNwYWNpbmciIHRleHRMZW5ndGg9IjM5IiB4PSIxNjA5LjUiIHk9Ijg0LjEyNzkiPlJlZGlzPC90ZXh0PjxwYXRoIGQ9Ik0xNjE0LDM1LjEzMjggQzE2MTQsMjUuMTMyOCAxNjMyLDI1LjEzMjggMTYzMiwyNS4xMzI4IEMxNjMyLDI1LjEzMjggMTY1MCwyNS4xMzI4IDE2NTAsMzUuMTMyOCBMMTY1MCw2MS4xMzI4IEMxNjUwLDcxLjEzMjggMTYzMiw3MS4xMzI4IDE2MzIsNzEuMTMyOCBDMTYzMiw3MS4xMzI4IDE2MTQsNzEuMTMyOCAxNjE0LDYxLjEzMjggTDE2MTQsMzUuMTMyOCAiIGZpbGw9IiNFMkUyRjAiIHN0eWxlPSJzdHJva2U6IzE4MTgxODtzdHJva2Utd2lkdGg6MS41OyIvPjxwYXRoIGQ9Ik0xNjE0LDM1LjEzMjggQzE2MTQsNDUuMTMyOCAxNjMyLDQ1LjEzMjggMTYzMiw0NS4xMzI4IEMxNjMyLDQ1LjEzMjggMTY1MCw0NS4xMzI4IDE2NTAsMzUuMTMyOCAiIGZpbGw9Im5vbmUiIHN0eWxlPSJzdHJva2U6IzE4MTgxODtzdHJva2Utd2lkdGg6MS41OyIvPjx0ZXh0IGZpbGw9IiMwMDAwMDAiIGZvbnQtZmFtaWx5PSJzYW5zLXNlcmlmIiBmb250LXNpemU9IjE0IiBsZW5ndGhBZGp1c3Q9InNwYWNpbmciIHRleHRMZW5ndGg9IjM5IiB4PSIxNjA5LjUiIHk9IjkyOC42NzQ4Ij5SZWRpczwvdGV4dD48cGF0aCBkPSJNMTYxNCw5NDEuOTc2NiBDMTYxNCw5MzEuOTc2NiAxNjMyLDkzMS45NzY2IDE2MzIsOTMxLjk3NjYgQzE2MzIsOTMxLjk3NjYgMTY1MCw5MzEuOTc2NiAxNjUwLDk0MS45NzY2IEwxNjUwLDk2Ny45NzY2IEMxNjUwLDk3Ny45NzY2IDE2MzIsOTc3Ljk3NjYgMTYzMiw5NzcuOTc2NiBDMTYzMiw5NzcuOTc2NiAxNjE0LDk3Ny45NzY2IDE2MTQsOTY3Ljk3NjYgTDE2MTQsOTQxLjk3NjYgIiBmaWxsPSIjRTJFMkYwIiBzdHlsZT0ic3Ryb2tlOiMxODE4MTg7c3Ryb2tlLXdpZHRoOjEuNTsiLz48cGF0aCBkPSJNMTYxNCw5NDEuOTc2NiBDMTYxNCw5NTEuOTc2NiAxNjMyLDk1MS45NzY2IDE2MzIsOTUxLjk3NjYgQzE2MzIsOTUxLjk3NjYgMTY1MCw5NTEuOTc2NiAxNjUwLDk0MS45NzY2ICIgZmlsbD0ibm9uZSIgc3R5bGU9InN0cm9rZTojMTgxODE4O3N0cm9rZS13aWR0aDoxLjU7Ii8+PHBhdGggZD0iTTksMTAyLjQyOTcgTDksMTQyLjQyOTcgTDE2MywxNDIuNDI5NyBMMTYzLDExMi40Mjk3IEwxNTMsMTAyLjQyOTcgTDksMTAyLjQyOTcgIiBmaWxsPSIjRkVGRkREIiBzdHlsZT0ic3Ryb2tlOiMxODE4MTg7c3Ryb2tlLXdpZHRoOjAuNTsiLz48cGF0aCBkPSJNMTUzLDEwMi40Mjk3IEwxNTMsMTEyLjQyOTcgTDE2MywxMTIuNDI5NyBMMTUzLDEwMi40Mjk3ICIgZmlsbD0iI0ZFRkZERCIgc3R5bGU9InN0cm9rZTojMTgxODE4O3N0cm9rZS13aWR0aDowLjU7Ii8+PGVsbGlwc2UgY3g9IjIwLjUiIGN5PSIxMTUuMDYyNSIgZmlsbD0iIzAwMDAwMCIgcng9IjIuNSIgcnk9IjIuNSIgc3R5bGU9InN0cm9rZTojMDAwMDAwO3N0cm9rZS13aWR0aDowLjA7Ii8+PHRleHQgZmlsbD0iIzAwMDAwMCIgZm9udC1mYW1pbHk9InNhbnMtc2VyaWYiIGZvbnQtc2l6ZT0iMTMiIGxlbmd0aEFkanVzdD0ic3BhY2luZyIgdGV4dExlbmd0aD0iMTIwIiB4PSIyOCIgeT0iMTE5LjQ5NjYiPlBhcnRpY2lwYW50IEJhbmsgQTwvdGV4dD48ZWxsaXBzZSBjeD0iMjAuNSIgY3k9IjEzMC4xOTUzIiBmaWxsPSIjMDAwMDAwIiByeD0iMi41IiByeT0iMi41IiBzdHlsZT0ic3Ryb2tlOiMwMDAwMDA7c3Ryb2tlLXdpZHRoOjAuMDsiLz48dGV4dCBmaWxsPSIjMDAwMDAwIiBmb250LWZhbWlseT0ic2Fucy1zZXJpZiIgZm9udC1zaXplPSIxMyIgbGVuZ3RoQWRqdXN0PSJzcGFjaW5nIiB0ZXh0TGVuZ3RoPSIxMjAiIHg9IjI4IiB5PSIxMzQuNjI5NCI+UGFydGljaXBhbnQgQmFuayBCPC90ZXh0PjxwYXRoIGQ9Ik0xNDcsMTUyLjY5NTMgTDE0NywxNzcuNjk1MyBMMzU2LDE3Ny42OTUzIEwzNTYsMTYyLjY5NTMgTDM0NiwxNTIuNjk1MyBMMTQ3LDE1Mi42OTUzICIgZmlsbD0iI0ZFRkZERCIgc3R5bGU9InN0cm9rZTojMTgxODE4O3N0cm9rZS13aWR0aDowLjU7Ii8+PHBhdGggZD0iTTM0NiwxNTIuNjk1MyBMMzQ2LDE2Mi42OTUzIEwzNTYsMTYyLjY5NTMgTDM0NiwxNTIuNjk1MyAiIGZpbGw9IiNGRUZGREQiIHN0eWxlPSJzdHJva2U6IzE4MTgxODtzdHJva2Utd2lkdGg6MC41OyIvPjx0ZXh0IGZpbGw9IiMwMDAwMDAiIGZvbnQtZmFtaWx5PSJzYW5zLXNlcmlmIiBmb250LXNpemU9IjEzIiBsZW5ndGhBZGp1c3Q9InNwYWNpbmciIHRleHRMZW5ndGg9IjE4OCIgeD0iMTUzIiB5PSIxNjkuNzYyMiI+UkVTVCBBUEkgZGVwbG95ZWQgaW4gTm9kZUpTPC90ZXh0PjxwYXRoIGQ9Ik0zNDksMTg3LjgyODEgTDM0OSwyMjcuODI4MSBMNTgzLDIyNy44MjgxIEw1ODMsMTk3LjgyODEgTDU3MywxODcuODI4MSBMMzQ5LDE4Ny44MjgxICIgZmlsbD0iI0ZFRkZERCIgc3R5bGU9InN0cm9rZTojMTgxODE4O3N0cm9rZS13aWR0aDowLjU7Ii8+PHBhdGggZD0iTTU3MywxODcuODI4MSBMNTczLDE5Ny44MjgxIEw1ODMsMTk3LjgyODEgTDU3MywxODcuODI4MSAiIGZpbGw9IiNGRUZGREQiIHN0eWxlPSJzdHJva2U6IzE4MTgxODtzdHJva2Utd2lkdGg6MC41OyIvPjx0ZXh0IGZpbGw9IiMwMDAwMDAiIGZvbnQtZmFtaWx5PSJzYW5zLXNlcmlmIiBmb250LXNpemU9IjEzIiBsZW5ndGhBZGp1c3Q9InNwYWNpbmciIHRleHRMZW5ndGg9IjE3MiIgeD0iMzU1IiB5PSIyMDQuODk1Ij5KU09OIHJlcXVlc3QgZGVjb2RlZCBhbmQ8L3RleHQ+PHRleHQgZmlsbD0iIzAwMDAwMCIgZm9udC1mYW1pbHk9InNhbnMtc2VyaWYiIGZvbnQtc2l6ZT0iMTMiIGxlbmd0aEFkanVzdD0ic3BhY2luZyIgdGV4dExlbmd0aD0iMjEzIiB4PSIzNTUiIHk9IjIyMC4wMjc4Ij5zZW50IGZvciBwcm9jZXNzaW5nIHZpYSBhIGhhbmRsZXI8L3RleHQ+PHBhdGggZD0iTTUzMSwyMzguMDkzOCBMNTMxLDI3OC4wOTM4IEw3NjUsMjc4LjA5MzggTDc2NSwyNDguMDkzOCBMNzU1LDIzOC4wOTM4IEw1MzEsMjM4LjA5MzggIiBmaWxsPSIjRkVGRkREIiBzdHlsZT0ic3Ryb2tlOiMxODE4MTg7c3Ryb2tlLXdpZHRoOjAuNTsiLz48cGF0aCBkPSJNNzU1LDIzOC4wOTM4IEw3NTUsMjQ4LjA5MzggTDc2NSwyNDguMDkzOCBMNzU1LDIzOC4wOTM4ICIgZmlsbD0iI0ZFRkZERCIgc3R5bGU9InN0cm9rZTojMTgxODE4O3N0cm9rZS13aWR0aDowLjU7Ii8+PHRleHQgZmlsbD0iIzAwMDAwMCIgZm9udC1mYW1pbHk9InNhbnMtc2VyaWYiIGZvbnQtc2l6ZT0iMTMiIGxlbmd0aEFkanVzdD0ic3BhY2luZyIgdGV4dExlbmd0aD0iMjEzIiB4PSI1MzciIHk9IjI1NS4xNjA2Ij5Eb21haW4gZm9sZGVyIHdoZXJlIHRoZSBzZXJ2aWNlPC90ZXh0Pjx0ZXh0IGZpbGw9IiMwMDAwMDAiIGZvbnQtZmFtaWx5PSJzYW5zLXNlcmlmIiBmb250LXNpemU9IjEzIiBsZW5ndGhBZGp1c3Q9InNwYWNpbmciIHRleHRMZW5ndGg9IjE0OCIgeD0iNTM3IiB5PSIyNzAuMjkzNSI+ZnVuY3Rpb25zIGFyZSBleHBvc2VkLjwvdGV4dD48cGF0aCBkPSJNNjY4LDI4OC4zNTk0IEw2NjgsMzI4LjM1OTQgTDk0MSwzMjguMzU5NCBMOTQxLDI5OC4zNTk0IEw5MzEsMjg4LjM1OTQgTDY2OCwyODguMzU5NCAiIGZpbGw9IiNGRUZGREQiIHN0eWxlPSJzdHJva2U6IzE4MTgxODtzdHJva2Utd2lkdGg6MC41OyIvPjxwYXRoIGQ9Ik05MzEsMjg4LjM1OTQgTDkzMSwyOTguMzU5NCBMOTQxLDI5OC4zNTk0IEw5MzEsMjg4LjM1OTQgIiBmaWxsPSIjRkVGRkREIiBzdHlsZT0ic3Ryb2tlOiMxODE4MTg7c3Ryb2tlLXdpZHRoOjAuNTsiLz48dGV4dCBmaWxsPSIjMDAwMDAwIiBmb250LWZhbWlseT0ic2Fucy1zZXJpZiIgZm9udC1zaXplPSIxMyIgbGVuZ3RoQWRqdXN0PSJzcGFjaW5nIiB0ZXh0TGVuZ3RoPSIyNTIiIHg9IjY3NCIgeT0iMzA1LjQyNjMiPkZhY2FkZSBmb3Igc3RvcmluZy9yZXRyaWV2aW5nIGRhdGEgZnJvbTwvdGV4dD48dGV4dCBmaWxsPSIjMDAwMDAwIiBmb250LWZhbWlseT0ic2Fucy1zZXJpZiIgZm9udC1zaXplPSIxMyIgbGVuZ3RoQWRqdXN0PSJzcGFjaW5nIiB0ZXh0TGVuZ3RoPSIxNTEiIHg9IjY3NCIgeT0iMzIwLjU1OTEiPk15U1FMIGFuZCBUaWdlckJlZXRsZTwvdGV4dD48cGF0aCBkPSJNMTAsMzQwLjYyNSBMMTg5LDM0MC42MjUgTDE4OSwzNDcuNzU3OCBMMTc5LDM1Ny43NTc4IEwxMCwzNTcuNzU3OCBMMTAsMzQwLjYyNSAiIGZpbGw9IiNFRUVFRUUiIHN0eWxlPSJzdHJva2U6IzAwMDAwMDtzdHJva2Utd2lkdGg6MS41OyIvPjxyZWN0IGZpbGw9Im5vbmUiIGhlaWdodD0iNTU5LjA1NDciIHN0eWxlPSJzdHJva2U6IzAwMDAwMDtzdHJva2Utd2lkdGg6MS41OyIgd2lkdGg9IjE1OTkuNSIgeD0iMTAiIHk9IjM0MC42MjUiLz48dGV4dCBmaWxsPSIjMDAwMDAwIiBmb250LWZhbWlseT0ic2Fucy1zZXJpZiIgZm9udC1zaXplPSIxMyIgZm9udC13ZWlnaHQ9ImJvbGQiIGxlbmd0aEFkanVzdD0ic3BhY2luZyIgdGV4dExlbmd0aD0iMTM0IiB4PSIyNSIgeT0iMzUzLjY5MTkiPkNyZWF0ZSBQYXJ0aWNpcGFudDwvdGV4dD48cG9seWdvbiBmaWxsPSIjMTgxODE4IiBwb2ludHM9IjI0MCwzOTAuMDIzNCwyNTAsMzk0LjAyMzQsMjQwLDM5OC4wMjM0LDI0NCwzOTQuMDIzNCIgc3R5bGU9InN0cm9rZTojMTgxODE4O3N0cm9rZS13aWR0aDoxLjA7Ii8+PGxpbmUgc3R5bGU9InN0cm9rZTojMTgxODE4O3N0cm9rZS13aWR0aDoxLjA7IiB4MT0iODYiIHgyPSIyNDYiIHkxPSIzOTQuMDIzNCIgeTI9IjM5NC4wMjM0Ii8+PHRleHQgZmlsbD0iIzAwMDAwMCIgZm9udC1mYW1pbHk9InNhbnMtc2VyaWYiIGZvbnQtc2l6ZT0iMTMiIGZvbnQtd2VpZ2h0PSJib2xkIiBsZW5ndGhBZGp1c3Q9InNwYWNpbmciIHRleHRMZW5ndGg9IjkiIHg9IjkzIiB5PSIzODEuMzkxMSI+MTwvdGV4dD48dGV4dCBmaWxsPSIjMDAwMDAwIiBmb250LWZhbWlseT0ic2Fucy1zZXJpZiIgZm9udC1zaXplPSIxMyIgZm9udC1zdHlsZT0iaXRhbGljIiBsZW5ndGhBZGp1c3Q9InNwYWNpbmciIHRleHRMZW5ndGg9IjMyIiB4PSIxMDYiIHk9IjM3My44MjQ3Ij5KU09OPC90ZXh0Pjx0ZXh0IGZpbGw9IiMwMDAwMDAiIGZvbnQtZmFtaWx5PSJzYW5zLXNlcmlmIiBmb250LXNpemU9IjEzIiBsZW5ndGhBZGp1c3Q9InNwYWNpbmciIHRleHRMZW5ndGg9IjQiIHg9IjEzOCIgeT0iMzczLjgyNDciPsKgPC90ZXh0Pjx0ZXh0IGZpbGw9IiMwMDAwMDAiIGZvbnQtZmFtaWx5PSJzYW5zLXNlcmlmIiBmb250LXNpemU9IjEzIiBmb250LXdlaWdodD0iYm9sZCIgbGVuZ3RoQWRqdXN0PSJzcGFjaW5nIiB0ZXh0TGVuZ3RoPSIxMjkiIHg9IjEwNiIgeT0iMzg4Ljk1NzUiPihwYXJ0aWNpcGFudCBkYXRhKTwvdGV4dD48cG9seWdvbiBmaWxsPSIjMTgxODE4IiBwb2ludHM9IjQ1NCw0MzQuMjg5MSw0NjQsNDM4LjI4OTEsNDU0LDQ0Mi4yODkxLDQ1OCw0MzguMjg5MSIgc3R5bGU9InN0cm9rZTojMTgxODE4O3N0cm9rZS13aWR0aDoxLjA7Ii8+PGxpbmUgc3R5bGU9InN0cm9rZTojMTgxODE4O3N0cm9rZS13aWR0aDoxLjA7IiB4MT0iMjUyIiB4Mj0iNDYwIiB5MT0iNDM4LjI4OTEiIHkyPSI0MzguMjg5MSIvPjx0ZXh0IGZpbGw9IiMwMDAwMDAiIGZvbnQtZmFtaWx5PSJzYW5zLXNlcmlmIiBmb250LXNpemU9IjEzIiBmb250LXdlaWdodD0iYm9sZCIgbGVuZ3RoQWRqdXN0PSJzcGFjaW5nIiB0ZXh0TGVuZ3RoPSI5IiB4PSIyNTkiIHk9IjQyNS42NTY3Ij4yPC90ZXh0Pjx0ZXh0IGZpbGw9IiMwMDAwMDAiIGZvbnQtZmFtaWx5PSJzYW5zLXNlcmlmIiBmb250LXNpemU9IjEzIiBmb250LXN0eWxlPSJpdGFsaWMiIGxlbmd0aEFkanVzdD0ic3BhY2luZyIgdGV4dExlbmd0aD0iMTczIiB4PSIyNzIiIHk9IjQxOC4wOTAzIj4vam1ldGVyL3BhcnRpY2lwYW50cy9jcmVhdGU8L3RleHQ+PHRleHQgZmlsbD0iIzAwMDAwMCIgZm9udC1mYW1pbHk9InNhbnMtc2VyaWYiIGZvbnQtc2l6ZT0iMTMiIGxlbmd0aEFkanVzdD0ic3BhY2luZyIgdGV4dExlbmd0aD0iNCIgeD0iNDQ1IiB5PSI0MTguMDkwMyI+wqA8L3RleHQ+PHRleHQgZmlsbD0iIzAwMDAwMCIgZm9udC1mYW1pbHk9InNhbnMtc2VyaWYiIGZvbnQtc2l6ZT0iMTMiIGxlbmd0aEFkanVzdD0ic3BhY2luZyIgdGV4dExlbmd0aD0iMTExIiB4PSIyNzIiIHk9IjQzMy4yMjMxIj5IYW5kbGVyIGludm9rZWQuPC90ZXh0Pjxwb2x5Z29uIGZpbGw9IiMxODE4MTgiIHBvaW50cz0iNjM2LDQ2My40MjE5LDY0Niw0NjcuNDIxOSw2MzYsNDcxLjQyMTksNjQwLDQ2Ny40MjE5IiBzdHlsZT0ic3Ryb2tlOiMxODE4MTg7c3Ryb2tlLXdpZHRoOjEuMDsiLz48bGluZSBzdHlsZT0ic3Ryb2tlOiMxODE4MTg7c3Ryb2tlLXdpZHRoOjEuMDsiIHgxPSI0NjYiIHgyPSI2NDIiIHkxPSI0NjcuNDIxOSIgeTI9IjQ2Ny40MjE5Ii8+PHRleHQgZmlsbD0iIzAwMDAwMCIgZm9udC1mYW1pbHk9InNhbnMtc2VyaWYiIGZvbnQtc2l6ZT0iMTMiIGZvbnQtd2VpZ2h0PSJib2xkIiBsZW5ndGhBZGp1c3Q9InNwYWNpbmciIHRleHRMZW5ndGg9IjkiIHg9IjQ3MyIgeT0iNDYyLjM1NiI+MzwvdGV4dD48dGV4dCBmaWxsPSIjMDAwMDAwIiBmb250LWZhbWlseT0ic2Fucy1zZXJpZiIgZm9udC1zaXplPSIxMyIgbGVuZ3RoQWRqdXN0PSJzcGFjaW5nIiB0ZXh0TGVuZ3RoPSIxNDUiIHg9IjQ4NiIgeT0iNDYyLjM1NiI+U2VydmljZSBsYXllciBpbnZva2VkLjwvdGV4dD48cG9seWdvbiBmaWxsPSIjMTgxODE4IiBwb2ludHM9Ijc5Myw0OTIuNTU0Nyw4MDMsNDk2LjU1NDcsNzkzLDUwMC41NTQ3LDc5Nyw0OTYuNTU0NyIgc3R5bGU9InN0cm9rZTojMTgxODE4O3N0cm9rZS13aWR0aDoxLjA7Ii8+PGxpbmUgc3R5bGU9InN0cm9rZTojMTgxODE4O3N0cm9rZS13aWR0aDoxLjA7IiB4MT0iNjQ4IiB4Mj0iNzk5IiB5MT0iNDk2LjU1NDciIHkyPSI0OTYuNTU0NyIvPjx0ZXh0IGZpbGw9IiMwMDAwMDAiIGZvbnQtZmFtaWx5PSJzYW5zLXNlcmlmIiBmb250LXNpemU9IjEzIiBmb250LXdlaWdodD0iYm9sZCIgbGVuZ3RoQWRqdXN0PSJzcGFjaW5nIiB0ZXh0TGVuZ3RoPSI5IiB4PSI2NTUiIHk9IjQ5MS40ODg4Ij40PC90ZXh0Pjx0ZXh0IGZpbGw9IiMwMDAwMDAiIGZvbnQtZmFtaWx5PSJzYW5zLXNlcmlmIiBmb250LXNpemU9IjEzIiBsZW5ndGhBZGp1c3Q9InNwYWNpbmciIHRleHRMZW5ndGg9IjEyMCIgeD0iNjY4IiB5PSI0OTEuNDg4OCI+RG9tYWluIHRvIGZhY2FkZS48L3RleHQ+PHBvbHlnb24gZmlsbD0iIzE4MTgxOCIgcG9pbnRzPSIxNTM0LDU4Mi4yMTg4LDE1NDQsNTg2LjIxODgsMTUzNCw1OTAuMjE4OCwxNTM4LDU4Ni4yMTg4IiBzdHlsZT0ic3Ryb2tlOiMxODE4MTg7c3Ryb2tlLXdpZHRoOjEuMDsiLz48bGluZSBzdHlsZT0ic3Ryb2tlOiMxODE4MTg7c3Ryb2tlLXdpZHRoOjEuMDsiIHgxPSI4MDUiIHgyPSIxNTQwIiB5MT0iNTg2LjIxODgiIHkyPSI1ODYuMjE4OCIvPjx0ZXh0IGZpbGw9IiMwMDAwMDAiIGZvbnQtZmFtaWx5PSJzYW5zLXNlcmlmIiBmb250LXNpemU9IjEzIiBmb250LXdlaWdodD0iYm9sZCIgbGVuZ3RoQWRqdXN0PSJzcGFjaW5nIiB0ZXh0TGVuZ3RoPSI5IiB4PSI4MTIiIHk9IjU1MC44ODcyIj41PC90ZXh0Pjx0ZXh0IGZpbGw9IiMwMDAwMDAiIGZvbnQtZmFtaWx5PSJzYW5zLXNlcmlmIiBmb250LXNpemU9IjEzIiBmb250LXdlaWdodD0iYm9sZCIgbGVuZ3RoQWRqdXN0PSJzcGFjaW5nIiB0ZXh0TGVuZ3RoPSI2MSIgeD0iODI1IiB5PSI1MjAuNjIxNiI+W0FTWU5DXTwvdGV4dD48ZWxsaXBzZSBjeD0iODMwLjUiIGN5PSI1MzEuMzIwMyIgZmlsbD0iIzAwMDAwMCIgcng9IjIuNSIgcnk9IjIuNSIgc3R5bGU9InN0cm9rZTojMDAwMDAwO3N0cm9rZS13aWR0aDowLjA7Ii8+PHRleHQgZmlsbD0iIzAwMDAwMCIgZm9udC1mYW1pbHk9InNhbnMtc2VyaWYiIGZvbnQtc2l6ZT0iMTMiIGZvbnQtc3R5bGU9Iml0YWxpYyIgbGVuZ3RoQWRqdXN0PSJzcGFjaW5nIiB0ZXh0TGVuZ3RoPSI3MCIgeD0iODM4IiB5PSI1MzUuNzU0NCI+cGFydGljaXBhbnQ8L3RleHQ+PHRleHQgZmlsbD0iIzAwMDAwMCIgZm9udC1mYW1pbHk9InNhbnMtc2VyaWYiIGZvbnQtc2l6ZT0iMTMiIGxlbmd0aEFkanVzdD0ic3BhY2luZyIgdGV4dExlbmd0aD0iNCIgeD0iOTA4IiB5PSI1MzUuNzU0NCI+LDwvdGV4dD48ZWxsaXBzZSBjeD0iODMwLjUiIGN5PSI1NDYuNDUzMSIgZmlsbD0iIzAwMDAwMCIgcng9IjIuNSIgcnk9IjIuNSIgc3R5bGU9InN0cm9rZTojMDAwMDAwO3N0cm9rZS13aWR0aDowLjA7Ii8+PHRleHQgZmlsbD0iIzAwMDAwMCIgZm9udC1mYW1pbHk9InNhbnMtc2VyaWYiIGZvbnQtc2l6ZT0iMTMiIGZvbnQtc3R5bGU9Iml0YWxpYyIgbGVuZ3RoQWRqdXN0PSJzcGFjaW5nIiB0ZXh0TGVuZ3RoPSIxMjgiIHg9IjgzOCIgeT0iNTUwLjg4NzIiPnBhcnRpY2lwYW50Q3VycmVuY3k8L3RleHQ+PHRleHQgZmlsbD0iIzAwMDAwMCIgZm9udC1mYW1pbHk9InNhbnMtc2VyaWYiIGZvbnQtc2l6ZT0iMTMiIGxlbmd0aEFkanVzdD0ic3BhY2luZyIgdGV4dExlbmd0aD0iNCIgeD0iOTY2IiB5PSI1NTAuODg3MiI+LDwvdGV4dD48ZWxsaXBzZSBjeD0iODMwLjUiIGN5PSI1NjEuNTg1OSIgZmlsbD0iIzAwMDAwMCIgcng9IjIuNSIgcnk9IjIuNSIgc3R5bGU9InN0cm9rZTojMDAwMDAwO3N0cm9rZS13aWR0aDowLjA7Ii8+PHRleHQgZmlsbD0iIzAwMDAwMCIgZm9udC1mYW1pbHk9InNhbnMtc2VyaWYiIGZvbnQtc2l6ZT0iMTMiIGZvbnQtc3R5bGU9Iml0YWxpYyIgbGVuZ3RoQWRqdXN0PSJzcGFjaW5nIiB0ZXh0TGVuZ3RoPSIxMjIiIHg9IjgzOCIgeT0iNTY2LjAyIj5wYXJ0aWNpcGFudFBvc2l0aW9uPC90ZXh0Pjx0ZXh0IGZpbGw9IiMwMDAwMDAiIGZvbnQtZmFtaWx5PSJzYW5zLXNlcmlmIiBmb250LXNpemU9IjEzIiBsZW5ndGhBZGp1c3Q9InNwYWNpbmciIHRleHRMZW5ndGg9IjEyOCIgeD0iODI5IiB5PSI1ODEuMTUyOCI+REIgcmVjb3JkcyBjcmVhdGVkLjwvdGV4dD48cG9seWdvbiBmaWxsPSIjMTgxODE4IiBwb2ludHM9IjExNTIsNjExLjM1MTYsMTE2Miw2MTUuMzUxNiwxMTUyLDYxOS4zNTE2LDExNTYsNjE1LjM1MTYiIHN0eWxlPSJzdHJva2U6IzE4MTgxODtzdHJva2Utd2lkdGg6MS4wOyIvPjxsaW5lIHN0eWxlPSJzdHJva2U6IzE4MTgxODtzdHJva2Utd2lkdGg6MS4wOyIgeDE9IjgwNSIgeDI9IjExNTgiIHkxPSI2MTUuMzUxNiIgeTI9IjYxNS4zNTE2Ii8+PHRleHQgZmlsbD0iIzAwMDAwMCIgZm9udC1mYW1pbHk9InNhbnMtc2VyaWYiIGZvbnQtc2l6ZT0iMTMiIGZvbnQtd2VpZ2h0PSJib2xkIiBsZW5ndGhBZGp1c3Q9InNwYWNpbmciIHRleHRMZW5ndGg9IjkiIHg9IjgxMiIgeT0iNjEwLjI4NTYiPjY8L3RleHQ+PHRleHQgZmlsbD0iIzAwMDAwMCIgZm9udC1mYW1pbHk9InNhbnMtc2VyaWYiIGZvbnQtc2l6ZT0iMTMiIGZvbnQtc3R5bGU9Iml0YWxpYyIgbGVuZ3RoQWRqdXN0PSJzcGFjaW5nIiB0ZXh0TGVuZ3RoPSI1MSIgeD0iODI1IiB5PSI2MTAuMjg1NiI+YWNjb3VudDwvdGV4dD48dGV4dCBmaWxsPSIjMDAwMDAwIiBmb250LWZhbWlseT0ic2Fucy1zZXJpZiIgZm9udC1zaXplPSIxMyIgbGVuZ3RoQWRqdXN0PSJzcGFjaW5nIiB0ZXh0TGVuZ3RoPSIyNjciIHg9Ijg4MCIgeT0iNjEwLjI4NTYiPmNyZWF0ZSByZXF1ZXN0ZWQgdmlhIHRoZSBDTC1UQiBpbnRlcmZhY2UuPC90ZXh0Pjxwb2x5Z29uIGZpbGw9IiMxODE4MTgiIHBvaW50cz0iMTM3Niw2NTUuNjE3MiwxMzg2LDY1OS42MTcyLDEzNzYsNjYzLjYxNzIsMTM4MCw2NTkuNjE3MiIgc3R5bGU9InN0cm9rZTojMTgxODE4O3N0cm9rZS13aWR0aDoxLjA7Ii8+PGxpbmUgc3R5bGU9InN0cm9rZTojMTgxODE4O3N0cm9rZS13aWR0aDoxLjA7IiB4MT0iMTE2NCIgeDI9IjEzODIiIHkxPSI2NTkuNjE3MiIgeTI9IjY1OS42MTcyIi8+PHRleHQgZmlsbD0iIzAwMDAwMCIgZm9udC1mYW1pbHk9InNhbnMtc2VyaWYiIGZvbnQtc2l6ZT0iMTMiIGZvbnQtd2VpZ2h0PSJib2xkIiBsZW5ndGhBZGp1c3Q9InNwYWNpbmciIHRleHRMZW5ndGg9IjkiIHg9IjExNzEiIHk9IjY0Ni45ODQ5Ij43PC90ZXh0Pjx0ZXh0IGZpbGw9IiMwMDAwMDAiIGZvbnQtZmFtaWx5PSJzYW5zLXNlcmlmIiBmb250LXNpemU9IjEzIiBmb250LXN0eWxlPSJpdGFsaWMiIGxlbmd0aEFkanVzdD0ic3BhY2luZyIgdGV4dExlbmd0aD0iNTEiIHg9IjExODQiIHk9IjYzOS40MTg1Ij5hY2NvdW50PC90ZXh0Pjx0ZXh0IGZpbGw9IiMwMDAwMDAiIGZvbnQtZmFtaWx5PSJzYW5zLXNlcmlmIiBmb250LXNpemU9IjEzIiBsZW5ndGhBZGp1c3Q9InNwYWNpbmciIHRleHRMZW5ndGg9IjEzMiIgeD0iMTIzOSIgeT0iNjM5LjQxODUiPkRpc3RyaWJ1dGVkIHRvIG5vZGVzPC90ZXh0Pjx0ZXh0IGZpbGw9IiMwMDAwMDAiIGZvbnQtZmFtaWx5PSJzYW5zLXNlcmlmIiBmb250LXNpemU9IjEzIiBsZW5ndGhBZGp1c3Q9InNwYWNpbmciIHRleHRMZW5ndGg9IjE0NiIgeD0iMTE4OCIgeT0iNjU0LjU1MTMiPnZpYSB0aGUgc3RhdGUgbWFjaGluZS48L3RleHQ+PGxpbmUgc3R5bGU9InN0cm9rZTojMTgxODE4O3N0cm9rZS13aWR0aDoxLjA7IiB4MT0iMTM4OCIgeDI9IjE0MzAiIHkxPSI2ODguNzUiIHkyPSI2ODguNzUiLz48bGluZSBzdHlsZT0ic3Ryb2tlOiMxODE4MTg7c3Ryb2tlLXdpZHRoOjEuMDsiIHgxPSIxNDMwIiB4Mj0iMTQzMCIgeTE9IjY4OC43NSIgeTI9IjcwMS43NSIvPjxsaW5lIHN0eWxlPSJzdHJva2U6IzE4MTgxODtzdHJva2Utd2lkdGg6MS4wOyIgeDE9IjEzODkiIHgyPSIxNDMwIiB5MT0iNzAxLjc1IiB5Mj0iNzAxLjc1Ii8+PHBvbHlnb24gZmlsbD0iIzE4MTgxOCIgcG9pbnRzPSIxMzk5LDY5Ny43NSwxMzg5LDcwMS43NSwxMzk5LDcwNS43NSwxMzk1LDcwMS43NSIgc3R5bGU9InN0cm9rZTojMTgxODE4O3N0cm9rZS13aWR0aDoxLjA7Ii8+PHRleHQgZmlsbD0iIzAwMDAwMCIgZm9udC1mYW1pbHk9InNhbnMtc2VyaWYiIGZvbnQtc2l6ZT0iMTMiIGZvbnQtd2VpZ2h0PSJib2xkIiBsZW5ndGhBZGp1c3Q9InNwYWNpbmciIHRleHRMZW5ndGg9IjkiIHg9IjEzOTUiIHk9IjY4My42ODQxIj44PC90ZXh0Pjx0ZXh0IGZpbGw9IiMwMDAwMDAiIGZvbnQtZmFtaWx5PSJzYW5zLXNlcmlmIiBmb250LXNpemU9IjEzIiBsZW5ndGhBZGp1c3Q9InNwYWNpbmciIHRleHRMZW5ndGg9IjEzMSIgeD0iMTQwOCIgeT0iNjgzLjY4NDEiPlJlcGxpY2F0aW9uIHZpYSBWU1IuPC90ZXh0Pjxwb2x5Z29uIGZpbGw9IiMxODE4MTgiIHBvaW50cz0iODE2LDcyNi44ODI4LDgwNiw3MzAuODgyOCw4MTYsNzM0Ljg4MjgsODEyLDczMC44ODI4IiBzdHlsZT0ic3Ryb2tlOiMxODE4MTg7c3Ryb2tlLXdpZHRoOjEuMDsiLz48bGluZSBzdHlsZT0ic3Ryb2tlOiMxODE4MTg7c3Ryb2tlLXdpZHRoOjEuMDtzdHJva2UtZGFzaGFycmF5OjIuMCwyLjA7IiB4MT0iODEwIiB4Mj0iMTE2MyIgeTE9IjczMC44ODI4IiB5Mj0iNzMwLjg4MjgiLz48dGV4dCBmaWxsPSIjMDAwMDAwIiBmb250LWZhbWlseT0ic2Fucy1zZXJpZiIgZm9udC1zaXplPSIxMyIgZm9udC13ZWlnaHQ9ImJvbGQiIGxlbmd0aEFkanVzdD0ic3BhY2luZyIgdGV4dExlbmd0aD0iOSIgeD0iODIyIiB5PSI3MjUuODE2OSI+OTwvdGV4dD48dGV4dCBmaWxsPSIjMDAwMDAwIiBmb250LWZhbWlseT0ic2Fucy1zZXJpZiIgZm9udC1zaXplPSIxMyIgZm9udC1zdHlsZT0iaXRhbGljIiBsZW5ndGhBZGp1c3Q9InNwYWNpbmciIHRleHRMZW5ndGg9IjUxIiB4PSI4MzUiIHk9IjcyNS44MTY5Ij5hY2NvdW50PC90ZXh0Pjx0ZXh0IGZpbGw9IiMwMDAwMDAiIGZvbnQtZmFtaWx5PSJzYW5zLXNlcmlmIiBmb250LXNpemU9IjEzIiBsZW5ndGhBZGp1c3Q9InNwYWNpbmciIHRleHRMZW5ndGg9Ijc2IiB4PSI4OTAiIHk9IjcyNS44MTY5Ij5jcmVhdGUgZXJyb3I8L3RleHQ+PHRleHQgZmlsbD0iIzAwMDAwMCIgZm9udC1mYW1pbHk9InNhbnMtc2VyaWYiIGZvbnQtc2l6ZT0iMTMiIGZvbnQtd2VpZ2h0PSJib2xkIiBsZW5ndGhBZGp1c3Q9InNwYWNpbmciIHRleHRMZW5ndGg9IjQ4IiB4PSI5NzAiIHk9IjcyNS44MTY5Ij4obm9uZSk8L3RleHQ+PHBvbHlnb24gZmlsbD0iIzE4MTgxOCIgcG9pbnRzPSI4MTYsNzcxLjE0ODQsODA2LDc3NS4xNDg0LDgxNiw3NzkuMTQ4NCw4MTIsNzc1LjE0ODQiIHN0eWxlPSJzdHJva2U6IzE4MTgxODtzdHJva2Utd2lkdGg6MS4wOyIvPjxwb2x5Z29uIGZpbGw9IiMxODE4MTgiIHBvaW50cz0iMTUzNCw3NzEuMTQ4NCwxNTQ0LDc3NS4xNDg0LDE1MzQsNzc5LjE0ODQsMTUzOCw3NzUuMTQ4NCIgc3R5bGU9InN0cm9rZTojMTgxODE4O3N0cm9rZS13aWR0aDoxLjA7Ii8+PGxpbmUgc3R5bGU9InN0cm9rZTojMTgxODE4O3N0cm9rZS13aWR0aDoxLjA7c3Ryb2tlLWRhc2hhcnJheToyLjAsMi4wOyIgeDE9IjgxMCIgeDI9IjE1NDAiIHkxPSI3NzUuMTQ4NCIgeTI9Ijc3NS4xNDg0Ii8+PHRleHQgZmlsbD0iIzAwMDAwMCIgZm9udC1mYW1pbHk9InNhbnMtc2VyaWYiIGZvbnQtc2l6ZT0iMTMiIGZvbnQtd2VpZ2h0PSJib2xkIiBsZW5ndGhBZGp1c3Q9InNwYWNpbmciIHRleHRMZW5ndGg9IjE4IiB4PSI4MjIiIHk9Ijc2Mi41MTYxIj4xMDwvdGV4dD48dGV4dCBmaWxsPSIjMDAwMDAwIiBmb250LWZhbWlseT0ic2Fucy1zZXJpZiIgZm9udC1zaXplPSIxMyIgZm9udC13ZWlnaHQ9ImJvbGQiIGxlbmd0aEFkanVzdD0ic3BhY2luZyIgdGV4dExlbmd0aD0iNjEiIHg9Ijg0NCIgeT0iNzU0Ljk0OTciPltBU1lOQ108L3RleHQ+PHRleHQgZmlsbD0iIzAwMDAwMCIgZm9udC1mYW1pbHk9InNhbnMtc2VyaWYiIGZvbnQtc2l6ZT0iMTMiIGxlbmd0aEFkanVzdD0ic3BhY2luZyIgdGV4dExlbmd0aD0iMjE4IiB4PSI4NDgiIHk9Ijc3MC4wODI1Ij5EYXRhYmFzZSB0cmFuc2FjdGlvbiBjb21taXR0ZWQuPC90ZXh0Pjxwb2x5Z29uIGZpbGw9IiMxODE4MTgiIHBvaW50cz0iNjU5LDgwMC4yODEzLDY0OSw4MDQuMjgxMyw2NTksODA4LjI4MTMsNjU1LDgwNC4yODEzIiBzdHlsZT0ic3Ryb2tlOiMxODE4MTg7c3Ryb2tlLXdpZHRoOjEuMDsiLz48bGluZSBzdHlsZT0ic3Ryb2tlOiMxODE4MTg7c3Ryb2tlLXdpZHRoOjEuMDtzdHJva2UtZGFzaGFycmF5OjIuMCwyLjA7IiB4MT0iNjUzIiB4Mj0iODA0IiB5MT0iODA0LjI4MTMiIHkyPSI4MDQuMjgxMyIvPjx0ZXh0IGZpbGw9IiMwMDAwMDAiIGZvbnQtZmFtaWx5PSJzYW5zLXNlcmlmIiBmb250LXNpemU9IjEzIiBmb250LXdlaWdodD0iYm9sZCIgbGVuZ3RoQWRqdXN0PSJzcGFjaW5nIiB0ZXh0TGVuZ3RoPSIxOCIgeD0iNjY1IiB5PSI3OTkuMjE1MyI+MTE8L3RleHQ+PHRleHQgZmlsbD0iIzAwMDAwMCIgZm9udC1mYW1pbHk9InNhbnMtc2VyaWYiIGZvbnQtc2l6ZT0iMTMiIGxlbmd0aEFkanVzdD0ic3BhY2luZyIgdGV4dExlbmd0aD0iODgiIHg9IjY4NyIgeT0iNzk5LjIxNTMiPlJldHVybiByZXN1bHQuPC90ZXh0Pjxwb2x5Z29uIGZpbGw9IiMxODE4MTgiIHBvaW50cz0iNDc3LDgyOS40MTQxLDQ2Nyw4MzMuNDE0MSw0NzcsODM3LjQxNDEsNDczLDgzMy40MTQxIiBzdHlsZT0ic3Ryb2tlOiMxODE4MTg7c3Ryb2tlLXdpZHRoOjEuMDsiLz48bGluZSBzdHlsZT0ic3Ryb2tlOiMxODE4MTg7c3Ryb2tlLXdpZHRoOjEuMDtzdHJva2UtZGFzaGFycmF5OjIuMCwyLjA7IiB4MT0iNDcxIiB4Mj0iNjQ3IiB5MT0iODMzLjQxNDEiIHkyPSI4MzMuNDE0MSIvPjx0ZXh0IGZpbGw9IiMwMDAwMDAiIGZvbnQtZmFtaWx5PSJzYW5zLXNlcmlmIiBmb250LXNpemU9IjEzIiBmb250LXdlaWdodD0iYm9sZCIgbGVuZ3RoQWRqdXN0PSJzcGFjaW5nIiB0ZXh0TGVuZ3RoPSIxOCIgeD0iNDgzIiB5PSI4MjguMzQ4MSI+MTI8L3RleHQ+PHRleHQgZmlsbD0iIzAwMDAwMCIgZm9udC1mYW1pbHk9InNhbnMtc2VyaWYiIGZvbnQtc2l6ZT0iMTMiIGxlbmd0aEFkanVzdD0ic3BhY2luZyIgdGV4dExlbmd0aD0iODgiIHg9IjUwNSIgeT0iODI4LjM0ODEiPlJldHVybiByZXN1bHQuPC90ZXh0Pjxwb2x5Z29uIGZpbGw9IiMxODE4MTgiIHBvaW50cz0iMjYzLDg1OC41NDY5LDI1Myw4NjIuNTQ2OSwyNjMsODY2LjU0NjksMjU5LDg2Mi41NDY5IiBzdHlsZT0ic3Ryb2tlOiMxODE4MTg7c3Ryb2tlLXdpZHRoOjEuMDsiLz48bGluZSBzdHlsZT0ic3Ryb2tlOiMxODE4MTg7c3Ryb2tlLXdpZHRoOjEuMDtzdHJva2UtZGFzaGFycmF5OjIuMCwyLjA7IiB4MT0iMjU3IiB4Mj0iNDY1IiB5MT0iODYyLjU0NjkiIHkyPSI4NjIuNTQ2OSIvPjx0ZXh0IGZpbGw9IiMwMDAwMDAiIGZvbnQtZmFtaWx5PSJzYW5zLXNlcmlmIiBmb250LXNpemU9IjEzIiBmb250LXdlaWdodD0iYm9sZCIgbGVuZ3RoQWRqdXN0PSJzcGFjaW5nIiB0ZXh0TGVuZ3RoPSIxOCIgeD0iMjY5IiB5PSI4NTcuNDgxIj4xMzwvdGV4dD48dGV4dCBmaWxsPSIjMDAwMDAwIiBmb250LWZhbWlseT0ic2Fucy1zZXJpZiIgZm9udC1zaXplPSIxMyIgbGVuZ3RoQWRqdXN0PSJzcGFjaW5nIiB0ZXh0TGVuZ3RoPSI4OCIgeD0iMjkxIiB5PSI4NTcuNDgxIj5SZXR1cm4gcmVzdWx0LjwvdGV4dD48cG9seWdvbiBmaWxsPSIjMTgxODE4IiBwb2ludHM9Ijk3LDg4Ny42Nzk3LDg3LDg5MS42Nzk3LDk3LDg5NS42Nzk3LDkzLDg5MS42Nzk3IiBzdHlsZT0ic3Ryb2tlOiMxODE4MTg7c3Ryb2tlLXdpZHRoOjEuMDsiLz48bGluZSBzdHlsZT0ic3Ryb2tlOiMxODE4MTg7c3Ryb2tlLXdpZHRoOjEuMDtzdHJva2UtZGFzaGFycmF5OjIuMCwyLjA7IiB4MT0iOTEiIHgyPSIyNTEiIHkxPSI4OTEuNjc5NyIgeTI9Ijg5MS42Nzk3Ii8+PHRleHQgZmlsbD0iIzAwMDAwMCIgZm9udC1mYW1pbHk9InNhbnMtc2VyaWYiIGZvbnQtc2l6ZT0iMTMiIGZvbnQtd2VpZ2h0PSJib2xkIiBsZW5ndGhBZGp1c3Q9InNwYWNpbmciIHRleHRMZW5ndGg9IjE4IiB4PSIxMDMiIHk9Ijg4Ni42MTM4Ij4xNDwvdGV4dD48dGV4dCBmaWxsPSIjMDAwMDAwIiBmb250LWZhbWlseT0ic2Fucy1zZXJpZiIgZm9udC1zaXplPSIxMyIgbGVuZ3RoQWRqdXN0PSJzcGFjaW5nIiB0ZXh0TGVuZ3RoPSI4OCIgeD0iMTI1IiB5PSI4ODYuNjEzOCI+UmV0dXJuIHJlc3VsdC48L3RleHQ+PCEtLU1ENT1bZmYxZDM3MTc0MDA5NWQwOTk3OWE3MWJkNmM3ZGZmNjldJiN4YTtAc3RhcnR1bWwmI3hhOyYjeGE7YWN0b3IgIk1vamFsb29wIEFkYXB0ZXIiIGFzIGRmc3AmI3hhO25vdGUgb3ZlciBkZnNwJiN4YTsgICAgKiBQYXJ0aWNpcGFudCBCYW5rIEEmI3hhOyAgICAqIFBhcnRpY2lwYW50IEJhbmsgQiYjeGE7ZW5kIG5vdGUmI3hhOyYjeGE7Ym94IENlbnRyYWwtTGVkZ2VyICNGRkZGRjkmI3hhOyAgICBwYXJ0aWNpcGFudCAiKipBUEkqKiIgYXMgY2xfYXBpJiN4YTsgICAgcGFydGljaXBhbnQgIl9fYXBpX18gLyBIYW5kbGVyIiBhcyBjbF9oYW5kbGVyJiN4YTsgICAgcGFydGljaXBhbnQgIl9fZG9tYWluX18gLyBTZXJ2aWNlIiBhcyBjbF9kb21haW4mI3hhOyAgICBwYXJ0aWNpcGFudCAiX19tb2RlbHNfXyAvIEZhY2FkZSIgYXMgY2xfZmFjYWRlJiN4YTsmI3hhOyAgICBub3RlIG92ZXIgY2xfYXBpJiN4YTsgICAgICAgIFJFU1QgQVBJIGRlcGxveWVkIGluIE5vZGVKUyYjeGE7ICAgIGVuZCBub3RlJiN4YTsmI3hhOyAgICBub3RlIG92ZXIgY2xfaGFuZGxlciYjeGE7ICAgICAgICBKU09OIHJlcXVlc3QgZGVjb2RlZCBhbmQmI3hhOyAgICAgICAgc2VudCBmb3IgcHJvY2Vzc2luZyB2aWEgYSBoYW5kbGVyJiN4YTsgICAgZW5kIG5vdGUmI3hhOyYjeGE7ICAgIG5vdGUgb3ZlciBjbF9kb21haW4mI3hhOyAgICAgICAgRG9tYWluIGZvbGRlciB3aGVyZSB0aGUgc2VydmljZSYjeGE7ICAgICAgICBmdW5jdGlvbnMgYXJlIGV4cG9zZWQuJiN4YTsgICAgZW5kIG5vdGUmI3hhOyYjeGE7ICAgIG5vdGUgb3ZlciBjbF9mYWNhZGUmI3hhOyAgICAgICAgRmFjYWRlIGZvciBzdG9yaW5nL3JldHJpZXZpbmcgZGF0YSBmcm9tJiN4YTsgICAgICAgIE15U1FMIGFuZCBUaWdlckJlZXRsZSYjeGE7ICAgIGVuZCBub3RlJiN4YTtlbmQgYm94JiN4YTsmI3hhO2JveCBTdG9yYWdlICNGOUZGRjkmI3hhOwljb250cm9sICJUaWdlckJlZXRsZSBDbGllbnQiIGFzIHRiX2NsaWVudCYjeGE7CWNvbGxlY3Rpb25zICJUaWdlckJlZXRsZSBDbHVzdGVyIiBhcyB0Yl9ub2RlcyYjeGE7CWRhdGFiYXNlICJjZW50cmFsLWxlZGdlciIgYXMgY2xfZGImI3hhOwlkYXRhYmFzZSAiUmVkaXMiIGFzIHJlZGlzX2NhY2hlJiN4YTtlbmQgYm94JiN4YTsmI3hhO2F1dG9udW1iZXImI3hhO2dyb3VwIENyZWF0ZSBQYXJ0aWNpcGFudCYjeGE7ICAgIGRmc3AgLT4gY2xfYXBpIDogLy9KU09OLy8gXG4qKihwYXJ0aWNpcGFudCBkYXRhKSoqJiN4YTsgICAgY2xfYXBpIC0+IGNsX2hhbmRsZXIgOiAvLy9qbWV0ZXIvcGFydGljaXBhbnRzL2NyZWF0ZS8vIFxuSGFuZGxlciBpbnZva2VkLiYjeGE7ICAgIGNsX2hhbmRsZXIgLT4gY2xfZG9tYWluIDogU2VydmljZSBsYXllciBpbnZva2VkLiYjeGE7ICAgIGNsX2RvbWFpbiAtPiBjbF9mYWNhZGUgOiBEb21haW4gdG8gZmFjYWRlLiYjeGE7ICAgIGNsX2ZhY2FkZSAtPiBjbF9kYiA6ICoqW0FTWU5DXSoqXG4qLy9wYXJ0aWNpcGFudC8vLCBcbiovL3BhcnRpY2lwYW50Q3VycmVuY3kvLywgXG4qLy9wYXJ0aWNpcGFudFBvc2l0aW9uLy8gXG4gREIgcmVjb3JkcyBjcmVhdGVkLiYjeGE7ICAgIGNsX2ZhY2FkZSAtPiB0Yl9jbGllbnQgOiAvL2FjY291bnQvLyBjcmVhdGUgcmVxdWVzdGVkIHZpYSB0aGUgQ0wtVEIgaW50ZXJmYWNlLiYjeGE7ICAgIHRiX2NsaWVudCAtPiB0Yl9ub2RlcyA6IC8vYWNjb3VudC8vIERpc3RyaWJ1dGVkIHRvIG5vZGVzXG4gdmlhIHRoZSBzdGF0ZSBtYWNoaW5lLiYjeGE7ICAgIHRiX25vZGVzIC0+IHRiX25vZGVzIDogUmVwbGljYXRpb24gdmlhIFZTUi4mI3hhOyAgICB0Yl9jbGllbnQgLSAtPiBjbF9mYWNhZGUgOiAvL2FjY291bnQvLyBjcmVhdGUgZXJyb3IgKioobm9uZSkqKiYjeGE7ICAgIGNsX2RiIDwtIC0+IGNsX2ZhY2FkZSA6ICoqW0FTWU5DXSoqXG4gRGF0YWJhc2UgdHJhbnNhY3Rpb24gY29tbWl0dGVkLiYjeGE7ICAgIGNsX2ZhY2FkZSAtIC0+IGNsX2RvbWFpbiA6IFJldHVybiByZXN1bHQuJiN4YTsgICAgY2xfZG9tYWluIC0gLT4gY2xfaGFuZGxlciA6IFJldHVybiByZXN1bHQuJiN4YTsgICAgY2xfaGFuZGxlciAtIC0+IGNsX2FwaSA6IFJldHVybiByZXN1bHQuJiN4YTsgICAgY2xfYXBpIC0gLT4gZGZzcCA6IFJldHVybiByZXN1bHQuJiN4YTtlbmQmI3hhOyYjeGE7QGVuZHVtbCYjeGE7JiN4YTtQbGFudFVNTCB2ZXJzaW9uIDEuMjAyMi40KFNhdCBBcHIgMDkgMTU6Mjk6MTcgQ0VTVCAyMDIyKSYjeGE7KEdQTCBzb3VyY2UgZGlzdHJpYnV0aW9uKSYjeGE7SmF2YSBSdW50aW1lOiBPcGVuSkRLIFJ1bnRpbWUgRW52aXJvbm1lbnQmI3hhO0pWTTogT3BlbkpESyA2NC1CaXQgU2VydmVyIFZNJiN4YTtEZWZhdWx0IEVuY29kaW5nOiBVVEYtOCYjeGE7TGFuZ3VhZ2U6IGVuJiN4YTtDb3VudHJ5OiBVUyYjeGE7LS0+PC9nPjwvc3ZnPg==;" parent="1" vertex="1"><mxGeometry x="50" y="110" width="520" height="312" as="geometry"/></mxCell><mxCell id="i0jzHZ0OYb6CD2TqRN_3-1" value="" style="rounded=1;whiteSpace=wrap;html=1;fontSize=9;fillColor=#f5f5f5;fontColor=#333333;strokeColor=#808080;strokeWidth=0.5;" parent="1" vertex="1"><mxGeometry x="60" y="110" width="30" height="20" as="geometry"/></mxCell><mxCell id="i0jzHZ0OYb6CD2TqRN_3-2" value="" style="rounded=1;whiteSpace=wrap;html=1;fontSize=9;fillColor=#f5f5f5;fontColor=#333333;strokeColor=#808080;strokeWidth=0.5;" parent="1" vertex="1"><mxGeometry x="60" y="402" width="30" height="20" as="geometry"/></mxCell></root></mxGraphModel></diagram><diagram id="UgiMfyUUKatMUUL0HSWt" name="transfer-prepare"><mxGraphModel dx="391" dy="202" grid="1" gridSize="10" guides="1" tooltips="1" connect="1" arrows="1" fold="1" page="1" pageScale="1" pageWidth="850" pageHeight="1100" math="0" shadow="0"><root><mxCell id="0"/><mxCell id="1" parent="0"/><mxCell id="MbONHSbiUg4O9K--LY9h-1" value="" style="shape=image;verticalLabelPosition=bottom;labelBackgroundColor=default;verticalAlign=top;aspect=fixed;imageAspect=0;image=data:image/svg+xml,PHN2ZyB4bWxucz0iaHR0cDovL3d3dy53My5vcmcvMjAwMC9zdmciIHhtbG5zOnhsaW5rPSJodHRwOi8vd3d3LnczLm9yZy8xOTk5L3hsaW5rIiBjb250ZW50c3R5bGV0eXBlPSJ0ZXh0L2NzcyIgaGVpZ2h0PSIyMTAxLjY4NzUiIHByZXNlcnZlQXNwZWN0UmF0aW89Im5vbmUiIHN0eWxlPSJ3aWR0aDoxOTEzcHg7aGVpZ2h0OjIxMTNweDtiYWNrZ3JvdW5kOiNGRkZGRkY7IiB2ZXJzaW9uPSIxLjEiIHZpZXdCb3g9IjAgNiAxOTA2LjUgMjEwMS42ODc1IiB3aWR0aD0iMTkwNi41IiB6b29tQW5kUGFuPSJtYWduaWZ5Ij48ZGVmcy8+PGc+PHJlY3QgZmlsbD0iI0ZGRkZGOSIgaGVpZ2h0PSIyMTAxLjY4NzUiIHN0eWxlPSJzdHJva2U6IzE4MTgxODtzdHJva2Utd2lkdGg6MC41OyIgd2lkdGg9IjcyNC41IiB4PSIzNDUiIHk9IjYiLz48dGV4dCBmaWxsPSIjMDAwMDAwIiBmb250LWZhbWlseT0ic2Fucy1zZXJpZiIgZm9udC1zaXplPSIxMyIgZm9udC13ZWlnaHQ9ImJvbGQiIGxlbmd0aEFkanVzdD0ic3BhY2luZyIgdGV4dExlbmd0aD0iMTA4IiB4PSI2NTAuNzUiIHk9IjE4LjA2NjkiPkNlbnRyYWwtTGVkZ2VyPC90ZXh0PjxyZWN0IGZpbGw9IiNGOUZGRjkiIGhlaWdodD0iMjEwMS42ODc1IiBzdHlsZT0ic3Ryb2tlOiMxODE4MTg7c3Ryb2tlLXdpZHRoOjAuNTsiIHdpZHRoPSI1ODMuNSIgeD0iMTMwNyIgeT0iNiIvPjx0ZXh0IGZpbGw9IiMwMDAwMDAiIGZvbnQtZmFtaWx5PSJzYW5zLXNlcmlmIiBmb250LXNpemU9IjEzIiBmb250LXdlaWdodD0iYm9sZCIgbGVuZ3RoQWRqdXN0PSJzcGFjaW5nIiB0ZXh0TGVuZ3RoPSI1NyIgeD0iMTU2Ny43NSIgeT0iMTguMDY2OSI+U3RvcmFnZTwvdGV4dD48cmVjdCBoZWlnaHQ9IjE2NzAuNzY1NiIgc3R5bGU9InN0cm9rZTojMDAwMDAwO3N0cm9rZS13aWR0aDoxLjU7ZmlsbDpub25lOyIgd2lkdGg9IjE4ODYuNSIgeD0iMTAiIHk9IjM0MC42MjUiLz48bGluZSBzdHlsZT0ic3Ryb2tlOiMxODE4MTg7c3Ryb2tlLXdpZHRoOjAuNTtmaWxsOm5vbmU7c3Ryb2tlLWRhc2hhcnJheTo1LjAsNS4wOyIgeDE9Ijg2IiB4Mj0iODYiIHkxPSI4Ny40Mjk3IiB5Mj0iMjAyOC4zOTA2Ii8+PGxpbmUgc3R5bGU9InN0cm9rZTojMTgxODE4O3N0cm9rZS13aWR0aDowLjU7ZmlsbDpub25lO3N0cm9rZS1kYXNoYXJyYXk6NS4wLDUuMDsiIHgxPSIzNjkiIHgyPSIzNjkiIHkxPSI4Ny40Mjk3IiB5Mj0iMjAyOC4zOTA2Ii8+PGxpbmUgc3R5bGU9InN0cm9rZTojMTgxODE4O3N0cm9rZS13aWR0aDowLjU7ZmlsbDpub25lO3N0cm9rZS1kYXNoYXJyYXk6NS4wLDUuMDsiIHgxPSI1NzMiIHgyPSI1NzMiIHkxPSI4Ny40Mjk3IiB5Mj0iMjAyOC4zOTA2Ii8+PGxpbmUgc3R5bGU9InN0cm9rZTojMTgxODE4O3N0cm9rZS13aWR0aDowLjU7ZmlsbDpub25lO3N0cm9rZS1kYXNoYXJyYXk6NS4wLDUuMDsiIHgxPSI3NjYiIHgyPSI3NjYiIHkxPSI4Ny40Mjk3IiB5Mj0iMjAyOC4zOTA2Ii8+PGxpbmUgc3R5bGU9InN0cm9rZTojMTgxODE4O3N0cm9rZS13aWR0aDowLjU7ZmlsbDpub25lO3N0cm9rZS1kYXNoYXJyYXk6NS4wLDUuMDsiIHgxPSI5OTkuNSIgeDI9Ijk5OS41IiB5MT0iODcuNDI5NyIgeTI9IjIwMjguMzkwNiIvPjxsaW5lIHN0eWxlPSJzdHJva2U6IzE4MTgxODtzdHJva2Utd2lkdGg6MC41O2ZpbGw6bm9uZTtzdHJva2UtZGFzaGFycmF5OjUuMCw1LjA7IiB4MT0iMTM3OCIgeDI9IjEzNzgiIHkxPSI4Ny40Mjk3IiB5Mj0iMjAyOC4zOTA2Ii8+PGxpbmUgc3R5bGU9InN0cm9rZTojMTgxODE4O3N0cm9rZS13aWR0aDowLjU7ZmlsbDpub25lO3N0cm9rZS1kYXNoYXJyYXk6NS4wLDUuMDsiIHgxPSIxNjEwLjUiIHgyPSIxNjEwLjUiIHkxPSI4Ny40Mjk3IiB5Mj0iMjAyOC4zOTA2Ii8+PGxpbmUgc3R5bGU9InN0cm9rZTojMTgxODE4O3N0cm9rZS13aWR0aDowLjU7ZmlsbDpub25lO3N0cm9rZS1kYXNoYXJyYXk6NS4wLDUuMDsiIHgxPSIxNzc3LjUiIHgyPSIxNzc3LjUiIHkxPSI4Ny40Mjk3IiB5Mj0iMjAyOC4zOTA2Ii8+PGxpbmUgc3R5bGU9InN0cm9rZTojMTgxODE4O3N0cm9rZS13aWR0aDowLjU7ZmlsbDpub25lO3N0cm9rZS1kYXNoYXJyYXk6NS4wLDUuMDsiIHgxPSIxODYzLjUiIHgyPSIxODYzLjUiIHkxPSI4Ny40Mjk3IiB5Mj0iMjAyOC4zOTA2Ii8+PHRleHQgZmlsbD0iIzAwMDAwMCIgZm9udC1mYW1pbHk9InNhbnMtc2VyaWYiIGZvbnQtc2l6ZT0iMTQiIGxlbmd0aEFkanVzdD0ic3BhY2luZyIgdGV4dExlbmd0aD0iMTI2IiB4PSIyMCIgeT0iODQuMTI3OSI+TW9qYWxvb3AgQWRhcHRlcjwvdGV4dD48ZWxsaXBzZSBjeD0iODYiIGN5PSIxOS42MzI4IiBmaWxsPSIjRTJFMkYwIiByeD0iOCIgcnk9IjgiIHN0eWxlPSJzdHJva2U6IzE4MTgxODtzdHJva2Utd2lkdGg6MC41OyIvPjxwYXRoIGQ9Ik04NiwyNy42MzI4IEw4Niw1NC42MzI4IE03MywzNS42MzI4IEw5OSwzNS42MzI4IE04Niw1NC42MzI4IEw3Myw2OS42MzI4IE04Niw1NC42MzI4IEw5OSw2OS42MzI4ICIgZmlsbD0ibm9uZSIgc3R5bGU9InN0cm9rZTojMTgxODE4O3N0cm9rZS13aWR0aDowLjU7Ii8+PHRleHQgZmlsbD0iIzAwMDAwMCIgZm9udC1mYW1pbHk9InNhbnMtc2VyaWYiIGZvbnQtc2l6ZT0iMTQiIGxlbmd0aEFkanVzdD0ic3BhY2luZyIgdGV4dExlbmd0aD0iMTI2IiB4PSIyMCIgeT0iMjA0MC4zODU3Ij5Nb2phbG9vcCBBZGFwdGVyPC90ZXh0PjxlbGxpcHNlIGN4PSI4NiIgY3k9IjIwNTIuMTg3NSIgZmlsbD0iI0UyRTJGMCIgcng9IjgiIHJ5PSI4IiBzdHlsZT0ic3Ryb2tlOiMxODE4MTg7c3Ryb2tlLXdpZHRoOjAuNTsiLz48cGF0aCBkPSJNODYsMjA2MC4xODc1IEw4NiwyMDg3LjE4NzUgTTczLDIwNjguMTg3NSBMOTksMjA2OC4xODc1IE04NiwyMDg3LjE4NzUgTDczLDIxMDIuMTg3NSBNODYsMjA4Ny4xODc1IEw5OSwyMTAyLjE4NzUgIiBmaWxsPSJub25lIiBzdHlsZT0ic3Ryb2tlOiMxODE4MTg7c3Ryb2tlLXdpZHRoOjAuNTsiLz48cmVjdCBmaWxsPSIjRTJFMkYwIiBoZWlnaHQ9IjMwLjI5NjkiIHJ4PSIyLjUiIHJ5PSIyLjUiIHN0eWxlPSJzdHJva2U6IzE4MTgxODtzdHJva2Utd2lkdGg6MC41OyIgd2lkdGg9IjQwIiB4PSIzNDkiIHk9IjU2LjEzMjgiLz48dGV4dCBmaWxsPSIjMDAwMDAwIiBmb250LWZhbWlseT0ic2Fucy1zZXJpZiIgZm9udC1zaXplPSIxNCIgZm9udC13ZWlnaHQ9ImJvbGQiIGxlbmd0aEFkanVzdD0ic3BhY2luZyIgdGV4dExlbmd0aD0iMjYiIHg9IjM1NiIgeT0iNzYuMTI3OSI+QVBJPC90ZXh0PjxyZWN0IGZpbGw9IiNFMkUyRjAiIGhlaWdodD0iMzAuMjk2OSIgcng9IjIuNSIgcnk9IjIuNSIgc3R5bGU9InN0cm9rZTojMTgxODE4O3N0cm9rZS13aWR0aDowLjU7IiB3aWR0aD0iNDAiIHg9IjM0OSIgeT0iMjAyNy4zOTA2Ii8+PHRleHQgZmlsbD0iIzAwMDAwMCIgZm9udC1mYW1pbHk9InNhbnMtc2VyaWYiIGZvbnQtc2l6ZT0iMTQiIGZvbnQtd2VpZ2h0PSJib2xkIiBsZW5ndGhBZGp1c3Q9InNwYWNpbmciIHRleHRMZW5ndGg9IjI2IiB4PSIzNTYiIHk9IjIwNDcuMzg1NyI+QVBJPC90ZXh0PjxyZWN0IGZpbGw9IiNFMkUyRjAiIGhlaWdodD0iMzAuMjk2OSIgcng9IjIuNSIgcnk9IjIuNSIgc3R5bGU9InN0cm9rZTojMTgxODE4O3N0cm9rZS13aWR0aDowLjU7IiB3aWR0aD0iMTA2IiB4PSI1MjAiIHk9IjU2LjEzMjgiLz48dGV4dCBmaWxsPSIjMDAwMDAwIiBmb250LWZhbWlseT0ic2Fucy1zZXJpZiIgZm9udC1zaXplPSIxNCIgbGVuZ3RoQWRqdXN0PSJzcGFjaW5nIiB0ZXh0LWRlY29yYXRpb249InVuZGVybGluZSIgdGV4dExlbmd0aD0iMjIiIHg9IjUyNyIgeT0iNzYuMTI3OSI+YXBpPC90ZXh0Pjx0ZXh0IGZpbGw9IiMwMDAwMDAiIGZvbnQtZmFtaWx5PSJzYW5zLXNlcmlmIiBmb250LXNpemU9IjE0IiBsZW5ndGhBZGp1c3Q9InNwYWNpbmciIHRleHRMZW5ndGg9IjY2IiB4PSI1NTMiIHk9Ijc2LjEyNzkiPi8gSGFuZGxlcjwvdGV4dD48cmVjdCBmaWxsPSIjRTJFMkYwIiBoZWlnaHQ9IjMwLjI5NjkiIHJ4PSIyLjUiIHJ5PSIyLjUiIHN0eWxlPSJzdHJva2U6IzE4MTgxODtzdHJva2Utd2lkdGg6MC41OyIgd2lkdGg9IjEwNiIgeD0iNTIwIiB5PSIyMDI3LjM5MDYiLz48dGV4dCBmaWxsPSIjMDAwMDAwIiBmb250LWZhbWlseT0ic2Fucy1zZXJpZiIgZm9udC1zaXplPSIxNCIgbGVuZ3RoQWRqdXN0PSJzcGFjaW5nIiB0ZXh0LWRlY29yYXRpb249InVuZGVybGluZSIgdGV4dExlbmd0aD0iMjIiIHg9IjUyNyIgeT0iMjA0Ny4zODU3Ij5hcGk8L3RleHQ+PHRleHQgZmlsbD0iIzAwMDAwMCIgZm9udC1mYW1pbHk9InNhbnMtc2VyaWYiIGZvbnQtc2l6ZT0iMTQiIGxlbmd0aEFkanVzdD0ic3BhY2luZyIgdGV4dExlbmd0aD0iNjYiIHg9IjU1MyIgeT0iMjA0Ny4zODU3Ij4vIEhhbmRsZXI8L3RleHQ+PHJlY3QgZmlsbD0iI0UyRTJGMCIgaGVpZ2h0PSIzMC4yOTY5IiByeD0iMi41IiByeT0iMi41IiBzdHlsZT0ic3Ryb2tlOiMxODE4MTg7c3Ryb2tlLXdpZHRoOjAuNTsiIHdpZHRoPSIxMzQiIHg9IjY5OSIgeT0iNTYuMTMyOCIvPjx0ZXh0IGZpbGw9IiMwMDAwMDAiIGZvbnQtZmFtaWx5PSJzYW5zLXNlcmlmIiBmb250LXNpemU9IjE0IiBsZW5ndGhBZGp1c3Q9InNwYWNpbmciIHRleHQtZGVjb3JhdGlvbj0idW5kZXJsaW5lIiB0ZXh0TGVuZ3RoPSI1NCIgeD0iNzA2IiB5PSI3Ni4xMjc5Ij5kb21haW48L3RleHQ+PHRleHQgZmlsbD0iIzAwMDAwMCIgZm9udC1mYW1pbHk9InNhbnMtc2VyaWYiIGZvbnQtc2l6ZT0iMTQiIGxlbmd0aEFkanVzdD0ic3BhY2luZyIgdGV4dExlbmd0aD0iNjIiIHg9Ijc2NCIgeT0iNzYuMTI3OSI+LyBTZXJ2aWNlPC90ZXh0PjxyZWN0IGZpbGw9IiNFMkUyRjAiIGhlaWdodD0iMzAuMjk2OSIgcng9IjIuNSIgcnk9IjIuNSIgc3R5bGU9InN0cm9rZTojMTgxODE4O3N0cm9rZS13aWR0aDowLjU7IiB3aWR0aD0iMTM0IiB4PSI2OTkiIHk9IjIwMjcuMzkwNiIvPjx0ZXh0IGZpbGw9IiMwMDAwMDAiIGZvbnQtZmFtaWx5PSJzYW5zLXNlcmlmIiBmb250LXNpemU9IjE0IiBsZW5ndGhBZGp1c3Q9InNwYWNpbmciIHRleHQtZGVjb3JhdGlvbj0idW5kZXJsaW5lIiB0ZXh0TGVuZ3RoPSI1NCIgeD0iNzA2IiB5PSIyMDQ3LjM4NTciPmRvbWFpbjwvdGV4dD48dGV4dCBmaWxsPSIjMDAwMDAwIiBmb250LWZhbWlseT0ic2Fucy1zZXJpZiIgZm9udC1zaXplPSIxNCIgbGVuZ3RoQWRqdXN0PSJzcGFjaW5nIiB0ZXh0TGVuZ3RoPSI2MiIgeD0iNzY0IiB5PSIyMDQ3LjM4NTciPi8gU2VydmljZTwvdGV4dD48cmVjdCBmaWxsPSIjRTJFMkYwIiBoZWlnaHQ9IjMwLjI5NjkiIHJ4PSIyLjUiIHJ5PSIyLjUiIHN0eWxlPSJzdHJva2U6IzE4MTgxODtzdHJva2Utd2lkdGg6MC41OyIgd2lkdGg9IjEzMSIgeD0iOTM0LjUiIHk9IjU2LjEzMjgiLz48dGV4dCBmaWxsPSIjMDAwMDAwIiBmb250LWZhbWlseT0ic2Fucy1zZXJpZiIgZm9udC1zaXplPSIxNCIgbGVuZ3RoQWRqdXN0PSJzcGFjaW5nIiB0ZXh0LWRlY29yYXRpb249InVuZGVybGluZSIgdGV4dExlbmd0aD0iNTIiIHg9Ijk0MS41IiB5PSI3Ni4xMjc5Ij5tb2RlbHM8L3RleHQ+PHRleHQgZmlsbD0iIzAwMDAwMCIgZm9udC1mYW1pbHk9InNhbnMtc2VyaWYiIGZvbnQtc2l6ZT0iMTQiIGxlbmd0aEFkanVzdD0ic3BhY2luZyIgdGV4dExlbmd0aD0iNjEiIHg9Ijk5Ny41IiB5PSI3Ni4xMjc5Ij4vIEZhY2FkZTwvdGV4dD48cmVjdCBmaWxsPSIjRTJFMkYwIiBoZWlnaHQ9IjMwLjI5NjkiIHJ4PSIyLjUiIHJ5PSIyLjUiIHN0eWxlPSJzdHJva2U6IzE4MTgxODtzdHJva2Utd2lkdGg6MC41OyIgd2lkdGg9IjEzMSIgeD0iOTM0LjUiIHk9IjIwMjcuMzkwNiIvPjx0ZXh0IGZpbGw9IiMwMDAwMDAiIGZvbnQtZmFtaWx5PSJzYW5zLXNlcmlmIiBmb250LXNpemU9IjE0IiBsZW5ndGhBZGp1c3Q9InNwYWNpbmciIHRleHQtZGVjb3JhdGlvbj0idW5kZXJsaW5lIiB0ZXh0TGVuZ3RoPSI1MiIgeD0iOTQxLjUiIHk9IjIwNDcuMzg1NyI+bW9kZWxzPC90ZXh0Pjx0ZXh0IGZpbGw9IiMwMDAwMDAiIGZvbnQtZmFtaWx5PSJzYW5zLXNlcmlmIiBmb250LXNpemU9IjE0IiBsZW5ndGhBZGp1c3Q9InNwYWNpbmciIHRleHRMZW5ndGg9IjYxIiB4PSI5OTcuNSIgeT0iMjA0Ny4zODU3Ij4vIEZhY2FkZTwvdGV4dD48dGV4dCBmaWxsPSIjMDAwMDAwIiBmb250LWZhbWlseT0ic2Fucy1zZXJpZiIgZm9udC1zaXplPSIxNCIgbGVuZ3RoQWRqdXN0PSJzcGFjaW5nIiB0ZXh0TGVuZ3RoPSIxMjgiIHg9IjEzMTEiIHk9Ijg0LjEyNzkiPlRpZ2VyQmVldGxlIENsaWVudDwvdGV4dD48ZWxsaXBzZSBjeD0iMTM3OCIgY3k9IjU1LjEzMjgiIGZpbGw9IiNFMkUyRjAiIHJ4PSIxMiIgcnk9IjEyIiBzdHlsZT0ic3Ryb2tlOiMxODE4MTg7c3Ryb2tlLXdpZHRoOjAuNTsiLz48cG9seWdvbiBmaWxsPSIjMTgxODE4IiBwb2ludHM9IjEzNzQsNDMuMTMyOCwxMzgwLDM4LjEzMjgsMTM3OCw0My4xMzI4LDEzODAsNDguMTMyOCwxMzc0LDQzLjEzMjgiIHN0eWxlPSJzdHJva2U6IzE4MTgxODtzdHJva2Utd2lkdGg6MS4wOyIvPjx0ZXh0IGZpbGw9IiMwMDAwMDAiIGZvbnQtZmFtaWx5PSJzYW5zLXNlcmlmIiBmb250LXNpemU9IjE0IiBsZW5ndGhBZGp1c3Q9InNwYWNpbmciIHRleHRMZW5ndGg9IjEyOCIgeD0iMTMxMSIgeT0iMjA0MC4zODU3Ij5UaWdlckJlZXRsZSBDbGllbnQ8L3RleHQ+PGVsbGlwc2UgY3g9IjEzNzgiIGN5PSIyMDU5LjY4NzUiIGZpbGw9IiNFMkUyRjAiIHJ4PSIxMiIgcnk9IjEyIiBzdHlsZT0ic3Ryb2tlOiMxODE4MTg7c3Ryb2tlLXdpZHRoOjAuNTsiLz48cG9seWdvbiBmaWxsPSIjMTgxODE4IiBwb2ludHM9IjEzNzQsMjA0Ny42ODc1LDEzODAsMjA0Mi42ODc1LDEzNzgsMjA0Ny42ODc1LDEzODAsMjA1Mi42ODc1LDEzNzQsMjA0Ny42ODc1IiBzdHlsZT0ic3Ryb2tlOiMxODE4MTg7c3Ryb2tlLXdpZHRoOjEuMDsiLz48cmVjdCBmaWxsPSIjRTJFMkYwIiBoZWlnaHQ9IjMwLjI5NjkiIHN0eWxlPSJzdHJva2U6IzE4MTgxODtzdHJva2Utd2lkdGg6MC41OyIgd2lkdGg9IjE1MSIgeD0iMTUzNy41IiB5PSI1Mi4xMzI4Ii8+PHJlY3QgZmlsbD0iI0UyRTJGMCIgaGVpZ2h0PSIzMC4yOTY5IiBzdHlsZT0ic3Ryb2tlOiMxODE4MTg7c3Ryb2tlLXdpZHRoOjAuNTsiIHdpZHRoPSIxNTEiIHg9IjE1MzMuNSIgeT0iNTYuMTMyOCIvPjx0ZXh0IGZpbGw9IiMwMDAwMDAiIGZvbnQtZmFtaWx5PSJzYW5zLXNlcmlmIiBmb250LXNpemU9IjE0IiBsZW5ndGhBZGp1c3Q9InNwYWNpbmciIHRleHRMZW5ndGg9IjEzNyIgeD0iMTU0MC41IiB5PSI3Ni4xMjc5Ij5UaWdlckJlZXRsZSBDbHVzdGVyPC90ZXh0PjxyZWN0IGZpbGw9IiNFMkUyRjAiIGhlaWdodD0iMzAuMjk2OSIgc3R5bGU9InN0cm9rZTojMTgxODE4O3N0cm9rZS13aWR0aDowLjU7IiB3aWR0aD0iMTUxIiB4PSIxNTM3LjUiIHk9IjIwMjcuMzkwNiIvPjxyZWN0IGZpbGw9IiNFMkUyRjAiIGhlaWdodD0iMzAuMjk2OSIgc3R5bGU9InN0cm9rZTojMTgxODE4O3N0cm9rZS13aWR0aDowLjU7IiB3aWR0aD0iMTUxIiB4PSIxNTMzLjUiIHk9IjIwMzEuMzkwNiIvPjx0ZXh0IGZpbGw9IiMwMDAwMDAiIGZvbnQtZmFtaWx5PSJzYW5zLXNlcmlmIiBmb250LXNpemU9IjE0IiBsZW5ndGhBZGp1c3Q9InNwYWNpbmciIHRleHRMZW5ndGg9IjEzNyIgeD0iMTU0MC41IiB5PSIyMDUxLjM4NTciPlRpZ2VyQmVldGxlIENsdXN0ZXI8L3RleHQ+PHRleHQgZmlsbD0iIzAwMDAwMCIgZm9udC1mYW1pbHk9InNhbnMtc2VyaWYiIGZvbnQtc2l6ZT0iMTQiIGxlbmd0aEFkanVzdD0ic3BhY2luZyIgdGV4dExlbmd0aD0iMTAxIiB4PSIxNzI0LjUiIHk9Ijg0LjEyNzkiPmNlbnRyYWwtbGVkZ2VyPC90ZXh0PjxwYXRoIGQ9Ik0xNzYwLDM1LjEzMjggQzE3NjAsMjUuMTMyOCAxNzc4LDI1LjEzMjggMTc3OCwyNS4xMzI4IEMxNzc4LDI1LjEzMjggMTc5NiwyNS4xMzI4IDE3OTYsMzUuMTMyOCBMMTc5Niw2MS4xMzI4IEMxNzk2LDcxLjEzMjggMTc3OCw3MS4xMzI4IDE3NzgsNzEuMTMyOCBDMTc3OCw3MS4xMzI4IDE3NjAsNzEuMTMyOCAxNzYwLDYxLjEzMjggTDE3NjAsMzUuMTMyOCAiIGZpbGw9IiNFMkUyRjAiIHN0eWxlPSJzdHJva2U6IzE4MTgxODtzdHJva2Utd2lkdGg6MS41OyIvPjxwYXRoIGQ9Ik0xNzYwLDM1LjEzMjggQzE3NjAsNDUuMTMyOCAxNzc4LDQ1LjEzMjggMTc3OCw0NS4xMzI4IEMxNzc4LDQ1LjEzMjggMTc5Niw0NS4xMzI4IDE3OTYsMzUuMTMyOCAiIGZpbGw9Im5vbmUiIHN0eWxlPSJzdHJva2U6IzE4MTgxODtzdHJva2Utd2lkdGg6MS41OyIvPjx0ZXh0IGZpbGw9IiMwMDAwMDAiIGZvbnQtZmFtaWx5PSJzYW5zLXNlcmlmIiBmb250LXNpemU9IjE0IiBsZW5ndGhBZGp1c3Q9InNwYWNpbmciIHRleHRMZW5ndGg9IjEwMSIgeD0iMTcyNC41IiB5PSIyMDQwLjM4NTciPmNlbnRyYWwtbGVkZ2VyPC90ZXh0PjxwYXRoIGQ9Ik0xNzYwLDIwNTMuNjg3NSBDMTc2MCwyMDQzLjY4NzUgMTc3OCwyMDQzLjY4NzUgMTc3OCwyMDQzLjY4NzUgQzE3NzgsMjA0My42ODc1IDE3OTYsMjA0My42ODc1IDE3OTYsMjA1My42ODc1IEwxNzk2LDIwNzkuNjg3NSBDMTc5NiwyMDg5LjY4NzUgMTc3OCwyMDg5LjY4NzUgMTc3OCwyMDg5LjY4NzUgQzE3NzgsMjA4OS42ODc1IDE3NjAsMjA4OS42ODc1IDE3NjAsMjA3OS42ODc1IEwxNzYwLDIwNTMuNjg3NSAiIGZpbGw9IiNFMkUyRjAiIHN0eWxlPSJzdHJva2U6IzE4MTgxODtzdHJva2Utd2lkdGg6MS41OyIvPjxwYXRoIGQ9Ik0xNzYwLDIwNTMuNjg3NSBDMTc2MCwyMDYzLjY4NzUgMTc3OCwyMDYzLjY4NzUgMTc3OCwyMDYzLjY4NzUgQzE3NzgsMjA2My42ODc1IDE3OTYsMjA2My42ODc1IDE3OTYsMjA1My42ODc1ICIgZmlsbD0ibm9uZSIgc3R5bGU9InN0cm9rZTojMTgxODE4O3N0cm9rZS13aWR0aDoxLjU7Ii8+PHRleHQgZmlsbD0iIzAwMDAwMCIgZm9udC1mYW1pbHk9InNhbnMtc2VyaWYiIGZvbnQtc2l6ZT0iMTQiIGxlbmd0aEFkanVzdD0ic3BhY2luZyIgdGV4dExlbmd0aD0iMzkiIHg9IjE4NDEuNSIgeT0iODQuMTI3OSI+UmVkaXM8L3RleHQ+PHBhdGggZD0iTTE4NDYsMzUuMTMyOCBDMTg0NiwyNS4xMzI4IDE4NjQsMjUuMTMyOCAxODY0LDI1LjEzMjggQzE4NjQsMjUuMTMyOCAxODgyLDI1LjEzMjggMTg4MiwzNS4xMzI4IEwxODgyLDYxLjEzMjggQzE4ODIsNzEuMTMyOCAxODY0LDcxLjEzMjggMTg2NCw3MS4xMzI4IEMxODY0LDcxLjEzMjggMTg0Niw3MS4xMzI4IDE4NDYsNjEuMTMyOCBMMTg0NiwzNS4xMzI4ICIgZmlsbD0iI0UyRTJGMCIgc3R5bGU9InN0cm9rZTojMTgxODE4O3N0cm9rZS13aWR0aDoxLjU7Ii8+PHBhdGggZD0iTTE4NDYsMzUuMTMyOCBDMTg0Niw0NS4xMzI4IDE4NjQsNDUuMTMyOCAxODY0LDQ1LjEzMjggQzE4NjQsNDUuMTMyOCAxODgyLDQ1LjEzMjggMTg4MiwzNS4xMzI4ICIgZmlsbD0ibm9uZSIgc3R5bGU9InN0cm9rZTojMTgxODE4O3N0cm9rZS13aWR0aDoxLjU7Ii8+PHRleHQgZmlsbD0iIzAwMDAwMCIgZm9udC1mYW1pbHk9InNhbnMtc2VyaWYiIGZvbnQtc2l6ZT0iMTQiIGxlbmd0aEFkanVzdD0ic3BhY2luZyIgdGV4dExlbmd0aD0iMzkiIHg9IjE4NDEuNSIgeT0iMjA0MC4zODU3Ij5SZWRpczwvdGV4dD48cGF0aCBkPSJNMTg0NiwyMDUzLjY4NzUgQzE4NDYsMjA0My42ODc1IDE4NjQsMjA0My42ODc1IDE4NjQsMjA0My42ODc1IEMxODY0LDIwNDMuNjg3NSAxODgyLDIwNDMuNjg3NSAxODgyLDIwNTMuNjg3NSBMMTg4MiwyMDc5LjY4NzUgQzE4ODIsMjA4OS42ODc1IDE4NjQsMjA4OS42ODc1IDE4NjQsMjA4OS42ODc1IEMxODY0LDIwODkuNjg3NSAxODQ2LDIwODkuNjg3NSAxODQ2LDIwNzkuNjg3NSBMMTg0NiwyMDUzLjY4NzUgIiBmaWxsPSIjRTJFMkYwIiBzdHlsZT0ic3Ryb2tlOiMxODE4MTg7c3Ryb2tlLXdpZHRoOjEuNTsiLz48cGF0aCBkPSJNMTg0NiwyMDUzLjY4NzUgQzE4NDYsMjA2My42ODc1IDE4NjQsMjA2My42ODc1IDE4NjQsMjA2My42ODc1IEMxODY0LDIwNjMuNjg3NSAxODgyLDIwNjMuNjg3NSAxODgyLDIwNTMuNjg3NSAiIGZpbGw9Im5vbmUiIHN0eWxlPSJzdHJva2U6IzE4MTgxODtzdHJva2Utd2lkdGg6MS41OyIvPjxwYXRoIGQ9Ik05LDEwMi40Mjk3IEw5LDE0Mi40Mjk3IEwxNjMsMTQyLjQyOTcgTDE2MywxMTIuNDI5NyBMMTUzLDEwMi40Mjk3IEw5LDEwMi40Mjk3ICIgZmlsbD0iI0ZFRkZERCIgc3R5bGU9InN0cm9rZTojMTgxODE4O3N0cm9rZS13aWR0aDowLjU7Ii8+PHBhdGggZD0iTTE1MywxMDIuNDI5NyBMMTUzLDExMi40Mjk3IEwxNjMsMTEyLjQyOTcgTDE1MywxMDIuNDI5NyAiIGZpbGw9IiNGRUZGREQiIHN0eWxlPSJzdHJva2U6IzE4MTgxODtzdHJva2Utd2lkdGg6MC41OyIvPjxlbGxpcHNlIGN4PSIyMC41IiBjeT0iMTE1LjA2MjUiIGZpbGw9IiMwMDAwMDAiIHJ4PSIyLjUiIHJ5PSIyLjUiIHN0eWxlPSJzdHJva2U6IzAwMDAwMDtzdHJva2Utd2lkdGg6MC4wOyIvPjx0ZXh0IGZpbGw9IiMwMDAwMDAiIGZvbnQtZmFtaWx5PSJzYW5zLXNlcmlmIiBmb250LXNpemU9IjEzIiBsZW5ndGhBZGp1c3Q9InNwYWNpbmciIHRleHRMZW5ndGg9IjEyMCIgeD0iMjgiIHk9IjExOS40OTY2Ij5QYXJ0aWNpcGFudCBCYW5rIEE8L3RleHQ+PGVsbGlwc2UgY3g9IjIwLjUiIGN5PSIxMzAuMTk1MyIgZmlsbD0iIzAwMDAwMCIgcng9IjIuNSIgcnk9IjIuNSIgc3R5bGU9InN0cm9rZTojMDAwMDAwO3N0cm9rZS13aWR0aDowLjA7Ii8+PHRleHQgZmlsbD0iIzAwMDAwMCIgZm9udC1mYW1pbHk9InNhbnMtc2VyaWYiIGZvbnQtc2l6ZT0iMTMiIGxlbmd0aEFkanVzdD0ic3BhY2luZyIgdGV4dExlbmd0aD0iMTIwIiB4PSIyOCIgeT0iMTM0LjYyOTQiPlBhcnRpY2lwYW50IEJhbmsgQjwvdGV4dD48cGF0aCBkPSJNMjY0LDE1Mi42OTUzIEwyNjQsMTc3LjY5NTMgTDQ3MywxNzcuNjk1MyBMNDczLDE2Mi42OTUzIEw0NjMsMTUyLjY5NTMgTDI2NCwxNTIuNjk1MyAiIGZpbGw9IiNGRUZGREQiIHN0eWxlPSJzdHJva2U6IzE4MTgxODtzdHJva2Utd2lkdGg6MC41OyIvPjxwYXRoIGQ9Ik00NjMsMTUyLjY5NTMgTDQ2MywxNjIuNjk1MyBMNDczLDE2Mi42OTUzIEw0NjMsMTUyLjY5NTMgIiBmaWxsPSIjRkVGRkREIiBzdHlsZT0ic3Ryb2tlOiMxODE4MTg7c3Ryb2tlLXdpZHRoOjAuNTsiLz48dGV4dCBmaWxsPSIjMDAwMDAwIiBmb250LWZhbWlseT0ic2Fucy1zZXJpZiIgZm9udC1zaXplPSIxMyIgbGVuZ3RoQWRqdXN0PSJzcGFjaW5nIiB0ZXh0TGVuZ3RoPSIxODgiIHg9IjI3MCIgeT0iMTY5Ljc2MjIiPlJFU1QgQVBJIGRlcGxveWVkIGluIE5vZGVKUzwvdGV4dD48cGF0aCBkPSJNNDU2LDE4Ny44MjgxIEw0NTYsMjI3LjgyODEgTDY5MCwyMjcuODI4MSBMNjkwLDE5Ny44MjgxIEw2ODAsMTg3LjgyODEgTDQ1NiwxODcuODI4MSAiIGZpbGw9IiNGRUZGREQiIHN0eWxlPSJzdHJva2U6IzE4MTgxODtzdHJva2Utd2lkdGg6MC41OyIvPjxwYXRoIGQ9Ik02ODAsMTg3LjgyODEgTDY4MCwxOTcuODI4MSBMNjkwLDE5Ny44MjgxIEw2ODAsMTg3LjgyODEgIiBmaWxsPSIjRkVGRkREIiBzdHlsZT0ic3Ryb2tlOiMxODE4MTg7c3Ryb2tlLXdpZHRoOjAuNTsiLz48dGV4dCBmaWxsPSIjMDAwMDAwIiBmb250LWZhbWlseT0ic2Fucy1zZXJpZiIgZm9udC1zaXplPSIxMyIgbGVuZ3RoQWRqdXN0PSJzcGFjaW5nIiB0ZXh0TGVuZ3RoPSIxNzIiIHg9IjQ2MiIgeT0iMjA0Ljg5NSI+SlNPTiByZXF1ZXN0IGRlY29kZWQgYW5kPC90ZXh0Pjx0ZXh0IGZpbGw9IiMwMDAwMDAiIGZvbnQtZmFtaWx5PSJzYW5zLXNlcmlmIiBmb250LXNpemU9IjEzIiBsZW5ndGhBZGp1c3Q9InNwYWNpbmciIHRleHRMZW5ndGg9IjIxMyIgeD0iNDYyIiB5PSIyMjAuMDI3OCI+c2VudCBmb3IgcHJvY2Vzc2luZyB2aWEgYSBoYW5kbGVyPC90ZXh0PjxwYXRoIGQ9Ik02NDksMjM4LjA5MzggTDY0OSwyNzguMDkzOCBMODgzLDI3OC4wOTM4IEw4ODMsMjQ4LjA5MzggTDg3MywyMzguMDkzOCBMNjQ5LDIzOC4wOTM4ICIgZmlsbD0iI0ZFRkZERCIgc3R5bGU9InN0cm9rZTojMTgxODE4O3N0cm9rZS13aWR0aDowLjU7Ii8+PHBhdGggZD0iTTg3MywyMzguMDkzOCBMODczLDI0OC4wOTM4IEw4ODMsMjQ4LjA5MzggTDg3MywyMzguMDkzOCAiIGZpbGw9IiNGRUZGREQiIHN0eWxlPSJzdHJva2U6IzE4MTgxODtzdHJva2Utd2lkdGg6MC41OyIvPjx0ZXh0IGZpbGw9IiMwMDAwMDAiIGZvbnQtZmFtaWx5PSJzYW5zLXNlcmlmIiBmb250LXNpemU9IjEzIiBsZW5ndGhBZGp1c3Q9InNwYWNpbmciIHRleHRMZW5ndGg9IjIxMyIgeD0iNjU1IiB5PSIyNTUuMTYwNiI+RG9tYWluIGZvbGRlciB3aGVyZSB0aGUgc2VydmljZTwvdGV4dD48dGV4dCBmaWxsPSIjMDAwMDAwIiBmb250LWZhbWlseT0ic2Fucy1zZXJpZiIgZm9udC1zaXplPSIxMyIgbGVuZ3RoQWRqdXN0PSJzcGFjaW5nIiB0ZXh0TGVuZ3RoPSIxNDgiIHg9IjY1NSIgeT0iMjcwLjI5MzUiPmZ1bmN0aW9ucyBhcmUgZXhwb3NlZC48L3RleHQ+PHBhdGggZD0iTTg2MywyODguMzU5NCBMODYzLDMyOC4zNTk0IEwxMTM2LDMyOC4zNTk0IEwxMTM2LDI5OC4zNTk0IEwxMTI2LDI4OC4zNTk0IEw4NjMsMjg4LjM1OTQgIiBmaWxsPSIjRkVGRkREIiBzdHlsZT0ic3Ryb2tlOiMxODE4MTg7c3Ryb2tlLXdpZHRoOjAuNTsiLz48cGF0aCBkPSJNMTEyNiwyODguMzU5NCBMMTEyNiwyOTguMzU5NCBMMTEzNiwyOTguMzU5NCBMMTEyNiwyODguMzU5NCAiIGZpbGw9IiNGRUZGREQiIHN0eWxlPSJzdHJva2U6IzE4MTgxODtzdHJva2Utd2lkdGg6MC41OyIvPjx0ZXh0IGZpbGw9IiMwMDAwMDAiIGZvbnQtZmFtaWx5PSJzYW5zLXNlcmlmIiBmb250LXNpemU9IjEzIiBsZW5ndGhBZGp1c3Q9InNwYWNpbmciIHRleHRMZW5ndGg9IjI1MiIgeD0iODY5IiB5PSIzMDUuNDI2MyI+RmFjYWRlIGZvciBzdG9yaW5nL3JldHJpZXZpbmcgZGF0YSBmcm9tPC90ZXh0Pjx0ZXh0IGZpbGw9IiMwMDAwMDAiIGZvbnQtZmFtaWx5PSJzYW5zLXNlcmlmIiBmb250LXNpemU9IjEzIiBsZW5ndGhBZGp1c3Q9InNwYWNpbmciIHRleHRMZW5ndGg9IjE1MSIgeD0iODY5IiB5PSIzMjAuNTU5MSI+TXlTUUwgYW5kIFRpZ2VyQmVldGxlPC90ZXh0PjxwYXRoIGQ9Ik0xMCwzNDAuNjI1IEwyNDcsMzQwLjYyNSBMMjQ3LDM0Ny43NTc4IEwyMzcsMzU3Ljc1NzggTDEwLDM1Ny43NTc4IEwxMCwzNDAuNjI1ICIgZmlsbD0iI0VFRUVFRSIgc3R5bGU9InN0cm9rZTojMDAwMDAwO3N0cm9rZS13aWR0aDoxLjU7Ii8+PHJlY3QgZmlsbD0ibm9uZSIgaGVpZ2h0PSIxNjcwLjc2NTYiIHN0eWxlPSJzdHJva2U6IzAwMDAwMDtzdHJva2Utd2lkdGg6MS41OyIgd2lkdGg9IjE4ODYuNSIgeD0iMTAiIHk9IjM0MC42MjUiLz48dGV4dCBmaWxsPSIjMDAwMDAwIiBmb250LWZhbWlseT0ic2Fucy1zZXJpZiIgZm9udC1zaXplPSIxMyIgZm9udC13ZWlnaHQ9ImJvbGQiIGxlbmd0aEFkanVzdD0ic3BhY2luZyIgdGV4dExlbmd0aD0iMTkyIiB4PSIyNSIgeT0iMzUzLjY5MTkiPkNyZWF0ZSBUcmFuc2ZlciAoMi1QaGFzZSk8L3RleHQ+PHBvbHlnb24gZmlsbD0iIzE4MTgxOCIgcG9pbnRzPSIzNTcsMzkwLjAyMzQsMzY3LDM5NC4wMjM0LDM1NywzOTguMDIzNCwzNjEsMzk0LjAyMzQiIHN0eWxlPSJzdHJva2U6IzE4MTgxODtzdHJva2Utd2lkdGg6MS4wOyIvPjxsaW5lIHN0eWxlPSJzdHJva2U6IzE4MTgxODtzdHJva2Utd2lkdGg6MS4wOyIgeDE9Ijg2IiB4Mj0iMzYzIiB5MT0iMzk0LjAyMzQiIHkyPSIzOTQuMDIzNCIvPjx0ZXh0IGZpbGw9IiMwMDAwMDAiIGZvbnQtZmFtaWx5PSJzYW5zLXNlcmlmIiBmb250LXNpemU9IjEzIiBmb250LXdlaWdodD0iYm9sZCIgbGVuZ3RoQWRqdXN0PSJzcGFjaW5nIiB0ZXh0TGVuZ3RoPSI5IiB4PSI5MyIgeT0iMzgxLjM5MTEiPjE8L3RleHQ+PHRleHQgZmlsbD0iIzAwMDAwMCIgZm9udC1mYW1pbHk9InNhbnMtc2VyaWYiIGZvbnQtc2l6ZT0iMTMiIGZvbnQtc3R5bGU9Iml0YWxpYyIgbGVuZ3RoQWRqdXN0PSJzcGFjaW5nIiB0ZXh0TGVuZ3RoPSIzMiIgeD0iMTA2IiB5PSIzNzMuODI0NyI+SlNPTjwvdGV4dD48dGV4dCBmaWxsPSIjMDAwMDAwIiBmb250LWZhbWlseT0ic2Fucy1zZXJpZiIgZm9udC1zaXplPSIxMyIgbGVuZ3RoQWRqdXN0PSJzcGFjaW5nIiB0ZXh0TGVuZ3RoPSI0IiB4PSIxMzgiIHk9IjM3My44MjQ3Ij7CoDwvdGV4dD48dGV4dCBmaWxsPSIjMDAwMDAwIiBmb250LWZhbWlseT0ic2Fucy1zZXJpZiIgZm9udC1zaXplPSIxMyIgZm9udC13ZWlnaHQ9ImJvbGQiIGxlbmd0aEFkanVzdD0ic3BhY2luZyIgdGV4dExlbmd0aD0iMTA5IiB4PSIxMDYiIHk9IjM4OC45NTc1Ij4odHJhbnNmZXIgZGF0YSk8L3RleHQ+PHBvbHlnb24gZmlsbD0iIzE4MTgxOCIgcG9pbnRzPSI1NjEsNDM0LjI4OTEsNTcxLDQzOC4yODkxLDU2MSw0NDIuMjg5MSw1NjUsNDM4LjI4OTEiIHN0eWxlPSJzdHJva2U6IzE4MTgxODtzdHJva2Utd2lkdGg6MS4wOyIvPjxsaW5lIHN0eWxlPSJzdHJva2U6IzE4MTgxODtzdHJva2Utd2lkdGg6MS4wOyIgeDE9IjM2OSIgeDI9IjU2NyIgeTE9IjQzOC4yODkxIiB5Mj0iNDM4LjI4OTEiLz48dGV4dCBmaWxsPSIjMDAwMDAwIiBmb250LWZhbWlseT0ic2Fucy1zZXJpZiIgZm9udC1zaXplPSIxMyIgZm9udC13ZWlnaHQ9ImJvbGQiIGxlbmd0aEFkanVzdD0ic3BhY2luZyIgdGV4dExlbmd0aD0iOSIgeD0iMzc2IiB5PSI0MjUuNjU2NyI+MjwvdGV4dD48dGV4dCBmaWxsPSIjMDAwMDAwIiBmb250LWZhbWlseT0ic2Fucy1zZXJpZiIgZm9udC1zaXplPSIxMyIgZm9udC1zdHlsZT0iaXRhbGljIiBsZW5ndGhBZGp1c3Q9InNwYWNpbmciIHRleHRMZW5ndGg9IjE2MyIgeD0iMzg5IiB5PSI0MTguMDkwMyI+L2ptZXRlci90cmFuc2ZlcnMvcHJlcGFyZTwvdGV4dD48dGV4dCBmaWxsPSIjMDAwMDAwIiBmb250LWZhbWlseT0ic2Fucy1zZXJpZiIgZm9udC1zaXplPSIxMyIgbGVuZ3RoQWRqdXN0PSJzcGFjaW5nIiB0ZXh0TGVuZ3RoPSI0IiB4PSI1NTIiIHk9IjQxOC4wOTAzIj7CoDwvdGV4dD48dGV4dCBmaWxsPSIjMDAwMDAwIiBmb250LWZhbWlseT0ic2Fucy1zZXJpZiIgZm9udC1zaXplPSIxMyIgbGVuZ3RoQWRqdXN0PSJzcGFjaW5nIiB0ZXh0TGVuZ3RoPSIxMDciIHg9IjM4OSIgeT0iNDMzLjIyMzEiPkhhbmRsZXIgaW52b2tlZDwvdGV4dD48cG9seWdvbiBmaWxsPSIjMTgxODE4IiBwb2ludHM9Ijc1NCw0NjMuNDIxOSw3NjQsNDY3LjQyMTksNzU0LDQ3MS40MjE5LDc1OCw0NjcuNDIxOSIgc3R5bGU9InN0cm9rZTojMTgxODE4O3N0cm9rZS13aWR0aDoxLjA7Ii8+PGxpbmUgc3R5bGU9InN0cm9rZTojMTgxODE4O3N0cm9rZS13aWR0aDoxLjA7IiB4MT0iNTczIiB4Mj0iNzYwIiB5MT0iNDY3LjQyMTkiIHkyPSI0NjcuNDIxOSIvPjx0ZXh0IGZpbGw9IiMwMDAwMDAiIGZvbnQtZmFtaWx5PSJzYW5zLXNlcmlmIiBmb250LXNpemU9IjEzIiBmb250LXdlaWdodD0iYm9sZCIgbGVuZ3RoQWRqdXN0PSJzcGFjaW5nIiB0ZXh0TGVuZ3RoPSI5IiB4PSI1ODAiIHk9IjQ2Mi4zNTYiPjM8L3RleHQ+PHRleHQgZmlsbD0iIzAwMDAwMCIgZm9udC1mYW1pbHk9InNhbnMtc2VyaWYiIGZvbnQtc2l6ZT0iMTMiIGxlbmd0aEFkanVzdD0ic3BhY2luZyIgdGV4dExlbmd0aD0iMTQxIiB4PSI1OTMiIHk9IjQ2Mi4zNTYiPlNlcnZpY2UgbGF5ZXIgaW52b2tlZDwvdGV4dD48cG9seWdvbiBmaWxsPSIjMTgxODE4IiBwb2ludHM9Ijk4OCw0OTIuNTU0Nyw5OTgsNDk2LjU1NDcsOTg4LDUwMC41NTQ3LDk5Miw0OTYuNTU0NyIgc3R5bGU9InN0cm9rZTojMTgxODE4O3N0cm9rZS13aWR0aDoxLjA7Ii8+PGxpbmUgc3R5bGU9InN0cm9rZTojMTgxODE4O3N0cm9rZS13aWR0aDoxLjA7IiB4MT0iNzY2IiB4Mj0iOTk0IiB5MT0iNDk2LjU1NDciIHkyPSI0OTYuNTU0NyIvPjx0ZXh0IGZpbGw9IiMwMDAwMDAiIGZvbnQtZmFtaWx5PSJzYW5zLXNlcmlmIiBmb250LXNpemU9IjEzIiBmb250LXdlaWdodD0iYm9sZCIgbGVuZ3RoQWRqdXN0PSJzcGFjaW5nIiB0ZXh0TGVuZ3RoPSI5IiB4PSI3NzMiIHk9IjQ5MS40ODg4Ij40PC90ZXh0Pjx0ZXh0IGZpbGw9IiMwMDAwMDAiIGZvbnQtZmFtaWx5PSJzYW5zLXNlcmlmIiBmb250LXNpemU9IjEzIiBsZW5ndGhBZGp1c3Q9InNwYWNpbmciIHRleHRMZW5ndGg9IjExNiIgeD0iNzg2IiB5PSI0OTEuNDg4OCI+RG9tYWluIHRvIGZhY2FkZTwvdGV4dD48cG9seWdvbiBmaWxsPSIjMTgxODE4IiBwb2ludHM9IjE3NjYsNjI3LjYxNzIsMTc3Niw2MzEuNjE3MiwxNzY2LDYzNS42MTcyLDE3NzAsNjMxLjYxNzIiIHN0eWxlPSJzdHJva2U6IzE4MTgxODtzdHJva2Utd2lkdGg6MS4wOyIvPjxsaW5lIHN0eWxlPSJzdHJva2U6IzE4MTgxODtzdHJva2Utd2lkdGg6MS4wOyIgeDE9IjEwMDAiIHgyPSIxNzcyIiB5MT0iNjMxLjYxNzIiIHkyPSI2MzEuNjE3MiIvPjx0ZXh0IGZpbGw9IiMwMDAwMDAiIGZvbnQtZmFtaWx5PSJzYW5zLXNlcmlmIiBmb250LXNpemU9IjEzIiBmb250LXdlaWdodD0iYm9sZCIgbGVuZ3RoQWRqdXN0PSJzcGFjaW5nIiB0ZXh0TGVuZ3RoPSI5IiB4PSIxMDA3IiB5PSI1NzMuNTg2NCI+NTwvdGV4dD48dGV4dCBmaWxsPSIjMDAwMDAwIiBmb250LWZhbWlseT0ic2Fucy1zZXJpZiIgZm9udC1zaXplPSIxMyIgbGVuZ3RoQWRqdXN0PSJzcGFjaW5nIiB0ZXh0TGVuZ3RoPSIzNjIiIHg9IjEwMjAiIHk9IjUyMC42MjE2Ij5QZXJmb3JtIHRoZSBmb2xsb3dpbmcgdmFsaWRhdGlvbnMgYWdhaW5zdCB0aGUgZGF0YWJhc2U6PC90ZXh0PjxlbGxpcHNlIGN4PSIxMDI1LjUiIGN5PSI1MzEuMzIwMyIgZmlsbD0iIzAwMDAwMCIgcng9IjIuNSIgcnk9IjIuNSIgc3R5bGU9InN0cm9rZTojMDAwMDAwO3N0cm9rZS13aWR0aDowLjA7Ii8+PHRleHQgZmlsbD0iIzAwMDAwMCIgZm9udC1mYW1pbHk9InNhbnMtc2VyaWYiIGZvbnQtc2l6ZT0iMTMiIGZvbnQtc3R5bGU9Iml0YWxpYyIgbGVuZ3RoQWRqdXN0PSJzcGFjaW5nIiB0ZXh0TGVuZ3RoPSIyMzAiIHg9IjEwMzMiIHk9IjUzNS43NTQ0Ij52YWxpZGF0ZUZzcGlvcFNvdXJjZU1hdGNoZXNQYXllcjwvdGV4dD48ZWxsaXBzZSBjeD0iMTAyNS41IiBjeT0iNTQ2LjQ1MzEiIGZpbGw9IiMwMDAwMDAiIHJ4PSIyLjUiIHJ5PSIyLjUiIHN0eWxlPSJzdHJva2U6IzAwMDAwMDtzdHJva2Utd2lkdGg6MC4wOyIvPjx0ZXh0IGZpbGw9IiMwMDAwMDAiIGZvbnQtZmFtaWx5PSJzYW5zLXNlcmlmIiBmb250LXNpemU9IjEzIiBmb250LXN0eWxlPSJpdGFsaWMiIGxlbmd0aEFkanVzdD0ic3BhY2luZyIgdGV4dExlbmd0aD0iMTc5IiB4PSIxMDMzIiB5PSI1NTAuODg3MiI+dmFsaWRhdGVQYXJ0aWNpcGFudEJ5TmFtZTwvdGV4dD48ZWxsaXBzZSBjeD0iMTAyNS41IiBjeT0iNTYxLjU4NTkiIGZpbGw9IiMwMDAwMDAiIHJ4PSIyLjUiIHJ5PSIyLjUiIHN0eWxlPSJzdHJva2U6IzAwMDAwMDtzdHJva2Utd2lkdGg6MC4wOyIvPjx0ZXh0IGZpbGw9IiMwMDAwMDAiIGZvbnQtZmFtaWx5PSJzYW5zLXNlcmlmIiBmb250LXNpemU9IjEzIiBmb250LXN0eWxlPSJpdGFsaWMiIGxlbmd0aEFkanVzdD0ic3BhY2luZyIgdGV4dExlbmd0aD0iMjk2IiB4PSIxMDMzIiB5PSI1NjYuMDIiPnZhbGlkYXRlUG9zaXRpb25BY2NvdW50QnlOYW1lQW5kQ3VycmVuY3k8L3RleHQ+PGVsbGlwc2UgY3g9IjEwMjUuNSIgY3k9IjU3Ni43MTg4IiBmaWxsPSIjMDAwMDAwIiByeD0iMi41IiByeT0iMi41IiBzdHlsZT0ic3Ryb2tlOiMwMDAwMDA7c3Ryb2tlLXdpZHRoOjAuMDsiLz48dGV4dCBmaWxsPSIjMDAwMDAwIiBmb250LWZhbWlseT0ic2Fucy1zZXJpZiIgZm9udC1zaXplPSIxMyIgZm9udC1zdHlsZT0iaXRhbGljIiBsZW5ndGhBZGp1c3Q9InNwYWNpbmciIHRleHRMZW5ndGg9IjE3OSIgeD0iMTAzMyIgeT0iNTgxLjE1MjgiPnZhbGlkYXRlUGFydGljaXBhbnRCeU5hbWU8L3RleHQ+PGVsbGlwc2UgY3g9IjEwMjUuNSIgY3k9IjU5MS44NTE2IiBmaWxsPSIjMDAwMDAwIiByeD0iMi41IiByeT0iMi41IiBzdHlsZT0ic3Ryb2tlOiMwMDAwMDA7c3Ryb2tlLXdpZHRoOjAuMDsiLz48dGV4dCBmaWxsPSIjMDAwMDAwIiBmb250LWZhbWlseT0ic2Fucy1zZXJpZiIgZm9udC1zaXplPSIxMyIgZm9udC1zdHlsZT0iaXRhbGljIiBsZW5ndGhBZGp1c3Q9InNwYWNpbmciIHRleHRMZW5ndGg9IjEwNCIgeD0iMTAzMyIgeT0iNTk2LjI4NTYiPnZhbGlkYXRlQW1vdW50PC90ZXh0PjxlbGxpcHNlIGN4PSIxMDI1LjUiIGN5PSI2MDYuOTg0NCIgZmlsbD0iIzAwMDAwMCIgcng9IjIuNSIgcnk9IjIuNSIgc3R5bGU9InN0cm9rZTojMDAwMDAwO3N0cm9rZS13aWR0aDowLjA7Ii8+PHRleHQgZmlsbD0iIzAwMDAwMCIgZm9udC1mYW1pbHk9InNhbnMtc2VyaWYiIGZvbnQtc2l6ZT0iMTMiIGZvbnQtc3R5bGU9Iml0YWxpYyIgbGVuZ3RoQWRqdXN0PSJzcGFjaW5nIiB0ZXh0TGVuZ3RoPSIyMDYiIHg9IjEwMzMiIHk9IjYxMS40MTg1Ij52YWxpZGF0ZUNvbmRpdGlvbkFuZEV4cGlyYXRpb248L3RleHQ+PGVsbGlwc2UgY3g9IjEwMjUuNSIgY3k9IjYyMi4xMTcyIiBmaWxsPSIjMDAwMDAwIiByeD0iMi41IiByeT0iMi41IiBzdHlsZT0ic3Ryb2tlOiMwMDAwMDA7c3Ryb2tlLXdpZHRoOjAuMDsiLz48dGV4dCBmaWxsPSIjMDAwMDAwIiBmb250LWZhbWlseT0ic2Fucy1zZXJpZiIgZm9udC1zaXplPSIxMyIgZm9udC1zdHlsZT0iaXRhbGljIiBsZW5ndGhBZGp1c3Q9InNwYWNpbmciIHRleHRMZW5ndGg9IjE0MSIgeD0iMTAzMyIgeT0iNjI2LjU1MTMiPnZhbGlkYXRlRGlmZmVyZW50RGZzcDwvdGV4dD48cG9seWdvbiBmaWxsPSIjMTgxODE4IiBwb2ludHM9IjE4NTIsNjcxLjg4MjgsMTg2Miw2NzUuODgyOCwxODUyLDY3OS44ODI4LDE4NTYsNjc1Ljg4MjgiIHN0eWxlPSJzdHJva2U6IzE4MTgxODtzdHJva2Utd2lkdGg6MS4wOyIvPjxsaW5lIHN0eWxlPSJzdHJva2U6IzE4MTgxODtzdHJva2Utd2lkdGg6MS4wOyIgeDE9IjEwMDAiIHgyPSIxODU4IiB5MT0iNjc1Ljg4MjgiIHkyPSI2NzUuODgyOCIvPjx0ZXh0IGZpbGw9IiMwMDAwMDAiIGZvbnQtZmFtaWx5PSJzYW5zLXNlcmlmIiBmb250LXNpemU9IjEzIiBmb250LXdlaWdodD0iYm9sZCIgbGVuZ3RoQWRqdXN0PSJzcGFjaW5nIiB0ZXh0TGVuZ3RoPSI5IiB4PSIxMDA3IiB5PSI2NjMuMjUwNSI+NjwvdGV4dD48dGV4dCBmaWxsPSIjMDAwMDAwIiBmb250LWZhbWlseT0ic2Fucy1zZXJpZiIgZm9udC1zaXplPSIxMyIgbGVuZ3RoQWRqdXN0PSJzcGFjaW5nIiB0ZXh0TGVuZ3RoPSIxNzQiIHg9IjEwMjAiIHk9IjY1NS42ODQxIj5Mb29rdXAgcGFydGljaXBhbnQgZGF0YSBieTwvdGV4dD48dGV4dCBmaWxsPSIjMDAwMDAwIiBmb250LWZhbWlseT0ic2Fucy1zZXJpZiIgZm9udC1zaXplPSIxMyIgZm9udC1zdHlsZT0iaXRhbGljIiBsZW5ndGhBZGp1c3Q9InNwYWNpbmciIHRleHRMZW5ndGg9IjM3IiB4PSIxMDIwIiB5PSI2NzAuODE2OSI+bmFtZTwvdGV4dD48dGV4dCBmaWxsPSIjMDAwMDAwIiBmb250LWZhbWlseT0ic2Fucy1zZXJpZiIgZm9udC1zaXplPSIxMyIgbGVuZ3RoQWRqdXN0PSJzcGFjaW5nIiB0ZXh0TGVuZ3RoPSI0IiB4PSIxMDU3IiB5PSI2NzAuODE2OSI+LDwvdGV4dD48dGV4dCBmaWxsPSIjMDAwMDAwIiBmb250LWZhbWlseT0ic2Fucy1zZXJpZiIgZm9udC1zaXplPSIxMyIgZm9udC1zdHlsZT0iaXRhbGljIiBsZW5ndGhBZGp1c3Q9InNwYWNpbmciIHRleHRMZW5ndGg9Ijg0IiB4PSIxMDY1IiB5PSI2NzAuODE2OSI+YWNjb3VudCB0eXBlPC90ZXh0Pjx0ZXh0IGZpbGw9IiMwMDAwMDAiIGZvbnQtZmFtaWx5PSJzYW5zLXNlcmlmIiBmb250LXNpemU9IjEzIiBsZW5ndGhBZGp1c3Q9InNwYWNpbmciIHRleHRMZW5ndGg9IjEwMCIgeD0iMTE1MyIgeT0iNjcwLjgxNjkiPihQT1NJVElPTikgYW5kPC90ZXh0Pjx0ZXh0IGZpbGw9IiMwMDAwMDAiIGZvbnQtZmFtaWx5PSJzYW5zLXNlcmlmIiBmb250LXNpemU9IjEzIiBmb250LXN0eWxlPSJpdGFsaWMiIGxlbmd0aEFkanVzdD0ic3BhY2luZyIgdGV4dExlbmd0aD0iNTYiIHg9IjEyNTciIHk9IjY3MC44MTY5Ij5jdXJyZW5jeTwvdGV4dD48dGV4dCBmaWxsPSIjMDAwMDAwIiBmb250LWZhbWlseT0ic2Fucy1zZXJpZiIgZm9udC1zaXplPSIxMyIgbGVuZ3RoQWRqdXN0PSJzcGFjaW5nIiB0ZXh0TGVuZ3RoPSI0IiB4PSIxMzEzIiB5PSI2NzAuODE2OSI+LjwvdGV4dD48cG9seWdvbiBmaWxsPSIjMTgxODE4IiBwb2ludHM9IjE3NjYsNzAxLjAxNTYsMTc3Niw3MDUuMDE1NiwxNzY2LDcwOS4wMTU2LDE3NzAsNzA1LjAxNTYiIHN0eWxlPSJzdHJva2U6IzE4MTgxODtzdHJva2Utd2lkdGg6MS4wOyIvPjxsaW5lIHN0eWxlPSJzdHJva2U6IzE4MTgxODtzdHJva2Utd2lkdGg6MS4wO3N0cm9rZS1kYXNoYXJyYXk6Mi4wLDIuMDsiIHgxPSIxMDAwIiB4Mj0iMTc3MiIgeTE9IjcwNS4wMTU2IiB5Mj0iNzA1LjAxNTYiLz48dGV4dCBmaWxsPSIjMDAwMDAwIiBmb250LWZhbWlseT0ic2Fucy1zZXJpZiIgZm9udC1zaXplPSIxMyIgbGVuZ3RoQWRqdXN0PSJzcGFjaW5nIiB0ZXh0TGVuZ3RoPSI1MTYiIHg9IjEwMDciIHk9IjY5OS45NDk3Ij5JZiB0aGUgcGFydGljaXBhbnQgZGF0YSBpcyBub3QgYXZhaWxhYmxlIGluIFJlZGlzLCBhIGRhdGFiYXNlIGxvb2t1cCBpcyBwZXJmb3JtZWQ8L3RleHQ+PHBvbHlnb24gZmlsbD0iIzE4MTgxOCIgcG9pbnRzPSIxODUyLDczMC4xNDg0LDE4NjIsNzM0LjE0ODQsMTg1Miw3MzguMTQ4NCwxODU2LDczNC4xNDg0IiBzdHlsZT0ic3Ryb2tlOiMxODE4MTg7c3Ryb2tlLXdpZHRoOjEuMDsiLz48bGluZSBzdHlsZT0ic3Ryb2tlOiMxODE4MTg7c3Ryb2tlLXdpZHRoOjEuMDtzdHJva2UtZGFzaGFycmF5OjIuMCwyLjA7IiB4MT0iMTAwMCIgeDI9IjE4NTgiIHkxPSI3MzQuMTQ4NCIgeTI9IjczNC4xNDg0Ii8+PHRleHQgZmlsbD0iIzAwMDAwMCIgZm9udC1mYW1pbHk9InNhbnMtc2VyaWYiIGZvbnQtc2l6ZT0iMTMiIGxlbmd0aEFkanVzdD0ic3BhY2luZyIgdGV4dExlbmd0aD0iMjUwIiB4PSIxMDA3IiB5PSI3MjkuMDgyNSI+RGF0YSBsb29rZWQgdXAgaXMgbm93IHN0b3JlZCBpbiBSZWRpcy48L3RleHQ+PHBvbHlnb24gZmlsbD0iIzE4MTgxOCIgcG9pbnRzPSIxMzY2LDc1OS4yODEzLDEzNzYsNzYzLjI4MTMsMTM2Niw3NjcuMjgxMywxMzcwLDc2My4yODEzIiBzdHlsZT0ic3Ryb2tlOiMxODE4MTg7c3Ryb2tlLXdpZHRoOjEuMDsiLz48bGluZSBzdHlsZT0ic3Ryb2tlOiMxODE4MTg7c3Ryb2tlLXdpZHRoOjEuMDsiIHgxPSIxMDAwIiB4Mj0iMTM3MiIgeTE9Ijc2My4yODEzIiB5Mj0iNzYzLjI4MTMiLz48dGV4dCBmaWxsPSIjMDAwMDAwIiBmb250LWZhbWlseT0ic2Fucy1zZXJpZiIgZm9udC1zaXplPSIxMyIgZm9udC13ZWlnaHQ9ImJvbGQiIGxlbmd0aEFkanVzdD0ic3BhY2luZyIgdGV4dExlbmd0aD0iOSIgeD0iMTAwNyIgeT0iNzU4LjIxNTMiPjc8L3RleHQ+PHRleHQgZmlsbD0iIzAwMDAwMCIgZm9udC1mYW1pbHk9InNhbnMtc2VyaWYiIGZvbnQtc2l6ZT0iMTMiIGxlbmd0aEFkanVzdD0ic3BhY2luZyIgdGV4dExlbmd0aD0iNTIiIHg9IjEwMjAiIHk9Ijc1OC4yMTUzIj5QZW5kaW5nPC90ZXh0Pjx0ZXh0IGZpbGw9IiMwMDAwMDAiIGZvbnQtZmFtaWx5PSJzYW5zLXNlcmlmIiBmb250LXNpemU9IjEzIiBmb250LXN0eWxlPSJpdGFsaWMiIGxlbmd0aEFkanVzdD0ic3BhY2luZyIgdGV4dExlbmd0aD0iNTQiIHg9IjEwNzYiIHk9Ijc1OC4yMTUzIj5UcmFuc2ZlcjwvdGV4dD48dGV4dCBmaWxsPSIjMDAwMDAwIiBmb250LWZhbWlseT0ic2Fucy1zZXJpZiIgZm9udC1zaXplPSIxMyIgbGVuZ3RoQWRqdXN0PSJzcGFjaW5nIiB0ZXh0TGVuZ3RoPSIyMjIiIHg9IjExMzQiIHk9Ijc1OC4yMTUzIj5yZXF1ZXN0ZWQgdmlhIHRoZSBDTC1UQiBpbnRlcmZhY2UuPC90ZXh0Pjxwb2x5Z29uIGZpbGw9IiMxODE4MTgiIHBvaW50cz0iMTU5OSw4MDMuNTQ2OSwxNjA5LDgwNy41NDY5LDE1OTksODExLjU0NjksMTYwMyw4MDcuNTQ2OSIgc3R5bGU9InN0cm9rZTojMTgxODE4O3N0cm9rZS13aWR0aDoxLjA7Ii8+PGxpbmUgc3R5bGU9InN0cm9rZTojMTgxODE4O3N0cm9rZS13aWR0aDoxLjA7IiB4MT0iMTM3OCIgeDI9IjE2MDUiIHkxPSI4MDcuNTQ2OSIgeTI9IjgwNy41NDY5Ii8+PHRleHQgZmlsbD0iIzAwMDAwMCIgZm9udC1mYW1pbHk9InNhbnMtc2VyaWYiIGZvbnQtc2l6ZT0iMTMiIGZvbnQtd2VpZ2h0PSJib2xkIiBsZW5ndGhBZGp1c3Q9InNwYWNpbmciIHRleHRMZW5ndGg9IjkiIHg9IjEzODUiIHk9Ijc5NC45MTQ2Ij44PC90ZXh0Pjx0ZXh0IGZpbGw9IiMwMDAwMDAiIGZvbnQtZmFtaWx5PSJzYW5zLXNlcmlmIiBmb250LXNpemU9IjEzIiBmb250LXN0eWxlPSJpdGFsaWMiIGxlbmd0aEFkanVzdD0ic3BhY2luZyIgdGV4dExlbmd0aD0iNTEiIHg9IjEzOTgiIHk9Ijc4Ny4zNDgxIj50cmFuc2ZlcjwvdGV4dD48dGV4dCBmaWxsPSIjMDAwMDAwIiBmb250LWZhbWlseT0ic2Fucy1zZXJpZiIgZm9udC1zaXplPSIxMyIgbGVuZ3RoQWRqdXN0PSJzcGFjaW5nIiB0ZXh0TGVuZ3RoPSIxMzIiIHg9IjE0NTMiIHk9Ijc4Ny4zNDgxIj5EaXN0cmlidXRlZCB0byBub2RlczwvdGV4dD48dGV4dCBmaWxsPSIjMDAwMDAwIiBmb250LWZhbWlseT0ic2Fucy1zZXJpZiIgZm9udC1zaXplPSIxMyIgbGVuZ3RoQWRqdXN0PSJzcGFjaW5nIiB0ZXh0TGVuZ3RoPSIxNDYiIHg9IjE0MDIiIHk9IjgwMi40ODEiPnZpYSB0aGUgc3RhdGUgbWFjaGluZS48L3RleHQ+PGxpbmUgc3R5bGU9InN0cm9rZTojMTgxODE4O3N0cm9rZS13aWR0aDoxLjA7IiB4MT0iMTYxMSIgeDI9IjE2NTMiIHkxPSI4MzYuNjc5NyIgeTI9IjgzNi42Nzk3Ii8+PGxpbmUgc3R5bGU9InN0cm9rZTojMTgxODE4O3N0cm9rZS13aWR0aDoxLjA7IiB4MT0iMTY1MyIgeDI9IjE2NTMiIHkxPSI4MzYuNjc5NyIgeTI9Ijg0OS42Nzk3Ii8+PGxpbmUgc3R5bGU9InN0cm9rZTojMTgxODE4O3N0cm9rZS13aWR0aDoxLjA7IiB4MT0iMTYxMiIgeDI9IjE2NTMiIHkxPSI4NDkuNjc5NyIgeTI9Ijg0OS42Nzk3Ii8+PHBvbHlnb24gZmlsbD0iIzE4MTgxOCIgcG9pbnRzPSIxNjIyLDg0NS42Nzk3LDE2MTIsODQ5LjY3OTcsMTYyMiw4NTMuNjc5NywxNjE4LDg0OS42Nzk3IiBzdHlsZT0ic3Ryb2tlOiMxODE4MTg7c3Ryb2tlLXdpZHRoOjEuMDsiLz48dGV4dCBmaWxsPSIjMDAwMDAwIiBmb250LWZhbWlseT0ic2Fucy1zZXJpZiIgZm9udC1zaXplPSIxMyIgZm9udC13ZWlnaHQ9ImJvbGQiIGxlbmd0aEFkanVzdD0ic3BhY2luZyIgdGV4dExlbmd0aD0iOSIgeD0iMTYxOCIgeT0iODMxLjYxMzgiPjk8L3RleHQ+PHRleHQgZmlsbD0iIzAwMDAwMCIgZm9udC1mYW1pbHk9InNhbnMtc2VyaWYiIGZvbnQtc2l6ZT0iMTMiIGxlbmd0aEFkanVzdD0ic3BhY2luZyIgdGV4dExlbmd0aD0iMTMxIiB4PSIxNjMxIiB5PSI4MzEuNjEzOCI+UmVwbGljYXRpb24gdmlhIFZTUi48L3RleHQ+PHBvbHlnb24gZmlsbD0iIzE4MTgxOCIgcG9pbnRzPSIxMDExLDg3NC44MTI1LDEwMDEsODc4LjgxMjUsMTAxMSw4ODIuODEyNSwxMDA3LDg3OC44MTI1IiBzdHlsZT0ic3Ryb2tlOiMxODE4MTg7c3Ryb2tlLXdpZHRoOjEuMDsiLz48bGluZSBzdHlsZT0ic3Ryb2tlOiMxODE4MTg7c3Ryb2tlLXdpZHRoOjEuMDtzdHJva2UtZGFzaGFycmF5OjIuMCwyLjA7IiB4MT0iMTAwNSIgeDI9IjEzNzciIHkxPSI4NzguODEyNSIgeTI9Ijg3OC44MTI1Ii8+PHRleHQgZmlsbD0iIzAwMDAwMCIgZm9udC1mYW1pbHk9InNhbnMtc2VyaWYiIGZvbnQtc2l6ZT0iMTMiIGZvbnQtd2VpZ2h0PSJib2xkIiBsZW5ndGhBZGp1c3Q9InNwYWNpbmciIHRleHRMZW5ndGg9IjE4IiB4PSIxMDE3IiB5PSI4NzMuNzQ2NiI+MTA8L3RleHQ+PHRleHQgZmlsbD0iIzAwMDAwMCIgZm9udC1mYW1pbHk9InNhbnMtc2VyaWYiIGZvbnQtc2l6ZT0iMTMiIGZvbnQtc3R5bGU9Iml0YWxpYyIgbGVuZ3RoQWRqdXN0PSJzcGFjaW5nIiB0ZXh0TGVuZ3RoPSI1MSIgeD0iMTAzOSIgeT0iODczLjc0NjYiPnRyYW5zZmVyPC90ZXh0Pjx0ZXh0IGZpbGw9IiMwMDAwMDAiIGZvbnQtZmFtaWx5PSJzYW5zLXNlcmlmIiBmb250LXNpemU9IjEzIiBsZW5ndGhBZGp1c3Q9InNwYWNpbmciIHRleHRMZW5ndGg9Ijc2IiB4PSIxMDk0IiB5PSI4NzMuNzQ2NiI+Y3JlYXRlIGVycm9yPC90ZXh0Pjx0ZXh0IGZpbGw9IiMwMDAwMDAiIGZvbnQtZmFtaWx5PSJzYW5zLXNlcmlmIiBmb250LXNpemU9IjEzIiBmb250LXdlaWdodD0iYm9sZCIgbGVuZ3RoQWRqdXN0PSJzcGFjaW5nIiB0ZXh0TGVuZ3RoPSI0OCIgeD0iMTE3NCIgeT0iODczLjc0NjYiPihub25lKTwvdGV4dD48cG9seWdvbiBmaWxsPSIjMTgxODE4IiBwb2ludHM9Ijc3Nyw5MDMuOTQ1Myw3NjcsOTA3Ljk0NTMsNzc3LDkxMS45NDUzLDc3Myw5MDcuOTQ1MyIgc3R5bGU9InN0cm9rZTojMTgxODE4O3N0cm9rZS13aWR0aDoxLjA7Ii8+PGxpbmUgc3R5bGU9InN0cm9rZTojMTgxODE4O3N0cm9rZS13aWR0aDoxLjA7c3Ryb2tlLWRhc2hhcnJheToyLjAsMi4wOyIgeDE9Ijc3MSIgeDI9Ijk5OSIgeTE9IjkwNy45NDUzIiB5Mj0iOTA3Ljk0NTMiLz48dGV4dCBmaWxsPSIjMDAwMDAwIiBmb250LWZhbWlseT0ic2Fucy1zZXJpZiIgZm9udC1zaXplPSIxMyIgZm9udC13ZWlnaHQ9ImJvbGQiIGxlbmd0aEFkanVzdD0ic3BhY2luZyIgdGV4dExlbmd0aD0iMTgiIHg9Ijc4MyIgeT0iOTAyLjg3OTQiPjExPC90ZXh0Pjx0ZXh0IGZpbGw9IiMwMDAwMDAiIGZvbnQtZmFtaWx5PSJzYW5zLXNlcmlmIiBmb250LXNpemU9IjEzIiBsZW5ndGhBZGp1c3Q9InNwYWNpbmciIHRleHRMZW5ndGg9Ijg0IiB4PSI4MDUiIHk9IjkwMi44Nzk0Ij5SZXR1cm4gcmVzdWx0PC90ZXh0Pjxwb2x5Z29uIGZpbGw9IiMxODE4MTgiIHBvaW50cz0iNTg0LDkzMy4wNzgxLDU3NCw5MzcuMDc4MSw1ODQsOTQxLjA3ODEsNTgwLDkzNy4wNzgxIiBzdHlsZT0ic3Ryb2tlOiMxODE4MTg7c3Ryb2tlLXdpZHRoOjEuMDsiLz48bGluZSBzdHlsZT0ic3Ryb2tlOiMxODE4MTg7c3Ryb2tlLXdpZHRoOjEuMDtzdHJva2UtZGFzaGFycmF5OjIuMCwyLjA7IiB4MT0iNTc4IiB4Mj0iNzY1IiB5MT0iOTM3LjA3ODEiIHkyPSI5MzcuMDc4MSIvPjx0ZXh0IGZpbGw9IiMwMDAwMDAiIGZvbnQtZmFtaWx5PSJzYW5zLXNlcmlmIiBmb250LXNpemU9IjEzIiBmb250LXdlaWdodD0iYm9sZCIgbGVuZ3RoQWRqdXN0PSJzcGFjaW5nIiB0ZXh0TGVuZ3RoPSIxOCIgeD0iNTkwIiB5PSI5MzIuMDEyMiI+MTI8L3RleHQ+PHRleHQgZmlsbD0iIzAwMDAwMCIgZm9udC1mYW1pbHk9InNhbnMtc2VyaWYiIGZvbnQtc2l6ZT0iMTMiIGxlbmd0aEFkanVzdD0ic3BhY2luZyIgdGV4dExlbmd0aD0iODQiIHg9IjYxMiIgeT0iOTMyLjAxMjIiPlJldHVybiByZXN1bHQ8L3RleHQ+PHBvbHlnb24gZmlsbD0iIzE4MTgxOCIgcG9pbnRzPSIzODAsOTYyLjIxMDksMzcwLDk2Ni4yMTA5LDM4MCw5NzAuMjEwOSwzNzYsOTY2LjIxMDkiIHN0eWxlPSJzdHJva2U6IzE4MTgxODtzdHJva2Utd2lkdGg6MS4wOyIvPjxsaW5lIHN0eWxlPSJzdHJva2U6IzE4MTgxODtzdHJva2Utd2lkdGg6MS4wO3N0cm9rZS1kYXNoYXJyYXk6Mi4wLDIuMDsiIHgxPSIzNzQiIHgyPSI1NzIiIHkxPSI5NjYuMjEwOSIgeTI9Ijk2Ni4yMTA5Ii8+PHRleHQgZmlsbD0iIzAwMDAwMCIgZm9udC1mYW1pbHk9InNhbnMtc2VyaWYiIGZvbnQtc2l6ZT0iMTMiIGZvbnQtd2VpZ2h0PSJib2xkIiBsZW5ndGhBZGp1c3Q9InNwYWNpbmciIHRleHRMZW5ndGg9IjE4IiB4PSIzODYiIHk9Ijk2MS4xNDUiPjEzPC90ZXh0Pjx0ZXh0IGZpbGw9IiMwMDAwMDAiIGZvbnQtZmFtaWx5PSJzYW5zLXNlcmlmIiBmb250LXNpemU9IjEzIiBsZW5ndGhBZGp1c3Q9InNwYWNpbmciIHRleHRMZW5ndGg9Ijg0IiB4PSI0MDgiIHk9Ijk2MS4xNDUiPlJldHVybiByZXN1bHQ8L3RleHQ+PHBvbHlnb24gZmlsbD0iIzE4MTgxOCIgcG9pbnRzPSI5Nyw5OTEuMzQzOCw4Nyw5OTUuMzQzOCw5Nyw5OTkuMzQzOCw5Myw5OTUuMzQzOCIgc3R5bGU9InN0cm9rZTojMTgxODE4O3N0cm9rZS13aWR0aDoxLjA7Ii8+PGxpbmUgc3R5bGU9InN0cm9rZTojMTgxODE4O3N0cm9rZS13aWR0aDoxLjA7c3Ryb2tlLWRhc2hhcnJheToyLjAsMi4wOyIgeDE9IjkxIiB4Mj0iMzY4IiB5MT0iOTk1LjM0MzgiIHkyPSI5OTUuMzQzOCIvPjx0ZXh0IGZpbGw9IiMwMDAwMDAiIGZvbnQtZmFtaWx5PSJzYW5zLXNlcmlmIiBmb250LXNpemU9IjEzIiBmb250LXdlaWdodD0iYm9sZCIgbGVuZ3RoQWRqdXN0PSJzcGFjaW5nIiB0ZXh0TGVuZ3RoPSIxOCIgeD0iMTAzIiB5PSI5OTAuMjc3OCI+MTQ8L3RleHQ+PHRleHQgZmlsbD0iIzAwMDAwMCIgZm9udC1mYW1pbHk9InNhbnMtc2VyaWYiIGZvbnQtc2l6ZT0iMTMiIGxlbmd0aEFkanVzdD0ic3BhY2luZyIgdGV4dExlbmd0aD0iMTE2IiB4PSIxMjUiIHk9Ijk5MC4yNzc4Ij5SZXR1cm4gcmVzdWx0IHdpdGg8L3RleHQ+PHRleHQgZmlsbD0iIzAwMDAwMCIgZm9udC1mYW1pbHk9InNhbnMtc2VyaWYiIGZvbnQtc2l6ZT0iMTMiIGZvbnQtc3R5bGU9Iml0YWxpYyIgZm9udC13ZWlnaHQ9ImJvbGQiIGxlbmd0aEFkanVzdD0ic3BhY2luZyIgdGV4dExlbmd0aD0iNzMiIHg9IjI0NSIgeT0iOTkwLjI3NzgiPnRyYW5zZmVySWQ8L3RleHQ+PHJlY3QgZmlsbD0iI0VFRUVFRSIgaGVpZ2h0PSIzIiBzdHlsZT0ic3Ryb2tlOiNFRUVFRUU7c3Ryb2tlLXdpZHRoOjEuMDsiIHdpZHRoPSIxOTA2LjUiIHg9IjAiIHk9IjEwMjMuOTEwMiIvPjxsaW5lIHN0eWxlPSJzdHJva2U6IzAwMDAwMDtzdHJva2Utd2lkdGg6MS4wOyIgeDE9IjAiIHgyPSIxOTA2LjUiIHkxPSIxMDIzLjkxMDIiIHkyPSIxMDIzLjkxMDIiLz48bGluZSBzdHlsZT0ic3Ryb2tlOiMwMDAwMDA7c3Ryb2tlLXdpZHRoOjEuMDsiIHgxPSIwIiB4Mj0iMTkwNi41IiB5MT0iMTAyNi45MTAyIiB5Mj0iMTAyNi45MTAyIi8+PHJlY3QgZmlsbD0iI0VFRUVFRSIgaGVpZ2h0PSIyMy4xMzI4IiBzdHlsZT0ic3Ryb2tlOiMwMDAwMDA7c3Ryb2tlLXdpZHRoOjIuMDsiIHdpZHRoPSIzMjAiIHg9Ijc5My4yNSIgeT0iMTAxMy4zNDM4Ii8+PHRleHQgZmlsbD0iIzAwMDAwMCIgZm9udC1mYW1pbHk9InNhbnMtc2VyaWYiIGZvbnQtc2l6ZT0iMTMiIGZvbnQtd2VpZ2h0PSJib2xkIiBsZW5ndGhBZGp1c3Q9InNwYWNpbmciIHRleHRMZW5ndGg9IjMwMSIgeD0iNzk5LjI1IiB5PSIxMDI5LjQxMDYiPkFzeW5jaHJvbm91cyBEYXRhYmFzZSBBY3Rpdml0aWVzIFNUQVJUPC90ZXh0Pjxwb2x5Z29uIGZpbGw9IiMxODE4MTgiIHBvaW50cz0iMTc2NiwxMDc4Ljc0MjIsMTc3NiwxMDgyLjc0MjIsMTc2NiwxMDg2Ljc0MjIsMTc3MCwxMDgyLjc0MjIiIHN0eWxlPSJzdHJva2U6IzE4MTgxODtzdHJva2Utd2lkdGg6MS4wOyIvPjxsaW5lIHN0eWxlPSJzdHJva2U6IzE4MTgxODtzdHJva2Utd2lkdGg6MS4wOyIgeDE9IjEwMDAiIHgyPSIxNzcyIiB5MT0iMTA4Mi43NDIyIiB5Mj0iMTA4Mi43NDIyIi8+PHRleHQgZmlsbD0iIzAwMDAwMCIgZm9udC1mYW1pbHk9InNhbnMtc2VyaWYiIGZvbnQtc2l6ZT0iMTMiIGZvbnQtd2VpZ2h0PSJib2xkIiBsZW5ndGhBZGp1c3Q9InNwYWNpbmciIHRleHRMZW5ndGg9IjE4IiB4PSIxMDA3IiB5PSIxMDcwLjEwOTkiPjE1PC90ZXh0Pjx0ZXh0IGZpbGw9IiMwMDAwMDAiIGZvbnQtZmFtaWx5PSJzYW5zLXNlcmlmIiBmb250LXNpemU9IjEzIiBmb250LXdlaWdodD0iYm9sZCIgbGVuZ3RoQWRqdXN0PSJzcGFjaW5nIiB0ZXh0TGVuZ3RoPSI4OSIgeD0iMTAyOSIgeT0iMTA2Mi41NDM1Ij5bQVNZTkMgMS4xXTwvdGV4dD48ZWxsaXBzZSBjeD0iMTAzNC41IiBjeT0iMTA3My4yNDIyIiBmaWxsPSIjMDAwMDAwIiByeD0iMi41IiByeT0iMi41IiBzdHlsZT0ic3Ryb2tlOiMwMDAwMDA7c3Ryb2tlLXdpZHRoOjAuMDsiLz48dGV4dCBmaWxsPSIjMDAwMDAwIiBmb250LWZhbWlseT0ic2Fucy1zZXJpZiIgZm9udC1zaXplPSIxMyIgZm9udC1zdHlsZT0iaXRhbGljIiBsZW5ndGhBZGp1c3Q9InNwYWNpbmciIHRleHRMZW5ndGg9IjE1MyIgeD0iMTA0MiIgeT0iMTA3Ny42NzYzIj50cmFuc2ZlckR1cGxpY2F0ZUNoZWNrPC90ZXh0Pjx0ZXh0IGZpbGw9IiMwMDAwMDAiIGZvbnQtZmFtaWx5PSJzYW5zLXNlcmlmIiBmb250LXNpemU9IjEzIiBsZW5ndGhBZGp1c3Q9InNwYWNpbmciIHRleHRMZW5ndGg9IjEyMSIgeD0iMTE5OSIgeT0iMTA3Ny42NzYzIj5EQiByZWNvcmQgY3JlYXRlZC48L3RleHQ+PHBvbHlnb24gZmlsbD0iIzE4MTgxOCIgcG9pbnRzPSIxNzY2LDExOTguNjcxOSwxNzc2LDEyMDIuNjcxOSwxNzY2LDEyMDYuNjcxOSwxNzcwLDEyMDIuNjcxOSIgc3R5bGU9InN0cm9rZTojMTgxODE4O3N0cm9rZS13aWR0aDoxLjA7Ii8+PGxpbmUgc3R5bGU9InN0cm9rZTojMTgxODE4O3N0cm9rZS13aWR0aDoxLjA7IiB4MT0iMTAwMCIgeDI9IjE3NzIiIHkxPSIxMjAyLjY3MTkiIHkyPSIxMjAyLjY3MTkiLz48dGV4dCBmaWxsPSIjMDAwMDAwIiBmb250LWZhbWlseT0ic2Fucy1zZXJpZiIgZm9udC1zaXplPSIxMyIgZm9udC13ZWlnaHQ9ImJvbGQiIGxlbmd0aEFkanVzdD0ic3BhY2luZyIgdGV4dExlbmd0aD0iMTgiIHg9IjEwMDciIHk9IjExNTIuMjA3NSI+MTY8L3RleHQ+PHRleHQgZmlsbD0iIzAwMDAwMCIgZm9udC1mYW1pbHk9InNhbnMtc2VyaWYiIGZvbnQtc2l6ZT0iMTMiIGZvbnQtd2VpZ2h0PSJib2xkIiBsZW5ndGhBZGp1c3Q9InNwYWNpbmciIHRleHRMZW5ndGg9Ijg5IiB4PSIxMDI5IiB5PSIxMTA2LjgwOTEiPltBU1lOQyAxLjJdPC90ZXh0PjxlbGxpcHNlIGN4PSIxMDM0LjUiIGN5PSIxMTE3LjUwNzgiIGZpbGw9IiMwMDAwMDAiIHJ4PSIyLjUiIHJ5PSIyLjUiIHN0eWxlPSJzdHJva2U6IzAwMDAwMDtzdHJva2Utd2lkdGg6MC4wOyIvPjx0ZXh0IGZpbGw9IiMwMDAwMDAiIGZvbnQtZmFtaWx5PSJzYW5zLXNlcmlmIiBmb250LXNpemU9IjEzIiBmb250LXN0eWxlPSJpdGFsaWMiIGxlbmd0aEFkanVzdD0ic3BhY2luZyIgdGV4dExlbmd0aD0iNTEiIHg9IjEwNDIiIHk9IjExMjEuOTQxOSI+dHJhbnNmZXI8L3RleHQ+PHRleHQgZmlsbD0iIzAwMDAwMCIgZm9udC1mYW1pbHk9InNhbnMtc2VyaWYiIGZvbnQtc2l6ZT0iMTMiIGxlbmd0aEFkanVzdD0ic3BhY2luZyIgdGV4dExlbmd0aD0iNCIgeD0iMTA5MyIgeT0iMTEyMS45NDE5Ij4sPC90ZXh0PjxlbGxpcHNlIGN4PSIxMDM0LjUiIGN5PSIxMTMyLjY0MDYiIGZpbGw9IiMwMDAwMDAiIHJ4PSIyLjUiIHJ5PSIyLjUiIHN0eWxlPSJzdHJva2U6IzAwMDAwMDtzdHJva2Utd2lkdGg6MC4wOyIvPjx0ZXh0IGZpbGw9IiMwMDAwMDAiIGZvbnQtZmFtaWx5PSJzYW5zLXNlcmlmIiBmb250LXNpemU9IjEzIiBmb250LXN0eWxlPSJpdGFsaWMiIGxlbmd0aEFkanVzdD0ic3BhY2luZyIgdGV4dExlbmd0aD0iMTIxIiB4PSIxMDQyIiB5PSIxMTM3LjA3NDciPnRyYW5zZmVyUGFydGljaXBhbnQ8L3RleHQ+PHRleHQgZmlsbD0iIzAwMDAwMCIgZm9udC1mYW1pbHk9InNhbnMtc2VyaWYiIGZvbnQtc2l6ZT0iMTMiIGxlbmd0aEFkanVzdD0ic3BhY2luZyIgdGV4dExlbmd0aD0iNCIgeD0iMTE2MyIgeT0iMTEzNy4wNzQ3Ij4sPC90ZXh0PjxlbGxpcHNlIGN4PSIxMDM0LjUiIGN5PSIxMTQ3Ljc3MzQiIGZpbGw9IiMwMDAwMDAiIHJ4PSIyLjUiIHJ5PSIyLjUiIHN0eWxlPSJzdHJva2U6IzAwMDAwMDtzdHJva2Utd2lkdGg6MC4wOyIvPjx0ZXh0IGZpbGw9IiMwMDAwMDAiIGZvbnQtZmFtaWx5PSJzYW5zLXNlcmlmIiBmb250LXNpemU9IjEzIiBmb250LXN0eWxlPSJpdGFsaWMiIGxlbmd0aEFkanVzdD0ic3BhY2luZyIgdGV4dExlbmd0aD0iNjAiIHg9IjEwNDIiIHk9IjExNTIuMjA3NSI+aWxwUGFja2V0PC90ZXh0PjxlbGxpcHNlIGN4PSIxMDM0LjUiIGN5PSIxMTYyLjkwNjMiIGZpbGw9IiMwMDAwMDAiIHJ4PSIyLjUiIHJ5PSIyLjUiIHN0eWxlPSJzdHJva2U6IzAwMDAwMDtzdHJva2Utd2lkdGg6MC4wOyIvPjx0ZXh0IGZpbGw9IiMwMDAwMDAiIGZvbnQtZmFtaWx5PSJzYW5zLXNlcmlmIiBmb250LXNpemU9IjEzIiBmb250LXN0eWxlPSJpdGFsaWMiIGxlbmd0aEFkanVzdD0ic3BhY2luZyIgdGV4dExlbmd0aD0iMTM0IiB4PSIxMDQyIiB5PSIxMTY3LjM0MDMiPnRyYW5zZmVyU3RhdGVDaGFuZ2U8L3RleHQ+PGVsbGlwc2UgY3g9IjEwMzQuNSIgY3k9IjExNzguMDM5MSIgZmlsbD0iIzAwMDAwMCIgcng9IjIuNSIgcnk9IjIuNSIgc3R5bGU9InN0cm9rZTojMDAwMDAwO3N0cm9rZS13aWR0aDowLjA7Ii8+PHRleHQgZmlsbD0iIzAwMDAwMCIgZm9udC1mYW1pbHk9InNhbnMtc2VyaWYiIGZvbnQtc2l6ZT0iMTMiIGZvbnQtc3R5bGU9Iml0YWxpYyIgbGVuZ3RoQWRqdXN0PSJzcGFjaW5nIiB0ZXh0TGVuZ3RoPSIxMTUiIHg9IjEwNDIiIHk9IjExODIuNDczMSI+dHJhbnNmZXJFeHRlbnNpb248L3RleHQ+PHRleHQgZmlsbD0iIzAwMDAwMCIgZm9udC1mYW1pbHk9InNhbnMtc2VyaWYiIGZvbnQtc2l6ZT0iMTMiIGxlbmd0aEFkanVzdD0ic3BhY2luZyIgdGV4dExlbmd0aD0iMTcxIiB4PSIxMDI5IiB5PSIxMTk3LjYwNiI+RGF0YWJhc2UgcmVjb3JkcyBjcmVhdGVkLjwvdGV4dD48cG9seWdvbiBmaWxsPSIjMTgxODE4IiBwb2ludHM9IjEwMTEsMTI0Mi45Mzc1LDEwMDEsMTI0Ni45Mzc1LDEwMTEsMTI1MC45Mzc1LDEwMDcsMTI0Ni45Mzc1IiBzdHlsZT0ic3Ryb2tlOiMxODE4MTg7c3Ryb2tlLXdpZHRoOjEuMDsiLz48cG9seWdvbiBmaWxsPSIjMTgxODE4IiBwb2ludHM9IjE3NjYsMTI0Mi45Mzc1LDE3NzYsMTI0Ni45Mzc1LDE3NjYsMTI1MC45Mzc1LDE3NzAsMTI0Ni45Mzc1IiBzdHlsZT0ic3Ryb2tlOiMxODE4MTg7c3Ryb2tlLXdpZHRoOjEuMDsiLz48bGluZSBzdHlsZT0ic3Ryb2tlOiMxODE4MTg7c3Ryb2tlLXdpZHRoOjEuMDtzdHJva2UtZGFzaGFycmF5OjIuMCwyLjA7IiB4MT0iMTAwNSIgeDI9IjE3NzIiIHkxPSIxMjQ2LjkzNzUiIHkyPSIxMjQ2LjkzNzUiLz48dGV4dCBmaWxsPSIjMDAwMDAwIiBmb250LWZhbWlseT0ic2Fucy1zZXJpZiIgZm9udC1zaXplPSIxMyIgZm9udC13ZWlnaHQ9ImJvbGQiIGxlbmd0aEFkanVzdD0ic3BhY2luZyIgdGV4dExlbmd0aD0iMTgiIHg9IjEwMTciIHk9IjEyMzQuMzA1MiI+MTc8L3RleHQ+PHRleHQgZmlsbD0iIzAwMDAwMCIgZm9udC1mYW1pbHk9InNhbnMtc2VyaWYiIGZvbnQtc2l6ZT0iMTMiIGZvbnQtd2VpZ2h0PSJib2xkIiBsZW5ndGhBZGp1c3Q9InNwYWNpbmciIHRleHRMZW5ndGg9Ijg5IiB4PSIxMDM5IiB5PSIxMjI2LjczODgiPltBU1lOQyAxLjNdPC90ZXh0Pjx0ZXh0IGZpbGw9IiMwMDAwMDAiIGZvbnQtZmFtaWx5PSJzYW5zLXNlcmlmIiBmb250LXNpemU9IjEzIiBsZW5ndGhBZGp1c3Q9InNwYWNpbmciIHRleHRMZW5ndGg9IjIxOCIgeD0iMTA0MyIgeT0iMTI0MS44NzE2Ij5EYXRhYmFzZSB0cmFuc2FjdGlvbiBjb21taXR0ZWQuPC90ZXh0PjxyZWN0IGZpbGw9IiNFRUVFRUUiIGhlaWdodD0iMyIgc3R5bGU9InN0cm9rZTojRUVFRUVFO3N0cm9rZS13aWR0aDoxLjA7IiB3aWR0aD0iMTkwNi41IiB4PSIwIiB5PSIxMjc1LjUwMzkiLz48bGluZSBzdHlsZT0ic3Ryb2tlOiMwMDAwMDA7c3Ryb2tlLXdpZHRoOjEuMDsiIHgxPSIwIiB4Mj0iMTkwNi41IiB5MT0iMTI3NS41MDM5IiB5Mj0iMTI3NS41MDM5Ii8+PGxpbmUgc3R5bGU9InN0cm9rZTojMDAwMDAwO3N0cm9rZS13aWR0aDoxLjA7IiB4MT0iMCIgeDI9IjE5MDYuNSIgeTE9IjEyNzguNTAzOSIgeTI9IjEyNzguNTAzOSIvPjxyZWN0IGZpbGw9IiNFRUVFRUUiIGhlaWdodD0iMjMuMTMyOCIgc3R5bGU9InN0cm9rZTojMDAwMDAwO3N0cm9rZS13aWR0aDoyLjA7IiB3aWR0aD0iMzEyIiB4PSI3OTcuMjUiIHk9IjEyNjQuOTM3NSIvPjx0ZXh0IGZpbGw9IiMwMDAwMDAiIGZvbnQtZmFtaWx5PSJzYW5zLXNlcmlmIiBmb250LXNpemU9IjEzIiBmb250LXdlaWdodD0iYm9sZCIgbGVuZ3RoQWRqdXN0PSJzcGFjaW5nIiB0ZXh0TGVuZ3RoPSIyOTMiIHg9IjgwMy4yNSIgeT0iMTI4MS4wMDQ0Ij5Bc3luY2hyb25vdXMgRGF0YWJhc2UgQWN0aXZpdGllcyBTVE9QPC90ZXh0PjxyZWN0IGZpbGw9IiNFRUVFRUUiIGhlaWdodD0iMyIgc3R5bGU9InN0cm9rZTojRUVFRUVFO3N0cm9rZS13aWR0aDoxLjA7IiB3aWR0aD0iMTkwNi41IiB4PSIwIiB5PSIxMzg4LjYzNjciLz48bGluZSBzdHlsZT0ic3Ryb2tlOiMwMDAwMDA7c3Ryb2tlLXdpZHRoOjEuMDsiIHgxPSIwIiB4Mj0iMTkwNi41IiB5MT0iMTM4OC42MzY3IiB5Mj0iMTM4OC42MzY3Ii8+PGxpbmUgc3R5bGU9InN0cm9rZTojMDAwMDAwO3N0cm9rZS13aWR0aDoxLjA7IiB4MT0iMCIgeDI9IjE5MDYuNSIgeTE9IjEzOTEuNjM2NyIgeTI9IjEzOTEuNjM2NyIvPjxyZWN0IGZpbGw9IiNFRUVFRUUiIGhlaWdodD0iMjMuMTMyOCIgc3R5bGU9InN0cm9rZTojMDAwMDAwO3N0cm9rZS13aWR0aDoyLjA7IiB3aWR0aD0iMTYwIiB4PSI4NzMuMjUiIHk9IjEzNzguMDcwMyIvPjx0ZXh0IGZpbGw9IiMwMDAwMDAiIGZvbnQtZmFtaWx5PSJzYW5zLXNlcmlmIiBmb250LXNpemU9IjEzIiBmb250LXdlaWdodD0iYm9sZCIgbGVuZ3RoQWRqdXN0PSJzcGFjaW5nIiB0ZXh0TGVuZ3RoPSIxNDEiIHg9Ijg3OS4yNSIgeT0iMTM5NC4xMzcyIj5UcmFuc2ZlciBGdWxmaWxtZW50PC90ZXh0Pjxwb2x5Z29uIGZpbGw9IiMxODE4MTgiIHBvaW50cz0iMzU3LDE0NDMuNDY4OCwzNjcsMTQ0Ny40Njg4LDM1NywxNDUxLjQ2ODgsMzYxLDE0NDcuNDY4OCIgc3R5bGU9InN0cm9rZTojMTgxODE4O3N0cm9rZS13aWR0aDoxLjA7Ii8+PGxpbmUgc3R5bGU9InN0cm9rZTojMTgxODE4O3N0cm9rZS13aWR0aDoxLjA7IiB4MT0iODYiIHgyPSIzNjMiIHkxPSIxNDQ3LjQ2ODgiIHkyPSIxNDQ3LjQ2ODgiLz48dGV4dCBmaWxsPSIjMDAwMDAwIiBmb250LWZhbWlseT0ic2Fucy1zZXJpZiIgZm9udC1zaXplPSIxMyIgZm9udC13ZWlnaHQ9ImJvbGQiIGxlbmd0aEFkanVzdD0ic3BhY2luZyIgdGV4dExlbmd0aD0iMTgiIHg9IjkzIiB5PSIxNDM0LjgzNjQiPjE4PC90ZXh0Pjx0ZXh0IGZpbGw9IiMwMDAwMDAiIGZvbnQtZmFtaWx5PSJzYW5zLXNlcmlmIiBmb250LXNpemU9IjEzIiBmb250LXN0eWxlPSJpdGFsaWMiIGxlbmd0aEFkanVzdD0ic3BhY2luZyIgdGV4dExlbmd0aD0iMzIiIHg9IjExNSIgeT0iMTQyNy4yNyI+SlNPTjwvdGV4dD48dGV4dCBmaWxsPSIjMDAwMDAwIiBmb250LWZhbWlseT0ic2Fucy1zZXJpZiIgZm9udC1zaXplPSIxMyIgbGVuZ3RoQWRqdXN0PSJzcGFjaW5nIiB0ZXh0TGVuZ3RoPSI0IiB4PSIxNDciIHk9IjE0MjcuMjciPsKgPC90ZXh0Pjx0ZXh0IGZpbGw9IiMwMDAwMDAiIGZvbnQtZmFtaWx5PSJzYW5zLXNlcmlmIiBmb250LXNpemU9IjEzIiBsZW5ndGhBZGp1c3Q9InNwYWNpbmciIHRleHRMZW5ndGg9IjE1NSIgeD0iMTE1IiB5PSIxNDQyLjQwMjgiPihmdWxmaWwgdHJhbnNmZXIgZGF0YSB3aXRoPC90ZXh0Pjx0ZXh0IGZpbGw9IiMwMDAwMDAiIGZvbnQtZmFtaWx5PSJzYW5zLXNlcmlmIiBmb250LXNpemU9IjEzIiBmb250LXN0eWxlPSJpdGFsaWMiIGZvbnQtd2VpZ2h0PSJib2xkIiBsZW5ndGhBZGp1c3Q9InNwYWNpbmciIHRleHRMZW5ndGg9IjczIiB4PSIyNzQiIHk9IjE0NDIuNDAyOCI+dHJhbnNmZXJJZDwvdGV4dD48dGV4dCBmaWxsPSIjMDAwMDAwIiBmb250LWZhbWlseT0ic2Fucy1zZXJpZiIgZm9udC1zaXplPSIxMyIgbGVuZ3RoQWRqdXN0PSJzcGFjaW5nIiB0ZXh0TGVuZ3RoPSI1IiB4PSIzNDciIHk9IjE0NDIuNDAyOCI+KTwvdGV4dD48cG9seWdvbiBmaWxsPSIjMTgxODE4IiBwb2ludHM9IjU2MSwxNDg3LjczNDQsNTcxLDE0OTEuNzM0NCw1NjEsMTQ5NS43MzQ0LDU2NSwxNDkxLjczNDQiIHN0eWxlPSJzdHJva2U6IzE4MTgxODtzdHJva2Utd2lkdGg6MS4wOyIvPjxsaW5lIHN0eWxlPSJzdHJva2U6IzE4MTgxODtzdHJva2Utd2lkdGg6MS4wOyIgeDE9IjM2OSIgeDI9IjU2NyIgeTE9IjE0OTEuNzM0NCIgeTI9IjE0OTEuNzM0NCIvPjx0ZXh0IGZpbGw9IiMwMDAwMDAiIGZvbnQtZmFtaWx5PSJzYW5zLXNlcmlmIiBmb250LXNpemU9IjEzIiBmb250LXdlaWdodD0iYm9sZCIgbGVuZ3RoQWRqdXN0PSJzcGFjaW5nIiB0ZXh0TGVuZ3RoPSIxOCIgeD0iMzc2IiB5PSIxNDc5LjEwMjEiPjE5PC90ZXh0Pjx0ZXh0IGZpbGw9IiMwMDAwMDAiIGZvbnQtZmFtaWx5PSJzYW5zLXNlcmlmIiBmb250LXNpemU9IjEzIiBmb250LXN0eWxlPSJpdGFsaWMiIGxlbmd0aEFkanVzdD0ic3BhY2luZyIgdGV4dExlbmd0aD0iMTQzIiB4PSIzOTgiIHk9IjE0NzEuNTM1NiI+L2ptZXRlci90cmFuc2ZlcnMvZnVsZmlsPC90ZXh0Pjx0ZXh0IGZpbGw9IiMwMDAwMDAiIGZvbnQtZmFtaWx5PSJzYW5zLXNlcmlmIiBmb250LXNpemU9IjEzIiBsZW5ndGhBZGp1c3Q9InNwYWNpbmciIHRleHRMZW5ndGg9IjQiIHg9IjU0MSIgeT0iMTQ3MS41MzU2Ij7CoDwvdGV4dD48dGV4dCBmaWxsPSIjMDAwMDAwIiBmb250LWZhbWlseT0ic2Fucy1zZXJpZiIgZm9udC1zaXplPSIxMyIgbGVuZ3RoQWRqdXN0PSJzcGFjaW5nIiB0ZXh0TGVuZ3RoPSIxMTEiIHg9IjM5OCIgeT0iMTQ4Ni42Njg1Ij5IYW5kbGVyIGludm9rZWQuPC90ZXh0Pjxwb2x5Z29uIGZpbGw9IiMxODE4MTgiIHBvaW50cz0iNzU0LDE1MzIsNzY0LDE1MzYsNzU0LDE1NDAsNzU4LDE1MzYiIHN0eWxlPSJzdHJva2U6IzE4MTgxODtzdHJva2Utd2lkdGg6MS4wOyIvPjxsaW5lIHN0eWxlPSJzdHJva2U6IzE4MTgxODtzdHJva2Utd2lkdGg6MS4wOyIgeDE9IjU3MyIgeDI9Ijc2MCIgeTE9IjE1MzYiIHkyPSIxNTM2Ii8+PHRleHQgZmlsbD0iIzAwMDAwMCIgZm9udC1mYW1pbHk9InNhbnMtc2VyaWYiIGZvbnQtc2l6ZT0iMTMiIGZvbnQtd2VpZ2h0PSJib2xkIiBsZW5ndGhBZGp1c3Q9InNwYWNpbmciIHRleHRMZW5ndGg9IjE4IiB4PSI1ODAiIHk9IjE1MjMuMzY3NyI+MjA8L3RleHQ+PHRleHQgZmlsbD0iIzAwMDAwMCIgZm9udC1mYW1pbHk9InNhbnMtc2VyaWYiIGZvbnQtc2l6ZT0iMTMiIGxlbmd0aEFkanVzdD0ic3BhY2luZyIgdGV4dExlbmd0aD0iMTQxIiB4PSI2MDIiIHk9IjE1MTUuODAxMyI+U2VydmljZSBsYXllciBpbnZva2VkPC90ZXh0Pjx0ZXh0IGZpbGw9IiMwMDAwMDAiIGZvbnQtZmFtaWx5PSJzYW5zLXNlcmlmIiBmb250LXNpemU9IjEzIiBmb250LXN0eWxlPSJpdGFsaWMiIGxlbmd0aEFkanVzdD0ic3BhY2luZyIgdGV4dExlbmd0aD0iMTQ3IiB4PSI2MDIiIHk9IjE1MzAuOTM0MSI+aGFuZGxlUGF5ZWVSZXNwb25zZTwvdGV4dD48cG9seWdvbiBmaWxsPSIjMTgxODE4IiBwb2ludHM9Ijk4OCwxNTc2LjI2NTYsOTk4LDE1ODAuMjY1Niw5ODgsMTU4NC4yNjU2LDk5MiwxNTgwLjI2NTYiIHN0eWxlPSJzdHJva2U6IzE4MTgxODtzdHJva2Utd2lkdGg6MS4wOyIvPjxsaW5lIHN0eWxlPSJzdHJva2U6IzE4MTgxODtzdHJva2Utd2lkdGg6MS4wOyIgeDE9Ijc2NiIgeDI9Ijk5NCIgeTE9IjE1ODAuMjY1NiIgeTI9IjE1ODAuMjY1NiIvPjx0ZXh0IGZpbGw9IiMwMDAwMDAiIGZvbnQtZmFtaWx5PSJzYW5zLXNlcmlmIiBmb250LXNpemU9IjEzIiBmb250LXdlaWdodD0iYm9sZCIgbGVuZ3RoQWRqdXN0PSJzcGFjaW5nIiB0ZXh0TGVuZ3RoPSIxOCIgeD0iNzczIiB5PSIxNTY3LjYzMzMiPjIxPC90ZXh0Pjx0ZXh0IGZpbGw9IiMwMDAwMDAiIGZvbnQtZmFtaWx5PSJzYW5zLXNlcmlmIiBmb250LXNpemU9IjEzIiBsZW5ndGhBZGp1c3Q9InNwYWNpbmciIHRleHRMZW5ndGg9IjExNiIgeD0iNzk1IiB5PSIxNTYwLjA2NjkiPkRvbWFpbiB0byBmYWNhZGU8L3RleHQ+PHRleHQgZmlsbD0iIzAwMDAwMCIgZm9udC1mYW1pbHk9InNhbnMtc2VyaWYiIGZvbnQtc2l6ZT0iMTMiIGZvbnQtc3R5bGU9Iml0YWxpYyIgbGVuZ3RoQWRqdXN0PSJzcGFjaW5nIiB0ZXh0TGVuZ3RoPSIxODgiIHg9Ijc5NSIgeT0iMTU3NS4xOTk3Ij5zYXZlUGF5ZWVUcmFuc2ZlclJlc3BvbnNlPC90ZXh0Pjxwb2x5Z29uIGZpbGw9IiMxODE4MTgiIHBvaW50cz0iMTc2NiwxNjA1LjM5ODQsMTc3NiwxNjA5LjM5ODQsMTc2NiwxNjEzLjM5ODQsMTc3MCwxNjA5LjM5ODQiIHN0eWxlPSJzdHJva2U6IzE4MTgxODtzdHJva2Utd2lkdGg6MS4wOyIvPjxsaW5lIHN0eWxlPSJzdHJva2U6IzE4MTgxODtzdHJva2Utd2lkdGg6MS4wOyIgeDE9IjEwMDAiIHgyPSIxNzcyIiB5MT0iMTYwOS4zOTg0IiB5Mj0iMTYwOS4zOTg0Ii8+PHRleHQgZmlsbD0iIzAwMDAwMCIgZm9udC1mYW1pbHk9InNhbnMtc2VyaWYiIGZvbnQtc2l6ZT0iMTMiIGZvbnQtd2VpZ2h0PSJib2xkIiBsZW5ndGhBZGp1c3Q9InNwYWNpbmciIHRleHRMZW5ndGg9IjE4IiB4PSIxMDA3IiB5PSIxNjA0LjMzMjUiPjIyPC90ZXh0Pjx0ZXh0IGZpbGw9IiMwMDAwMDAiIGZvbnQtZmFtaWx5PSJzYW5zLXNlcmlmIiBmb250LXNpemU9IjEzIiBsZW5ndGhBZGp1c3Q9InNwYWNpbmciIHRleHRMZW5ndGg9IjI3MCIgeD0iMTAyOSIgeT0iMTYwNC4zMzI1Ij5OZXcgRGF0YWJhc2UgdHJhbnNhY3Rpb24gZm9yIGZ1bGZpbGxtZW50LjwvdGV4dD48cG9seWdvbiBmaWxsPSIjMTgxODE4IiBwb2ludHM9IjE3NjYsMTYzNC41MzEzLDE3NzYsMTYzOC41MzEzLDE3NjYsMTY0Mi41MzEzLDE3NzAsMTYzOC41MzEzIiBzdHlsZT0ic3Ryb2tlOiMxODE4MTg7c3Ryb2tlLXdpZHRoOjEuMDsiLz48bGluZSBzdHlsZT0ic3Ryb2tlOiMxODE4MTg7c3Ryb2tlLXdpZHRoOjEuMDsiIHgxPSIxMDAwIiB4Mj0iMTc3MiIgeTE9IjE2MzguNTMxMyIgeTI9IjE2MzguNTMxMyIvPjx0ZXh0IGZpbGw9IiMwMDAwMDAiIGZvbnQtZmFtaWx5PSJzYW5zLXNlcmlmIiBmb250LXNpemU9IjEzIiBmb250LXdlaWdodD0iYm9sZCIgbGVuZ3RoQWRqdXN0PSJzcGFjaW5nIiB0ZXh0TGVuZ3RoPSIxOCIgeD0iMTAwNyIgeT0iMTYzMy40NjUzIj4yMzwvdGV4dD48dGV4dCBmaWxsPSIjMDAwMDAwIiBmb250LWZhbWlseT0ic2Fucy1zZXJpZiIgZm9udC1zaXplPSIxMyIgbGVuZ3RoQWRqdXN0PSJzcGFjaW5nIiB0ZXh0TGVuZ3RoPSI0MyIgeD0iMTAyOSIgeT0iMTYzMy40NjUzIj5PYnRhaW48L3RleHQ+PHRleHQgZmlsbD0iIzAwMDAwMCIgZm9udC1mYW1pbHk9InNhbnMtc2VyaWYiIGZvbnQtc2l6ZT0iMTMiIGZvbnQtc3R5bGU9Iml0YWxpYyIgZm9udC13ZWlnaHQ9ImJvbGQiIGxlbmd0aEFkanVzdD0ic3BhY2luZyIgdGV4dExlbmd0aD0iMTUxIiB4PSIxMDc2IiB5PSIxNjMzLjQ2NTMiPnNldHRsZW1lbnRXaW5kb3dJZDwvdGV4dD48dGV4dCBmaWxsPSIjMDAwMDAwIiBmb250LWZhbWlseT0ic2Fucy1zZXJpZiIgZm9udC1zaXplPSIxMyIgbGVuZ3RoQWRqdXN0PSJzcGFjaW5nIiB0ZXh0TGVuZ3RoPSIxNjgiIHg9IjEyMzEiIHk9IjE2MzMuNDY1MyI+Zm9yIHdpbmRvdyB3aGVyZSBzdGF0ZSBpczwvdGV4dD48dGV4dCBmaWxsPSIjMDAwMDAwIiBmb250LWZhbWlseT0ic2Fucy1zZXJpZiIgZm9udC1zaXplPSIxMyIgZm9udC13ZWlnaHQ9ImJvbGQiIGxlbmd0aEFkanVzdD0ic3BhY2luZyIgdGV4dExlbmd0aD0iNDEiIHg9IjE0MDMiIHk9IjE2MzMuNDY1MyI+T1BFTjwvdGV4dD48dGV4dCBmaWxsPSIjMDAwMDAwIiBmb250LWZhbWlseT0ic2Fucy1zZXJpZiIgZm9udC1zaXplPSIxMyIgbGVuZ3RoQWRqdXN0PSJzcGFjaW5nIiB0ZXh0TGVuZ3RoPSI0IiB4PSIxNDQ0IiB5PSIxNjMzLjQ2NTMiPi48L3RleHQ+PHBvbHlnb24gZmlsbD0iIzE4MTgxOCIgcG9pbnRzPSIxMzY2LDE2NjMuNjY0MSwxMzc2LDE2NjcuNjY0MSwxMzY2LDE2NzEuNjY0MSwxMzcwLDE2NjcuNjY0MSIgc3R5bGU9InN0cm9rZTojMTgxODE4O3N0cm9rZS13aWR0aDoxLjA7Ii8+PGxpbmUgc3R5bGU9InN0cm9rZTojMTgxODE4O3N0cm9rZS13aWR0aDoxLjA7IiB4MT0iMTAwMCIgeDI9IjEzNzIiIHkxPSIxNjY3LjY2NDEiIHkyPSIxNjY3LjY2NDEiLz48dGV4dCBmaWxsPSIjMDAwMDAwIiBmb250LWZhbWlseT0ic2Fucy1zZXJpZiIgZm9udC1zaXplPSIxMyIgZm9udC13ZWlnaHQ9ImJvbGQiIGxlbmd0aEFkanVzdD0ic3BhY2luZyIgdGV4dExlbmd0aD0iMTgiIHg9IjEwMDciIHk9IjE2NjIuNTk4MSI+MjQ8L3RleHQ+PHRleHQgZmlsbD0iIzAwMDAwMCIgZm9udC1mYW1pbHk9InNhbnMtc2VyaWYiIGZvbnQtc2l6ZT0iMTMiIGZvbnQtc3R5bGU9Iml0YWxpYyIgbGVuZ3RoQWRqdXN0PSJzcGFjaW5nIiB0ZXh0TGVuZ3RoPSI1NCIgeD0iMTAyOSIgeT0iMTY2Mi41OTgxIj5UcmFuc2ZlcjwvdGV4dD48dGV4dCBmaWxsPSIjMDAwMDAwIiBmb250LWZhbWlseT0ic2Fucy1zZXJpZiIgZm9udC1zaXplPSIxMyIgbGVuZ3RoQWRqdXN0PSJzcGFjaW5nIiB0ZXh0TGVuZ3RoPSIyNzQiIHg9IjEwODciIHk9IjE2NjIuNTk4MSI+cG9zdGluZyByZXF1ZXN0ZWQgdmlhIHRoZSBDTC1UQiBpbnRlcmZhY2UuPC90ZXh0Pjxwb2x5Z29uIGZpbGw9IiMxODE4MTgiIHBvaW50cz0iMTU5OSwxNzA3LjkyOTcsMTYwOSwxNzExLjkyOTcsMTU5OSwxNzE1LjkyOTcsMTYwMywxNzExLjkyOTciIHN0eWxlPSJzdHJva2U6IzE4MTgxODtzdHJva2Utd2lkdGg6MS4wOyIvPjxsaW5lIHN0eWxlPSJzdHJva2U6IzE4MTgxODtzdHJva2Utd2lkdGg6MS4wOyIgeDE9IjEzNzgiIHgyPSIxNjA1IiB5MT0iMTcxMS45Mjk3IiB5Mj0iMTcxMS45Mjk3Ii8+PHRleHQgZmlsbD0iIzAwMDAwMCIgZm9udC1mYW1pbHk9InNhbnMtc2VyaWYiIGZvbnQtc2l6ZT0iMTMiIGZvbnQtd2VpZ2h0PSJib2xkIiBsZW5ndGhBZGp1c3Q9InNwYWNpbmciIHRleHRMZW5ndGg9IjE4IiB4PSIxMzg1IiB5PSIxNjk5LjI5NzQiPjI1PC90ZXh0Pjx0ZXh0IGZpbGw9IiMwMDAwMDAiIGZvbnQtZmFtaWx5PSJzYW5zLXNlcmlmIiBmb250LXNpemU9IjEzIiBmb250LXN0eWxlPSJpdGFsaWMiIGxlbmd0aEFkanVzdD0ic3BhY2luZyIgdGV4dExlbmd0aD0iNTEiIHg9IjE0MDciIHk9IjE2OTEuNzMxIj50cmFuc2ZlcjwvdGV4dD48dGV4dCBmaWxsPSIjMDAwMDAwIiBmb250LWZhbWlseT0ic2Fucy1zZXJpZiIgZm9udC1zaXplPSIxMyIgbGVuZ3RoQWRqdXN0PSJzcGFjaW5nIiB0ZXh0TGVuZ3RoPSIxMzIiIHg9IjE0NjIiIHk9IjE2OTEuNzMxIj5EaXN0cmlidXRlZCB0byBub2RlczwvdGV4dD48dGV4dCBmaWxsPSIjMDAwMDAwIiBmb250LWZhbWlseT0ic2Fucy1zZXJpZiIgZm9udC1zaXplPSIxMyIgbGVuZ3RoQWRqdXN0PSJzcGFjaW5nIiB0ZXh0TGVuZ3RoPSIxNDYiIHg9IjE0MTEiIHk9IjE3MDYuODYzOCI+dmlhIHRoZSBzdGF0ZSBtYWNoaW5lLjwvdGV4dD48bGluZSBzdHlsZT0ic3Ryb2tlOiMxODE4MTg7c3Ryb2tlLXdpZHRoOjEuMDsiIHgxPSIxNjExIiB4Mj0iMTY1MyIgeTE9IjE3NDEuMDYyNSIgeTI9IjE3NDEuMDYyNSIvPjxsaW5lIHN0eWxlPSJzdHJva2U6IzE4MTgxODtzdHJva2Utd2lkdGg6MS4wOyIgeDE9IjE2NTMiIHgyPSIxNjUzIiB5MT0iMTc0MS4wNjI1IiB5Mj0iMTc1NC4wNjI1Ii8+PGxpbmUgc3R5bGU9InN0cm9rZTojMTgxODE4O3N0cm9rZS13aWR0aDoxLjA7IiB4MT0iMTYxMiIgeDI9IjE2NTMiIHkxPSIxNzU0LjA2MjUiIHkyPSIxNzU0LjA2MjUiLz48cG9seWdvbiBmaWxsPSIjMTgxODE4IiBwb2ludHM9IjE2MjIsMTc1MC4wNjI1LDE2MTIsMTc1NC4wNjI1LDE2MjIsMTc1OC4wNjI1LDE2MTgsMTc1NC4wNjI1IiBzdHlsZT0ic3Ryb2tlOiMxODE4MTg7c3Ryb2tlLXdpZHRoOjEuMDsiLz48dGV4dCBmaWxsPSIjMDAwMDAwIiBmb250LWZhbWlseT0ic2Fucy1zZXJpZiIgZm9udC1zaXplPSIxMyIgZm9udC13ZWlnaHQ9ImJvbGQiIGxlbmd0aEFkanVzdD0ic3BhY2luZyIgdGV4dExlbmd0aD0iMTgiIHg9IjE2MTgiIHk9IjE3MzUuOTk2NiI+MjY8L3RleHQ+PHRleHQgZmlsbD0iIzAwMDAwMCIgZm9udC1mYW1pbHk9InNhbnMtc2VyaWYiIGZvbnQtc2l6ZT0iMTMiIGxlbmd0aEFkanVzdD0ic3BhY2luZyIgdGV4dExlbmd0aD0iMTMxIiB4PSIxNjQwIiB5PSIxNzM1Ljk5NjYiPlJlcGxpY2F0aW9uIHZpYSBWU1IuPC90ZXh0Pjxwb2x5Z29uIGZpbGw9IiMxODE4MTgiIHBvaW50cz0iMTAxMSwxNzc5LjE5NTMsMTAwMSwxNzgzLjE5NTMsMTAxMSwxNzg3LjE5NTMsMTAwNywxNzgzLjE5NTMiIHN0eWxlPSJzdHJva2U6IzE4MTgxODtzdHJva2Utd2lkdGg6MS4wOyIvPjxsaW5lIHN0eWxlPSJzdHJva2U6IzE4MTgxODtzdHJva2Utd2lkdGg6MS4wO3N0cm9rZS1kYXNoYXJyYXk6Mi4wLDIuMDsiIHgxPSIxMDA1IiB4Mj0iMTM3NyIgeTE9IjE3ODMuMTk1MyIgeTI9IjE3ODMuMTk1MyIvPjx0ZXh0IGZpbGw9IiMwMDAwMDAiIGZvbnQtZmFtaWx5PSJzYW5zLXNlcmlmIiBmb250LXNpemU9IjEzIiBmb250LXdlaWdodD0iYm9sZCIgbGVuZ3RoQWRqdXN0PSJzcGFjaW5nIiB0ZXh0TGVuZ3RoPSIxOCIgeD0iMTAxNyIgeT0iMTc3OC4xMjk0Ij4yNzwvdGV4dD48dGV4dCBmaWxsPSIjMDAwMDAwIiBmb250LWZhbWlseT0ic2Fucy1zZXJpZiIgZm9udC1zaXplPSIxMyIgZm9udC1zdHlsZT0iaXRhbGljIiBsZW5ndGhBZGp1c3Q9InNwYWNpbmciIHRleHRMZW5ndGg9IjUxIiB4PSIxMDM5IiB5PSIxNzc4LjEyOTQiPnRyYW5zZmVyPC90ZXh0Pjx0ZXh0IGZpbGw9IiMwMDAwMDAiIGZvbnQtZmFtaWx5PSJzYW5zLXNlcmlmIiBmb250LXNpemU9IjEzIiBsZW5ndGhBZGp1c3Q9InNwYWNpbmciIHRleHRMZW5ndGg9IjEyOCIgeD0iMTA5NCIgeT0iMTc3OC4xMjk0Ij5wb3N0aW5nIGNyZWF0ZSBlcnJvcjwvdGV4dD48dGV4dCBmaWxsPSIjMDAwMDAwIiBmb250LWZhbWlseT0ic2Fucy1zZXJpZiIgZm9udC1zaXplPSIxMyIgZm9udC13ZWlnaHQ9ImJvbGQiIGxlbmd0aEFkanVzdD0ic3BhY2luZyIgdGV4dExlbmd0aD0iNDgiIHg9IjEyMjYiIHk9IjE3NzguMTI5NCI+KG5vbmUpPC90ZXh0Pjx0ZXh0IGZpbGw9IiMwMDAwMDAiIGZvbnQtZmFtaWx5PSJzYW5zLXNlcmlmIiBmb250LXNpemU9IjEzIiBsZW5ndGhBZGp1c3Q9InNwYWNpbmciIHRleHRMZW5ndGg9IjQiIHg9IjEyNzQiIHk9IjE3NzguMTI5NCI+LjwvdGV4dD48cG9seWdvbiBmaWxsPSIjMTgxODE4IiBwb2ludHM9IjE3NjYsMTg1My43MjY2LDE3NzYsMTg1Ny43MjY2LDE3NjYsMTg2MS43MjY2LDE3NzAsMTg1Ny43MjY2IiBzdHlsZT0ic3Ryb2tlOiMxODE4MTg7c3Ryb2tlLXdpZHRoOjEuMDsiLz48bGluZSBzdHlsZT0ic3Ryb2tlOiMxODE4MTg7c3Ryb2tlLXdpZHRoOjEuMDsiIHgxPSIxMDAwIiB4Mj0iMTc3MiIgeTE9IjE4NTcuNzI2NiIgeTI9IjE4NTcuNzI2NiIvPjx0ZXh0IGZpbGw9IiMwMDAwMDAiIGZvbnQtZmFtaWx5PSJzYW5zLXNlcmlmIiBmb250LXNpemU9IjEzIiBmb250LXdlaWdodD0iYm9sZCIgbGVuZ3RoQWRqdXN0PSJzcGFjaW5nIiB0ZXh0TGVuZ3RoPSIxOCIgeD0iMTAwNyIgeT0iMTgyOS45NjE0Ij4yODwvdGV4dD48dGV4dCBmaWxsPSIjMDAwMDAwIiBmb250LWZhbWlseT0ic2Fucy1zZXJpZiIgZm9udC1zaXplPSIxMyIgbGVuZ3RoQWRqdXN0PSJzcGFjaW5nIiB0ZXh0TGVuZ3RoPSI0MyIgeD0iMTAyOSIgeT0iMTgwNy4yNjIyIj5DcmVhdGU8L3RleHQ+PGVsbGlwc2UgY3g9IjEwMzQuNSIgY3k9IjE4MTcuOTYwOSIgZmlsbD0iIzAwMDAwMCIgcng9IjIuNSIgcnk9IjIuNSIgc3R5bGU9InN0cm9rZTojMDAwMDAwO3N0cm9rZS13aWR0aDowLjA7Ii8+PHRleHQgZmlsbD0iIzAwMDAwMCIgZm9udC1mYW1pbHk9InNhbnMtc2VyaWYiIGZvbnQtc2l6ZT0iMTMiIGZvbnQtc3R5bGU9Iml0YWxpYyIgbGVuZ3RoQWRqdXN0PSJzcGFjaW5nIiB0ZXh0TGVuZ3RoPSIxMTciIHg9IjEwNDIiIHk9IjE4MjIuMzk1Ij50cmFuc2ZlckZ1bGZpbG1lbnQ8L3RleHQ+PGVsbGlwc2UgY3g9IjEwMzQuNSIgY3k9IjE4MzMuMDkzOCIgZmlsbD0iIzAwMDAwMCIgcng9IjIuNSIgcnk9IjIuNSIgc3R5bGU9InN0cm9rZTojMDAwMDAwO3N0cm9rZS13aWR0aDowLjA7Ii8+PHRleHQgZmlsbD0iIzAwMDAwMCIgZm9udC1mYW1pbHk9InNhbnMtc2VyaWYiIGZvbnQtc2l6ZT0iMTMiIGZvbnQtc3R5bGU9Iml0YWxpYyIgbGVuZ3RoQWRqdXN0PSJzcGFjaW5nIiB0ZXh0TGVuZ3RoPSIxMzQiIHg9IjEwNDIiIHk9IjE4MzcuNTI3OCI+dHJhbnNmZXJTdGF0ZUNoYW5nZTwvdGV4dD48dGV4dCBmaWxsPSIjMDAwMDAwIiBmb250LWZhbWlseT0ic2Fucy1zZXJpZiIgZm9udC1zaXplPSIxMyIgbGVuZ3RoQWRqdXN0PSJzcGFjaW5nIiB0ZXh0TGVuZ3RoPSIxMTgiIHg9IjEwMjkiIHk9IjE4NTIuNjYwNiI+RGF0YWJhc2UgcmVjb3Jkcy48L3RleHQ+PHBvbHlnb24gZmlsbD0iIzE4MTgxOCIgcG9pbnRzPSIxNzY2LDE4ODIuODU5NCwxNzc2LDE4ODYuODU5NCwxNzY2LDE4OTAuODU5NCwxNzcwLDE4ODYuODU5NCIgc3R5bGU9InN0cm9rZTojMTgxODE4O3N0cm9rZS13aWR0aDoxLjA7Ii8+PGxpbmUgc3R5bGU9InN0cm9rZTojMTgxODE4O3N0cm9rZS13aWR0aDoxLjA7IiB4MT0iMTAwMCIgeDI9IjE3NzIiIHkxPSIxODg2Ljg1OTQiIHkyPSIxODg2Ljg1OTQiLz48dGV4dCBmaWxsPSIjMDAwMDAwIiBmb250LWZhbWlseT0ic2Fucy1zZXJpZiIgZm9udC1zaXplPSIxMyIgZm9udC13ZWlnaHQ9ImJvbGQiIGxlbmd0aEFkanVzdD0ic3BhY2luZyIgdGV4dExlbmd0aD0iMTgiIHg9IjEwMDciIHk9IjE4ODEuNzkzNSI+Mjk8L3RleHQ+PHRleHQgZmlsbD0iIzAwMDAwMCIgZm9udC1mYW1pbHk9InNhbnMtc2VyaWYiIGZvbnQtc2l6ZT0iMTMiIGxlbmd0aEFkanVzdD0ic3BhY2luZyIgdGV4dExlbmd0aD0iMjE4IiB4PSIxMDI5IiB5PSIxODgxLjc5MzUiPkRhdGFiYXNlIHRyYW5zYWN0aW9uIGNvbW1pdHRlZC48L3RleHQ+PHBvbHlnb24gZmlsbD0iIzE4MTgxOCIgcG9pbnRzPSI3NzcsMTkxMS45OTIyLDc2NywxOTE1Ljk5MjIsNzc3LDE5MTkuOTkyMiw3NzMsMTkxNS45OTIyIiBzdHlsZT0ic3Ryb2tlOiMxODE4MTg7c3Ryb2tlLXdpZHRoOjEuMDsiLz48bGluZSBzdHlsZT0ic3Ryb2tlOiMxODE4MTg7c3Ryb2tlLXdpZHRoOjEuMDtzdHJva2UtZGFzaGFycmF5OjIuMCwyLjA7IiB4MT0iNzcxIiB4Mj0iOTk5IiB5MT0iMTkxNS45OTIyIiB5Mj0iMTkxNS45OTIyIi8+PHRleHQgZmlsbD0iIzAwMDAwMCIgZm9udC1mYW1pbHk9InNhbnMtc2VyaWYiIGZvbnQtc2l6ZT0iMTMiIGZvbnQtd2VpZ2h0PSJib2xkIiBsZW5ndGhBZGp1c3Q9InNwYWNpbmciIHRleHRMZW5ndGg9IjE4IiB4PSI3ODMiIHk9IjE5MTAuOTI2MyI+MzA8L3RleHQ+PHRleHQgZmlsbD0iIzAwMDAwMCIgZm9udC1mYW1pbHk9InNhbnMtc2VyaWYiIGZvbnQtc2l6ZT0iMTMiIGxlbmd0aEFkanVzdD0ic3BhY2luZyIgdGV4dExlbmd0aD0iODgiIHg9IjgwNSIgeT0iMTkxMC45MjYzIj5SZXR1cm4gcmVzdWx0LjwvdGV4dD48cG9seWdvbiBmaWxsPSIjMTgxODE4IiBwb2ludHM9IjU4NCwxOTQxLjEyNSw1NzQsMTk0NS4xMjUsNTg0LDE5NDkuMTI1LDU4MCwxOTQ1LjEyNSIgc3R5bGU9InN0cm9rZTojMTgxODE4O3N0cm9rZS13aWR0aDoxLjA7Ii8+PGxpbmUgc3R5bGU9InN0cm9rZTojMTgxODE4O3N0cm9rZS13aWR0aDoxLjA7c3Ryb2tlLWRhc2hhcnJheToyLjAsMi4wOyIgeDE9IjU3OCIgeDI9Ijc2NSIgeTE9IjE5NDUuMTI1IiB5Mj0iMTk0NS4xMjUiLz48dGV4dCBmaWxsPSIjMDAwMDAwIiBmb250LWZhbWlseT0ic2Fucy1zZXJpZiIgZm9udC1zaXplPSIxMyIgZm9udC13ZWlnaHQ9ImJvbGQiIGxlbmd0aEFkanVzdD0ic3BhY2luZyIgdGV4dExlbmd0aD0iMTgiIHg9IjU5MCIgeT0iMTk0MC4wNTkxIj4zMTwvdGV4dD48dGV4dCBmaWxsPSIjMDAwMDAwIiBmb250LWZhbWlseT0ic2Fucy1zZXJpZiIgZm9udC1zaXplPSIxMyIgbGVuZ3RoQWRqdXN0PSJzcGFjaW5nIiB0ZXh0TGVuZ3RoPSI4OCIgeD0iNjEyIiB5PSIxOTQwLjA1OTEiPlJldHVybiByZXN1bHQuPC90ZXh0Pjxwb2x5Z29uIGZpbGw9IiMxODE4MTgiIHBvaW50cz0iMzgwLDE5NzAuMjU3OCwzNzAsMTk3NC4yNTc4LDM4MCwxOTc4LjI1NzgsMzc2LDE5NzQuMjU3OCIgc3R5bGU9InN0cm9rZTojMTgxODE4O3N0cm9rZS13aWR0aDoxLjA7Ii8+PGxpbmUgc3R5bGU9InN0cm9rZTojMTgxODE4O3N0cm9rZS13aWR0aDoxLjA7c3Ryb2tlLWRhc2hhcnJheToyLjAsMi4wOyIgeDE9IjM3NCIgeDI9IjU3MiIgeTE9IjE5NzQuMjU3OCIgeTI9IjE5NzQuMjU3OCIvPjx0ZXh0IGZpbGw9IiMwMDAwMDAiIGZvbnQtZmFtaWx5PSJzYW5zLXNlcmlmIiBmb250LXNpemU9IjEzIiBmb250LXdlaWdodD0iYm9sZCIgbGVuZ3RoQWRqdXN0PSJzcGFjaW5nIiB0ZXh0TGVuZ3RoPSIxOCIgeD0iMzg2IiB5PSIxOTY5LjE5MTkiPjMyPC90ZXh0Pjx0ZXh0IGZpbGw9IiMwMDAwMDAiIGZvbnQtZmFtaWx5PSJzYW5zLXNlcmlmIiBmb250LXNpemU9IjEzIiBsZW5ndGhBZGp1c3Q9InNwYWNpbmciIHRleHRMZW5ndGg9Ijg4IiB4PSI0MDgiIHk9IjE5NjkuMTkxOSI+UmV0dXJuIHJlc3VsdC48L3RleHQ+PHBvbHlnb24gZmlsbD0iIzE4MTgxOCIgcG9pbnRzPSI5NywxOTk5LjM5MDYsODcsMjAwMy4zOTA2LDk3LDIwMDcuMzkwNiw5MywyMDAzLjM5MDYiIHN0eWxlPSJzdHJva2U6IzE4MTgxODtzdHJva2Utd2lkdGg6MS4wOyIvPjxsaW5lIHN0eWxlPSJzdHJva2U6IzE4MTgxODtzdHJva2Utd2lkdGg6MS4wO3N0cm9rZS1kYXNoYXJyYXk6Mi4wLDIuMDsiIHgxPSI5MSIgeDI9IjM2OCIgeTE9IjIwMDMuMzkwNiIgeTI9IjIwMDMuMzkwNiIvPjx0ZXh0IGZpbGw9IiMwMDAwMDAiIGZvbnQtZmFtaWx5PSJzYW5zLXNlcmlmIiBmb250LXNpemU9IjEzIiBmb250LXdlaWdodD0iYm9sZCIgbGVuZ3RoQWRqdXN0PSJzcGFjaW5nIiB0ZXh0TGVuZ3RoPSIxOCIgeD0iMTAzIiB5PSIxOTk4LjMyNDciPjMzPC90ZXh0Pjx0ZXh0IGZpbGw9IiMwMDAwMDAiIGZvbnQtZmFtaWx5PSJzYW5zLXNlcmlmIiBmb250LXNpemU9IjEzIiBsZW5ndGhBZGp1c3Q9InNwYWNpbmciIHRleHRMZW5ndGg9Ijg4IiB4PSIxMjUiIHk9IjE5OTguMzI0NyI+UmV0dXJuIHJlc3VsdC48L3RleHQ+PCEtLU1ENT1bZDI1OGE5MmU3MTQ5NWNlOTU3MzQyNzA1ZGU5Y2NhMDZdJiN4YTtAc3RhcnR1bWwmI3hhOyYjeGE7YWN0b3IgIk1vamFsb29wIEFkYXB0ZXIiIGFzIGRmc3AmI3hhO25vdGUgb3ZlciBkZnNwJiN4YTsgICAgKiBQYXJ0aWNpcGFudCBCYW5rIEEmI3hhOyAgICAqIFBhcnRpY2lwYW50IEJhbmsgQiYjeGE7ZW5kIG5vdGUmI3hhOyYjeGE7Ym94IENlbnRyYWwtTGVkZ2VyICNGRkZGRjkmI3hhOyAgICBwYXJ0aWNpcGFudCAiKipBUEkqKiIgYXMgY2xfYXBpJiN4YTsgICAgcGFydGljaXBhbnQgIl9fYXBpX18gLyBIYW5kbGVyIiBhcyBjbF9oYW5kbGVyJiN4YTsgICAgcGFydGljaXBhbnQgIl9fZG9tYWluX18gLyBTZXJ2aWNlIiBhcyBjbF9kb21haW4mI3hhOyAgICBwYXJ0aWNpcGFudCAiX19tb2RlbHNfXyAvIEZhY2FkZSIgYXMgY2xfZmFjYWRlJiN4YTsmI3hhOyAgICBub3RlIG92ZXIgY2xfYXBpJiN4YTsgICAgICAgIFJFU1QgQVBJIGRlcGxveWVkIGluIE5vZGVKUyYjeGE7ICAgIGVuZCBub3RlJiN4YTsmI3hhOyAgICBub3RlIG92ZXIgY2xfaGFuZGxlciYjeGE7ICAgICAgICBKU09OIHJlcXVlc3QgZGVjb2RlZCBhbmQmI3hhOyAgICAgICAgc2VudCBmb3IgcHJvY2Vzc2luZyB2aWEgYSBoYW5kbGVyJiN4YTsgICAgZW5kIG5vdGUmI3hhOyYjeGE7ICAgIG5vdGUgb3ZlciBjbF9kb21haW4mI3hhOyAgICAgICAgRG9tYWluIGZvbGRlciB3aGVyZSB0aGUgc2VydmljZSYjeGE7ICAgICAgICBmdW5jdGlvbnMgYXJlIGV4cG9zZWQuJiN4YTsgICAgZW5kIG5vdGUmI3hhOyYjeGE7ICAgIG5vdGUgb3ZlciBjbF9mYWNhZGUmI3hhOyAgICAgICAgRmFjYWRlIGZvciBzdG9yaW5nL3JldHJpZXZpbmcgZGF0YSBmcm9tJiN4YTsgICAgICAgIE15U1FMIGFuZCBUaWdlckJlZXRsZSYjeGE7ICAgIGVuZCBub3RlJiN4YTtlbmQgYm94JiN4YTsmI3hhO2JveCBTdG9yYWdlICNGOUZGRjkmI3hhOwljb250cm9sICJUaWdlckJlZXRsZSBDbGllbnQiIGFzIHRiX2NsaWVudCYjeGE7CWNvbGxlY3Rpb25zICJUaWdlckJlZXRsZSBDbHVzdGVyIiBhcyB0Yl9ub2RlcyYjeGE7CWRhdGFiYXNlICJjZW50cmFsLWxlZGdlciIgYXMgY2xfZGImI3hhOwlkYXRhYmFzZSAiUmVkaXMiIGFzIHJlZGlzX2NhY2hlJiN4YTtlbmQgYm94JiN4YTsmI3hhO2F1dG9udW1iZXImI3hhO2dyb3VwIENyZWF0ZSBUcmFuc2ZlciAoMi1QaGFzZSkmI3hhOyAgICBkZnNwIC0+IGNsX2FwaSA6IC8vSlNPTi8vIFxuKioodHJhbnNmZXIgZGF0YSkqKiYjeGE7ICAgIGNsX2FwaSAtPiBjbF9oYW5kbGVyIDogLy8vam1ldGVyL3RyYW5zZmVycy9wcmVwYXJlLy8gXG5IYW5kbGVyIGludm9rZWQmI3hhOyAgICBjbF9oYW5kbGVyIC0+IGNsX2RvbWFpbiA6IFNlcnZpY2UgbGF5ZXIgaW52b2tlZCYjeGE7ICAgIGNsX2RvbWFpbiAtPiBjbF9mYWNhZGUgOiBEb21haW4gdG8gZmFjYWRlJiN4YTsgICAgY2xfZmFjYWRlIC0+IGNsX2RiIDogUGVyZm9ybSB0aGUgZm9sbG93aW5nIHZhbGlkYXRpb25zIGFnYWluc3QgdGhlIGRhdGFiYXNlOlxuKi8vdmFsaWRhdGVGc3Bpb3BTb3VyY2VNYXRjaGVzUGF5ZXIvL1xuKi8vdmFsaWRhdGVQYXJ0aWNpcGFudEJ5TmFtZS8vXG4qLy92YWxpZGF0ZVBvc2l0aW9uQWNjb3VudEJ5TmFtZUFuZEN1cnJlbmN5Ly9cbiovL3ZhbGlkYXRlUGFydGljaXBhbnRCeU5hbWUvL1xuKi8vdmFsaWRhdGVBbW91bnQvL1xuKi8vdmFsaWRhdGVDb25kaXRpb25BbmRFeHBpcmF0aW9uLy9cbiovL3ZhbGlkYXRlRGlmZmVyZW50RGZzcC8vJiN4YTsgICAgY2xfZmFjYWRlIC0+IHJlZGlzX2NhY2hlIDogTG9va3VwIHBhcnRpY2lwYW50IGRhdGEgYnkgXG4vL25hbWUvLywgLy9hY2NvdW50IHR5cGUvLyAoUE9TSVRJT04pIGFuZCAvL2N1cnJlbmN5Ly8uJiN4YTsgICAgYXV0b251bWJlciBzdG9wJiN4YTsgICAgY2xfZmFjYWRlIC0gLT4gY2xfZGIgOiBJZiB0aGUgcGFydGljaXBhbnQgZGF0YSBpcyBub3QgYXZhaWxhYmxlIGluIFJlZGlzLCBhIGRhdGFiYXNlIGxvb2t1cCBpcyBwZXJmb3JtZWQmI3hhOyAgICBjbF9mYWNhZGUgLSAtPiByZWRpc19jYWNoZSA6IERhdGEgbG9va2VkIHVwIGlzIG5vdyBzdG9yZWQgaW4gUmVkaXMuJiN4YTsgICAgYXV0b251bWJlciByZXN1bWUmI3hhOyAgICBjbF9mYWNhZGUgLT4gdGJfY2xpZW50IDogUGVuZGluZyAvL1RyYW5zZmVyLy8gcmVxdWVzdGVkIHZpYSB0aGUgQ0wtVEIgaW50ZXJmYWNlLiYjeGE7ICAgIHRiX2NsaWVudCAtPiB0Yl9ub2RlcyA6IC8vdHJhbnNmZXIvLyBEaXN0cmlidXRlZCB0byBub2Rlc1xuIHZpYSB0aGUgc3RhdGUgbWFjaGluZS4mI3hhOyAgICB0Yl9ub2RlcyAtPiB0Yl9ub2RlcyA6IFJlcGxpY2F0aW9uIHZpYSBWU1IuJiN4YTsgICAgdGJfY2xpZW50IC0gLT4gY2xfZmFjYWRlIDogLy90cmFuc2Zlci8vIGNyZWF0ZSBlcnJvciAqKihub25lKSoqJiN4YTsgICAgY2xfZmFjYWRlIC0gLT4gY2xfZG9tYWluIDogUmV0dXJuIHJlc3VsdCYjeGE7ICAgIGNsX2RvbWFpbiAtIC0+IGNsX2hhbmRsZXIgOiBSZXR1cm4gcmVzdWx0JiN4YTsgICAgY2xfaGFuZGxlciAtIC0+IGNsX2FwaSA6IFJldHVybiByZXN1bHQmI3hhOyAgICBjbF9hcGkgLSAtPiBkZnNwIDogUmV0dXJuIHJlc3VsdCB3aXRoIC8vKip0cmFuc2ZlcklkKiovLyYjeGE7ICAgID09IEFzeW5jaHJvbm91cyBEYXRhYmFzZSBBY3Rpdml0aWVzIFNUQVJUID09JiN4YTsgICAgY2xfZmFjYWRlIC0+IGNsX2RiIDogKipbQVNZTkMgMS4xXSoqXG4qLy90cmFuc2ZlckR1cGxpY2F0ZUNoZWNrLy8gREIgcmVjb3JkIGNyZWF0ZWQuJiN4YTsgICAgY2xfZmFjYWRlIC0+IGNsX2RiIDogKipbQVNZTkMgMS4yXSoqXG4qLy90cmFuc2Zlci8vLCBcbiovL3RyYW5zZmVyUGFydGljaXBhbnQvLywgXG4qLy9pbHBQYWNrZXQvLyBcbiovL3RyYW5zZmVyU3RhdGVDaGFuZ2UvLyBcbiovL3RyYW5zZmVyRXh0ZW5zaW9uLy9cbkRhdGFiYXNlIHJlY29yZHMgY3JlYXRlZC4mI3hhOyAgICBjbF9kYiA8LSAtPiBjbF9mYWNhZGUgOiAqKltBU1lOQyAxLjNdKipcbiBEYXRhYmFzZSB0cmFuc2FjdGlvbiBjb21taXR0ZWQuJiN4YTsgICAgPT0gQXN5bmNocm9ub3VzIERhdGFiYXNlIEFjdGl2aXRpZXMgU1RPUCA9PSYjeGE7JiN4YTt8fDcwfHwmI3hhOyYjeGE7ICAgID09IFRyYW5zZmVyIEZ1bGZpbG1lbnQgPT0mI3hhOyAgICBkZnNwIC0+IGNsX2FwaSA6IC8vSlNPTi8vIFxuKGZ1bGZpbCB0cmFuc2ZlciBkYXRhIHdpdGggLy8qKnRyYW5zZmVySWQqKi8vKSYjeGE7ICAgIGNsX2FwaSAtPiBjbF9oYW5kbGVyIDogLy8vam1ldGVyL3RyYW5zZmVycy9mdWxmaWwvLyBcbkhhbmRsZXIgaW52b2tlZC4mI3hhOyAgICBjbF9oYW5kbGVyIC0+IGNsX2RvbWFpbiA6IFNlcnZpY2UgbGF5ZXIgaW52b2tlZCBcbi8vaGFuZGxlUGF5ZWVSZXNwb25zZS8vJiN4YTsgICAgY2xfZG9tYWluIC0+IGNsX2ZhY2FkZSA6IERvbWFpbiB0byBmYWNhZGUgXG4vL3NhdmVQYXllZVRyYW5zZmVyUmVzcG9uc2UvLyYjeGE7ICAgIGNsX2ZhY2FkZSAtPiBjbF9kYiA6IE5ldyBEYXRhYmFzZSB0cmFuc2FjdGlvbiBmb3IgZnVsZmlsbG1lbnQuJiN4YTsgICAgY2xfZmFjYWRlIC0+IGNsX2RiIDogT2J0YWluIC8vKipzZXR0bGVtZW50V2luZG93SWQqKi8vIGZvciB3aW5kb3cgd2hlcmUgc3RhdGUgaXMgKipPUEVOKiouJiN4YTsgICAgY2xfZmFjYWRlIC0+IHRiX2NsaWVudCA6IC8vVHJhbnNmZXIvLyBwb3N0aW5nIHJlcXVlc3RlZCB2aWEgdGhlIENMLVRCIGludGVyZmFjZS4mI3hhOyAgICB0Yl9jbGllbnQgLT4gdGJfbm9kZXMgOiAvL3RyYW5zZmVyLy8gRGlzdHJpYnV0ZWQgdG8gbm9kZXNcbiB2aWEgdGhlIHN0YXRlIG1hY2hpbmUuJiN4YTsgICAgdGJfbm9kZXMgLT4gdGJfbm9kZXMgOiBSZXBsaWNhdGlvbiB2aWEgVlNSLiYjeGE7ICAgIHRiX2NsaWVudCAtIC0+IGNsX2ZhY2FkZSA6IC8vdHJhbnNmZXIvLyBwb3N0aW5nIGNyZWF0ZSBlcnJvciAqKihub25lKSoqLiYjeGE7ICAgIGNsX2ZhY2FkZSAtPiBjbF9kYiA6IENyZWF0ZSBcbiovL3RyYW5zZmVyRnVsZmlsbWVudC8vIFxuKi8vdHJhbnNmZXJTdGF0ZUNoYW5nZS8vIFxuRGF0YWJhc2UgcmVjb3Jkcy4mI3hhOyAgICBjbF9mYWNhZGUgLT4gY2xfZGIgOiBEYXRhYmFzZSB0cmFuc2FjdGlvbiBjb21taXR0ZWQuJiN4YTsgICAgY2xfZmFjYWRlIC0gLT4gY2xfZG9tYWluIDogUmV0dXJuIHJlc3VsdC4mI3hhOyAgICBjbF9kb21haW4gLSAtPiBjbF9oYW5kbGVyIDogUmV0dXJuIHJlc3VsdC4mI3hhOyAgICBjbF9oYW5kbGVyIC0gLT4gY2xfYXBpIDogUmV0dXJuIHJlc3VsdC4mI3hhOyAgICBjbF9hcGkgLSAtPiBkZnNwIDogUmV0dXJuIHJlc3VsdC4mI3hhO2VuZCYjeGE7JiN4YTtAZW5kdW1sJiN4YTsmI3hhO1BsYW50VU1MIHZlcnNpb24gMS4yMDIyLjQoU2F0IEFwciAwOSAxNToyOToxNyBDRVNUIDIwMjIpJiN4YTsoR1BMIHNvdXJjZSBkaXN0cmlidXRpb24pJiN4YTtKYXZhIFJ1bnRpbWU6IE9wZW5KREsgUnVudGltZSBFbnZpcm9ubWVudCYjeGE7SlZNOiBPcGVuSkRLIDY0LUJpdCBTZXJ2ZXIgVk0mI3hhO0RlZmF1bHQgRW5jb2Rpbmc6IFVURi04JiN4YTtMYW5ndWFnZTogZW4mI3hhO0NvdW50cnk6IFVTJiN4YTstLT48L2c+PC9zdmc+;clipPath=inset(0% 0.37% 39% 0%);" vertex="1" parent="1"><mxGeometry x="30" y="40" width="472" height="318.73062730627305" as="geometry"/></mxCell><mxCell id="4az9DCe-nxPSlIeyKyeP-2" value="" style="rounded=1;whiteSpace=wrap;html=1;fontSize=9;strokeColor=#808080;strokeWidth=0.5;fillColor=#D1DCE0;" vertex="1" parent="1"><mxGeometry x="40" y="40" width="20" height="16" as="geometry"/></mxCell></root></mxGraphModel></diagram><diagram name="Copy of transfer-prepare" id="1LygK2Rz79BCWh1fdUer"><mxGraphModel dx="782" dy="403" grid="1" gridSize="10" guides="1" tooltips="1" connect="1" arrows="1" fold="1" page="1" pageScale="1" pageWidth="850" pageHeight="1100" math="0" shadow="0"><root><mxCell id="pekJiPKCRRGIvrQhQfLJ-0"/><mxCell id="pekJiPKCRRGIvrQhQfLJ-1" parent="pekJiPKCRRGIvrQhQfLJ-0"/></root></mxGraphModel></diagram></mxfile>